<?xml version="1.0" encoding="UTF-8"?>
<svg id="Layer_2" data-name="Layer 2" xmlns="http://www.w3.org/2000/svg" viewBox="0 0 583.74 463.37">
  <defs>
    <style>
      .cls-1 {
        fill: #fff;
      }
    </style>
  </defs>
  <g id="Layer_1-2" data-name="Layer 1">
    <g>
      <path class="cls-1" d="M238.79,151.39v-76.69c0-17.14-5.18-30.92-15-39.87-7.66-7-17.96-10.85-30.15-11.4-3.1-.14-6.32-.08-9.65.21-2.46.22-4.85.55-7.17.98-29.46,5.44-47.44,27.67-47.44,59.51v103.17c0,17.14,5.18,30.92,15,39.87,9.35,8.53,22.63,12.41,38.46,11.29.45-.03.91-.06,1.34-.1,33.69-2.98,54.61-26.14,54.61-60.5v-13.66l-38.86,3.42v10.52c0,5.07,0,20.49-15.95,21.9-4.6.4-8-.49-10.44-2.7-4.39-4-5.05-11.9-5.05-16.23v-23.54l70.3-6.2ZM168.5,83.83c0-5.07,0-20.51,15.68-21.88.15-.01.3-.02.45-.03,4.37-.31,7.62.59,9.99,2.73,4.39,4,5.05,11.88,5.05,16.23v39.2l-31.18,2.76v-39.01ZM0,251.45V37.17l39.14-2.78v99.83l31.71-2.78V32.14l39.12-2.78v214.28l-39.12,2.78v-77.18l-31.71,2.78v76.65l-39.14,2.78ZM336,189.9v37.55l-80.04,5.68V18.86l39.14-2.78v176.72l40.9-2.9ZM435.45,182.84v37.55l-80.04,5.68V11.8l39.14-2.78v176.72l40.9-2.9ZM540.38,12.29c-9.89-9.23-23.81-13.29-41.37-12.08-18.22,1.26-33,7.97-42.74,19.4-8.2,9.63-12.72,22.47-12.72,36.15v115.87c0,14.61,5.07,27.39,14.28,35.98,8.75,8.17,20.66,12.29,35.45,12.29,1.92,0,3.9-.07,5.92-.21,18.22-1.26,33-7.97,42.74-19.4,8.2-9.63,12.72-22.47,12.72-36.15V48.27c0-14.61-5.07-27.39-14.28-35.98ZM516.75,54.45v108.37c0,17.26-13.58,19.55-17.74,19.83-5.33.37-9.55-.87-12.56-3.67-4.35-4.06-5-10.22-5-13.53V57.08c0-17.26,13.58-19.55,17.74-19.83.61-.04,1.21-.06,1.8-.06,4.49,0,8.1,1.25,10.76,3.73,4.35,4.06,5,10.22,5,13.53Z"/>
      <path class="cls-1" d="M200.47,394.43v12.64c0,4.29-1.3,18.38-18.1,19.55-5.28.37-9.46-.85-12.43-3.62-4.27-3.99-4.91-10.03-4.91-13.28v-106.72c0-4.29,1.26-18.38,17.52-19.5,5.59-.39,9.98.87,13.04,3.73,4.24,3.95,4.87,9.93,4.87,13.14v29.58s36.98-2.56,36.98-2.56v-33.08c0-14.35-5-26.92-14.07-35.39-9.79-9.14-23.59-13.15-41.01-11.96-18.03,1.25-32.65,7.86-42.29,19.13-8.12,9.49-12.59,22.14-12.59,35.63v114.1c0,14.35,5,26.92,14.08,35.39,8.66,8.09,20.46,12.17,35.13,12.17,1.91,0,3.87-.07,5.88-.21,18.03-1.25,32.65-7.86,42.29-19.13,8.12-9.49,12.59-22.14,12.59-35.63v-16.53s-36.98,2.56-36.98,2.56Z"/>
      <path class="cls-1" d="M423.44,232.91v160.36c.01,4.38-1.18,18.76-16.54,19.91-4.99.38-8.93-.87-11.74-3.7-4.04-4.07-4.64-10.24-4.64-13.55v-160.56s-35.48,2.65-35.48,2.65v164.13c.01,14.65,4.73,27.48,13.3,36.12,8.18,8.25,19.32,12.42,33.18,12.42,1.81,0,3.66-.07,5.56-.21,38.27-2.86,51.84-31.9,51.84-55.89v-164.33s-35.48,2.65-35.48,2.65Z"/>
      <path class="cls-1" d="M583.74,375.29c0-18.25-6.41-31.69-16.66-35.72,9.83-5.6,15.79-19.55,15.78-37.69v-36.74c0-13.06-3.91-23.6-11.3-30.5-7.1-6.63-17.01-9.54-29.45-8.69l-64.37,4.45v211.68s65.46-4.53,65.46-4.53c25.39-1.76,40.54-18.44,40.54-44.62v-17.65ZM516.02,264.14l17.58-1.21c4.36-.3,7.27.28,8.88,1.79,1.48,1.38,2.11,3.71,2.11,7.8v30.09c0,12.41-1.95,20.8-11.47,21.46l-17.09,1.18v-61.1ZM516.03,403.05v-42.01s17.57-1.21,17.57-1.21c3.3-.24,5.8.49,7.63,2.2,3.73,3.48,4.23,10.78,4.24,17.46v10.99c0,7.14-1.67,10.66-11.18,11.32l-18.25,1.26Z"/>
      <polygon class="cls-1" points="336.25 415.35 336.25 452.9 256.21 458.58 256.21 244.31 295.35 241.53 295.35 418.25 336.25 415.35"/>
    </g>
  </g>
</svg>