<?xml version="1.0" encoding="UTF-8"?>
<svg id="Layer_2" data-name="Layer 2" xmlns="http://www.w3.org/2000/svg" viewBox="0 0 904.07 128.86">
  <defs>
    <style>
      .cls-1 {
        fill: #fff;
      }
    </style>
  </defs>
  <g id="Layer_1-2" data-name="Layer 1">
    <g>
      <path class="cls-1" d="M450.94,68.07h-7.94c-.23,0-.43.16-.58.47l-3.27,27.31c-.08.08-.08.18,0,.29.08.12.19.18.35.18h7.82c3.5,0,6.4-1.21,8.69-3.62,2.29-2.41,3.71-5.84,4.26-10.27.16-1.4.23-2.41.23-3.03,0-3.58-.84-6.36-2.51-8.34-1.67-1.98-4.03-2.98-7.06-2.98Z"/>
      <path class="cls-1" d="M374.97,34.11h-8.29c-.08,0-.18.04-.29.12-.12.08-.18.2-.18.35l-7.47,61.39c-.08.08-.08.18,0,.29.08.12.19.18.35.18l8.29-.12c2.88,0,5.33-1.15,7.35-3.44,2.02-2.29,3.31-5.43,3.85-9.39l4.43-36.41c.08-.62.12-1.52.12-2.68,0-3.27-.7-5.8-2.1-7.59-1.4-1.79-3.42-2.68-6.07-2.68Z"/>
      <path class="cls-1" d="M454.44,34.11h-7.35c-.08,0-.18.04-.29.12-.12.08-.18.2-.18.35l-3.03,24.74c0,.16.04.27.12.35.08.08.16.12.23.12h7.35c3.97,0,7.12-1.38,9.45-4.14,2.33-2.76,3.5-6.52,3.5-11.26,0-3.27-.86-5.8-2.57-7.59-1.71-1.79-4.12-2.68-7.24-2.68Z"/>
      <path class="cls-1" d="M61.27,33.99h-8.29c-.23,0-.43.16-.58.47l-3.27,26.73c0,.31.16.47.47.47h8.29c3.11,0,5.76-1.23,7.94-3.68,2.18-2.45,3.54-5.78,4.08-9.98.16-1.4.23-2.37.23-2.92,0-3.42-.8-6.13-2.39-8.11-1.6-1.98-3.75-2.98-6.48-2.98Z"/>
      <path class="cls-1" d="M111.8,33.17c-2.88,0-5.35,1.03-7.41,3.09-2.06,2.06-3.29,4.77-3.68,8.11l-5.14,41.78c-.08.47-.12,1.13-.12,1.98,0,2.8.76,5.04,2.28,6.71,1.52,1.67,3.6,2.51,6.24,2.51,2.96,0,5.49-1.03,7.59-3.09,2.1-2.06,3.34-4.76,3.73-8.11l5.13-41.78c.08-.47.12-1.09.12-1.87,0-2.8-.78-5.06-2.33-6.77-1.56-1.71-3.7-2.57-6.42-2.57Z"/>
      <path class="cls-1" d="M279.51,34.11h-8.4c-.08,0-.18.04-.29.12-.12.08-.18.2-.18.35l-3.15,26.14c-.08.08-.08.18,0,.29.08.12.19.18.35.18h8.4c3.42,0,6.3-1.52,8.64-4.55s3.5-6.92,3.5-11.67c0-3.34-.8-5.99-2.39-7.94-1.6-1.94-3.75-2.92-6.48-2.92Z"/>
      <path class="cls-1" d="M15.35,0L0,128.86h887.3L904.07,0H15.35ZM80.76,47.76c-.78,6.85-3.17,12.37-7.18,16.57-4.01,4.2-8.85,6.3-14.53,6.3h-10.62c-.31,0-.47.16-.47.47l-4.2,33.84c-.16.78-.58,1.17-1.28,1.17h-8.64c-.31,0-.57-.12-.76-.35-.2-.23-.25-.51-.18-.82l9.8-79.48c0-.31.12-.58.35-.82s.54-.35.93-.35h20.19c5.13,0,9.22,1.73,12.25,5.19,3.03,3.46,4.55,8.11,4.55,13.95,0,1.87-.08,3.31-.23,4.32ZM131.29,44.96l-5.02,40.73c-.78,6.46-3.33,11.63-7.64,15.52-4.32,3.89-9.59,5.84-15.81,5.84-5.6,0-10.04-1.59-13.3-4.79-3.27-3.19-4.9-7.55-4.9-13.07,0-.78.08-1.94.23-3.5l4.9-40.73c.78-6.46,3.31-11.65,7.59-15.58,4.28-3.93,9.53-5.89,15.76-5.89,5.68,0,10.17,1.65,13.48,4.96,3.31,3.31,4.96,7.72,4.96,13.25,0,.62-.08,1.71-.23,3.27ZM181.36,106.11h-8.05c-.62,0-.93-.35-.93-1.05l-1.87-55.2c-.08-.16-.18-.23-.29-.23s-.18.08-.18.23l-14.94,55.2c-.23.7-.66,1.05-1.28,1.05h-7.94c-.78,0-1.17-.35-1.17-1.05l-5.37-79.36c0-.39.12-.7.35-.93.23-.23.51-.35.82-.35h8.99c.7,0,1.09.35,1.17,1.05l2.45,54.73c0,.16.06.23.18.23s.21-.08.29-.23l14.82-54.73c.23-.7.66-1.05,1.28-1.05h7.59c.62,0,.93.35.93,1.05l1.98,54.73c.08.16.16.23.23.23s.16-.08.23-.23l15.17-54.73c.16-.7.58-1.05,1.28-1.05h8.75c.78,0,1.09.43.93,1.28l-24.04,79.36c-.23.7-.7,1.05-1.4,1.05ZM250.1,34.11h-25.56c-.08,0-.18.04-.29.12-.12.08-.18.2-.18.35l-3.15,25.33c0,.31.16.47.47.47h15.64c.78,0,1.09.39.93,1.17l-.93,7.35c0,.31-.12.58-.35.82s-.51.35-.82.35h-15.64c-.23,0-.43.16-.58.47l-3.03,25.44c-.08.08-.08.18,0,.29.08.12.19.18.35.18h25.44c.7,0,1.05.39,1.05,1.17l-.93,7.35c-.16.78-.58,1.17-1.28,1.17h-35.71c-.31,0-.57-.12-.76-.35-.2-.23-.25-.51-.18-.82l9.69-79.36c.08-.31.23-.58.47-.82.23-.23.5-.35.82-.35h35.71c.78,0,1.09.39.93,1.17l-.82,7.35c-.16.78-.58,1.17-1.28,1.17ZM299,47.64c-.55,4.9-2.02,9.18-4.43,12.84-2.41,3.66-5.41,6.26-8.99,7.82-.31.23-.43.47-.35.7l7.12,35.83v.23c0,.7-.35,1.05-1.05,1.05h-8.87c-.23,0-.47-.08-.7-.23-.23-.16-.39-.39-.47-.7l-6.19-34.78c-.08-.23-.2-.35-.35-.35h-7.94c-.23,0-.43.16-.58.47l-4.2,34.43c-.16.78-.58,1.17-1.28,1.17h-8.64c-.31,0-.57-.12-.76-.35-.2-.23-.25-.51-.18-.82l9.69-79.36c.08-.31.23-.58.47-.82.23-.23.5-.35.82-.35h20.31c5.13,0,9.22,1.73,12.25,5.19,3.03,3.46,4.55,8.07,4.55,13.83,0,1.79-.08,3.19-.23,4.2ZM345.68,34.11h-25.56c-.08,0-.18.04-.29.12-.12.08-.18.2-.18.35l-3.15,25.33c0,.31.16.47.47.47h15.64c.78,0,1.09.39.93,1.17l-.93,7.35c0,.31-.12.58-.35.82s-.51.35-.82.35h-15.64c-.23,0-.43.16-.58.47l-3.03,25.44c-.08.08-.08.18,0,.29.08.12.19.18.35.18h25.44c.7,0,1.05.39,1.05,1.17l-.93,7.35c-.16.78-.58,1.17-1.28,1.17h-35.71c-.31,0-.57-.12-.76-.35-.2-.23-.25-.51-.18-.82l9.69-79.36c.08-.31.23-.58.47-.82.23-.23.5-.35.82-.35h35.71c.78,0,1.09.39.93,1.17l-.82,7.35c-.16.78-.58,1.17-1.28,1.17ZM394.11,46.48l-4.67,37.58c-.78,6.77-3.27,12.14-7.47,16.11-4.2,3.97-9.41,5.95-15.64,5.95h-18.67c-.31,0-.57-.12-.76-.35-.2-.23-.25-.51-.18-.82l9.69-79.36c.08-.31.23-.58.47-.82.23-.23.5-.35.82-.35h18.56c5.68,0,10.11,1.63,13.3,4.9,3.19,3.27,4.78,7.74,4.78,13.42,0,.78-.08,2.02-.23,3.73ZM474.75,46.13c-1.09,8.48-4.71,14.28-10.85,17.39-.31.23-.39.43-.23.58,5.06,3.42,7.59,8.71,7.59,15.87,0,.7-.08,1.91-.23,3.62-.86,7.16-3.46,12.7-7.82,16.63-4.36,3.93-9.77,5.89-16.22,5.89h-18.91c-.31,0-.57-.12-.76-.35-.2-.23-.25-.51-.18-.82l9.69-79.36c.08-.31.23-.58.47-.82.23-.23.5-.35.82-.35h17.39c6.15,0,10.93,1.52,14.35,4.55,3.42,3.03,5.13,7.43,5.13,13.19,0,.78-.08,2.1-.23,3.97ZM525.4,25.7l-21.24,45.17c-.16.16-.23.35-.23.58l-4.08,33.38c-.16.78-.58,1.17-1.28,1.17h-8.64c-.78,0-1.09-.39-.93-1.17l4.08-33.38c0-.08-.02-.18-.06-.29-.04-.12-.02-.21.06-.29l-10.27-45.17v-.23c0-.7.35-1.05,1.05-1.05h9.1c.62,0,1.05.31,1.28.93l5.6,32.21c.08.16.19.23.35.23s.27-.08.35-.23l13.54-32.21c.39-.62.89-.93,1.52-.93h9.1c.39,0,.64.12.76.35.12.23.1.55-.06.93ZM602.77,46.36l-.35,2.8c-.08.39-.27.72-.58.99-.31.27-.66.41-1.05.41h-15.64c-.86,0-1.28-.47-1.28-1.4l.47-3.27c.16-1.71-.14-3.11-.88-4.2-.74-1.09-1.81-1.63-3.21-1.63-1.48,0-2.74.66-3.79,1.98-1.05,1.32-1.58,3-1.58,5.02,0,1.63.6,3.21,1.81,4.73,1.2,1.52,3.4,3.6,6.59,6.24,3.97,3.35,6.94,6.05,8.93,8.11,1.98,2.06,3.58,4.28,4.79,6.65,1.2,2.37,1.81,5.08,1.81,8.11,0,.62-.08,1.71-.23,3.27-.78,5.76-2.9,10.6-6.36,14.53-3.46,3.93-7.8,6.48-13.01,7.64-.47.16-.7.39-.7.7l-.47,6.07c-.08.39-.25.72-.52.99-.27.27-.6.41-.99.41h-11.2c-.86,0-1.28-.47-1.28-1.4l.93-6.54c.08-.31-.04-.5-.35-.58-3.97-1.24-7.08-3.4-9.34-6.48-2.26-3.07-3.38-6.75-3.38-11.03,0-.7.08-1.75.23-3.15l.35-3.62c.08-.39.27-.72.58-.99.31-.27.66-.41,1.05-.41h15.75c.86,0,1.28.47,1.28,1.4l-.35,2.68-.12,1.17c0,1.48.37,2.67,1.11,3.56.74.9,1.69,1.34,2.86,1.34,1.48,0,2.74-.6,3.79-1.81,1.05-1.21,1.57-2.78,1.57-4.73,0-1.48-.6-2.92-1.81-4.32-1.21-1.4-3.52-3.5-6.94-6.3-3.27-2.64-5.88-4.94-7.82-6.89-1.95-1.94-3.64-4.34-5.08-7.18-1.44-2.84-2.16-6.09-2.16-9.75,0-6.22,1.71-11.59,5.13-16.1,3.42-4.51,7.9-7.51,13.42-8.99.31-.08.47-.27.47-.58l.82-7.47c.08-.39.25-.72.52-.99s.6-.41.99-.41h10.97c.85,0,1.28.47,1.28,1.4l-1.05,7.24c0,.39.12.62.35.7,4.36,1.17,7.76,3.4,10.21,6.71,2.45,3.31,3.68,7.33,3.68,12.08,0,.62-.08,1.71-.23,3.27ZM651.44,104.71c-.08.39-.27.72-.58.99-.31.27-.66.41-1.05.41h-15.99c-.39,0-.7-.14-.93-.41-.23-.27-.31-.6-.23-.99l3.73-30.58c0-.39-.16-.58-.47-.58h-8.17c-.31,0-.54.2-.7.58l-3.73,30.58c-.08.39-.25.72-.53.99-.27.27-.6.41-.99.41h-16.1c-.39,0-.7-.14-.93-.41-.23-.27-.31-.6-.23-.99l9.69-78.89c.08-.39.25-.72.52-.99.27-.27.6-.41.99-.41h16.1c.39,0,.7.14.93.41.23.27.31.6.23.99l-3.73,30.46c0,.39.16.58.47.58h8.17c.31,0,.54-.19.7-.58l3.73-30.46c0-.39.16-.72.47-.99.31-.27.66-.41,1.05-.41h15.99c.86,0,1.28.47,1.28,1.4l-9.69,78.89ZM712.41,40.58c-.27.27-.6.41-.99.41h-22.76c-.31,0-.55.2-.7.58l-1.75,14.71c0,.39.16.58.47.58h12.49c.39,0,.7.14.93.41.23.27.31.6.23.99l-1.75,13.89c0,.39-.16.72-.47.99-.31.27-.66.41-1.05.41h-12.37c-.31,0-.54.2-.7.58l-1.75,14.82c-.16.39,0,.58.47.58h22.76c.39,0,.7.14.93.41.23.27.31.6.23.99l-1.63,13.77c-.08.39-.27.72-.58.99-.31.27-.66.41-1.05.41h-40.73c-.39,0-.7-.14-.93-.41-.23-.27-.31-.6-.23-.99l9.69-78.89c.08-.39.25-.72.52-.99.27-.27.6-.41.99-.41h40.73c.86,0,1.28.47,1.28,1.4l-1.75,13.77c-.08.39-.25.72-.53.99ZM757.52,104.71c0,.39-.16.72-.47.99-.31.27-.66.41-1.05.41h-41.08c-.39,0-.7-.14-.93-.41-.23-.27-.31-.6-.23-.99l9.69-78.89c.08-.39.25-.72.52-.99.27-.27.6-.41.99-.41h16.1c.39,0,.7.14.93.41.23.27.31.6.23.99l-7.7,63.14c-.16.39,0,.58.47.58h23.11c.39,0,.7.14.93.41.23.27.31.6.23.99l-1.75,13.77ZM809.22,104.71c0,.39-.16.72-.47.99-.31.27-.66.41-1.05.41h-41.08c-.39,0-.7-.14-.93-.41-.23-.27-.31-.6-.23-.99l9.69-78.89c.08-.39.25-.72.52-.99.27-.27.6-.41.99-.41h16.1c.39,0,.7.14.93.41.23.27.31.6.23.99l-7.7,63.14c-.16.39,0,.58.47.58h23.11c.39,0,.7.14.93.41.23.27.31.6.23.99l-1.75,13.77ZM870.96,47.64l-4.44,35.25c-.86,7.39-3.75,13.27-8.69,17.62-4.94,4.36-11.07,6.54-18.38,6.54-6.61,0-11.81-1.81-15.58-5.43-3.77-3.62-5.66-8.58-5.66-14.88,0-.86.08-2.14.23-3.85l4.32-35.25c.93-7.39,3.83-13.26,8.69-17.62,4.86-4.36,10.95-6.54,18.26-6.54,6.61,0,11.85,1.83,15.7,5.49,3.85,3.66,5.78,8.64,5.78,14.94,0,.78-.08,2.02-.23,3.73Z"/>
      <path class="cls-1" d="M847.73,40.06c-1.63,0-3,.62-4.08,1.87-1.09,1.25-1.75,2.88-1.98,4.9l-4.55,36.88-.12,1.28c0,1.71.39,3.05,1.17,4.03.78.97,1.91,1.46,3.39,1.46,1.63,0,2.99-.6,4.08-1.81,1.09-1.21,1.79-2.86,2.1-4.96l4.44-36.88c.08-.39.12-.89.12-1.52,0-1.63-.39-2.92-1.17-3.85-.78-.93-1.91-1.4-3.38-1.4Z"/>
    </g>
  </g>
</svg>