<svg width="22" height="23" viewBox="0 0 22 23" fill="none" xmlns="http://www.w3.org/2000/svg">
<path d="M21.673 14.1548C20.2052 20.0441 14.2404 23.6403 8.34029 22.1716C2.45101 20.6993 -1.1394 14.7344 0.328427 8.84515C1.79625 2.95589 7.75748 -0.640298 13.6432 0.828417C19.5468 2.27913 23.1372 8.26199 21.673 14.1548Z" fill="#F0B90B"/>
<path d="M15.208 10.9626L15.1995 9.1316H15.2061L13.6509 8.21611L10.986 9.78742L8.33712 8.21611L6.78289 9.1316V10.9626L9.44783 12.5263V15.6613L10.9954 16.5683L12.543 15.6613V12.5263L15.208 10.9626Z" fill="white"/>
<path d="M10.9869 3.52588L6.78194 6.0051L8.32954 6.92059L10.9869 5.34928L13.6519 6.92059L15.1995 6.0051L10.9869 3.52588Z" fill="white"/>
<path d="M5.67149 14.7383L5.66296 11.6108L4.1163 10.6963V15.6623L8.32886 18.133V16.302L5.67149 14.7383Z" fill="white"/>
<path d="M5.66296 10.3058V8.48335L7.21815 7.56785L5.66296 6.65236L4.11536 7.56785V9.39031L5.66296 10.3058Z" fill="white"/>
<path d="M10.9862 6.65236L9.43862 7.56785L10.9862 8.48335L12.5414 7.56785L10.9862 6.65236Z" fill="white"/>
<path d="M8.32954 13.1745L6.78194 12.259V14.09L8.32954 14.997V13.1745Z" fill="white"/>
<path d="M10.9869 17.8733L9.43931 16.9578V18.7802L10.9869 19.6957L12.5421 18.7802V16.9578L10.9869 17.8733Z" fill="white"/>
<path d="M16.3092 6.65236L14.7616 7.56785L16.3092 8.48335V10.3058L17.8644 9.39031V7.56785L16.3092 6.65236Z" fill="white"/>
<path d="M17.8654 10.6953L16.3178 11.6108L16.3092 14.7383L13.6528 16.301V18.132L17.8654 15.6613V10.6953Z" fill="white"/>
<path d="M15.1998 14.09L13.6522 14.9969V13.1745L15.1998 12.259V14.09Z" fill="white"/>
</svg>
