<svg width="21" height="21" viewBox="0 0 21 21" fill="none" xmlns="http://www.w3.org/2000/svg">
<g clip-path="url(#clip0_177_689)">
<path d="M6.63854 8.4936L10.5229 4.61081L14.4089 8.49676L16.6678 6.23628L10.5229 0.0898438L4.37805 6.2347L6.63854 8.4936Z" fill="#F3BA2F"/>
<path d="M0.520508 10.0906L2.77941 7.83008L5.0399 10.0906L2.77941 12.3495L0.520508 10.0906Z" fill="#F3BA2F"/>
<path d="M6.63854 11.6862L10.5229 15.5705L14.4089 11.6846L16.6693 13.9419L10.5245 20.0883L4.37805 13.9466L6.63854 11.6862Z" fill="#F3BA2F"/>
<path d="M16.0011 10.0906L18.26 7.83008L20.5205 10.089L18.26 12.351L16.0011 10.0906Z" fill="#F3BA2F"/>
<path d="M12.815 10.0891L10.5229 7.79541L8.82794 9.49038L8.63207 9.68468L8.23083 10.0859L10.5229 12.3764L12.815 10.0906V10.0891Z" fill="#F3BA2F"/>
</g>
<defs>
<clipPath id="clip0_177_689">
<rect width="20" height="20" fill="white" transform="translate(0.520508 0.0898438)"/>
</clipPath>
</defs>
</svg>
