<svg width="34" height="35" viewBox="0 0 34 35" fill="none" xmlns="http://www.w3.org/2000/svg">
<path d="M29.3796 21.2759C29.1144 21.4586 28.8049 21.5664 28.4837 21.588C28.1624 21.6095 27.8413 21.5441 27.5541 21.3985C26.88 21.0176 26.5167 20.1246 26.5167 18.9077V15.1781C26.5167 13.3877 25.8075 12.1138 24.6212 11.768C22.6163 11.1814 21.1192 13.6372 20.5414 14.5608L16.9956 20.2997V13.2957C16.9562 11.6804 16.4309 10.713 15.4372 10.4241C14.7806 10.2315 13.7957 10.3103 12.837 11.7724L4.90936 24.4978C3.85456 22.4797 3.30763 20.2349 3.31596 17.9578C3.31596 10.2884 9.44445 4.05047 16.9956 4.05047C24.5468 4.05047 30.6972 10.2884 30.6972 17.9578V17.9972C30.6972 17.9972 30.6972 18.0234 30.6972 18.0366C30.7716 19.5205 30.2901 20.7025 29.3839 21.2759H29.3796ZM33.7571 17.9622V17.8877C33.6958 8.54178 26.2015 0.959961 16.9956 0.959961C7.78975 0.959961 0.251709 8.58556 0.251709 17.9578C0.251709 27.33 7.76349 34.96 16.9956 34.96C21.2299 34.9598 25.303 33.3368 28.3771 30.4249C28.6755 30.1438 28.8511 29.7564 28.8658 29.3467C28.8806 28.937 28.7333 28.538 28.4559 28.2361C28.3232 28.0893 28.1627 27.9702 27.9837 27.8856C27.8048 27.801 27.6108 27.7526 27.4131 27.7433C27.2154 27.7339 27.0178 27.7638 26.8316 27.8311C26.6455 27.8984 26.4745 28.0018 26.3284 28.1354C25.005 29.3909 23.4414 30.3659 21.7317 31.002C20.022 31.6381 18.2014 31.9222 16.3792 31.8372C14.557 31.7521 12.7707 31.2997 11.1277 30.5072C9.48468 29.7146 8.01876 28.5982 6.81795 27.2249L13.9533 15.7559V21.0483C13.9533 23.5916 14.9382 24.4146 15.7655 24.6553C16.5929 24.8961 17.858 24.7298 19.1844 22.576L23.1241 16.198C23.2467 15.9923 23.3649 15.8172 23.4699 15.664V18.9077C23.4699 21.2847 24.4242 23.1845 26.0964 24.1213C26.8568 24.5318 27.7136 24.7301 28.577 24.6954C29.4404 24.6608 30.2786 24.3944 31.0036 23.9243C32.8422 22.7292 33.8446 20.5668 33.7395 17.9622H33.7571Z" fill="white"/>
</svg>
