<svg width="25" height="26" viewBox="0 0 25 26" fill="none" xmlns="http://www.w3.org/2000/svg">
<path d="M21.5166 15.6987C21.3236 15.8317 21.0983 15.9102 20.8645 15.9259C20.6306 15.9416 20.3968 15.894 20.1878 15.788C19.6971 15.5107 19.4326 14.8606 19.4326 13.9748V11.2599C19.4326 9.95658 18.9163 9.02925 18.0528 8.77753C16.5933 8.35052 15.5035 10.1382 15.0829 10.8105L12.5018 14.9881V9.8896C12.4731 8.71376 12.0907 8.00955 11.3674 7.79925C10.8894 7.65905 10.1725 7.71641 9.47458 8.78073L3.70373 18.0441C2.9359 16.575 2.53776 14.9409 2.54383 13.2833C2.54383 7.70047 7.00501 3.15962 12.5018 3.15962C17.9986 3.15962 22.4758 7.70047 22.4758 13.2833V13.312C22.4758 13.312 22.4758 13.3311 22.4758 13.3407C22.5299 14.4209 22.1794 15.2813 21.5198 15.6987H21.5166ZM24.7032 13.2865V13.2323C24.6586 6.42903 19.2032 0.909912 12.5018 0.909912C5.80048 0.909912 0.313232 6.4609 0.313232 13.2833C0.313232 20.1058 5.78137 25.6599 12.5018 25.6599C15.5841 25.6598 18.5491 24.4783 20.7869 22.3587C21.0041 22.154 21.1319 21.872 21.1426 21.5738C21.1534 21.2756 21.0462 20.9851 20.8442 20.7653C20.7476 20.6585 20.6308 20.5718 20.5005 20.5102C20.3703 20.4486 20.229 20.4134 20.0851 20.4066C19.9412 20.3998 19.7974 20.4215 19.6618 20.4705C19.5264 20.5195 19.4019 20.5948 19.2955 20.692C18.3322 21.606 17.194 22.3157 15.9494 22.7788C14.7048 23.2418 13.3796 23.4486 12.0531 23.3867C10.7266 23.3248 9.42632 22.9955 8.23031 22.4186C7.03429 21.8416 5.96719 21.0289 5.09307 20.0292L10.2872 11.6805V15.533C10.2872 17.3844 11.0041 17.9835 11.6064 18.1587C12.2087 18.334 13.1296 18.213 14.0951 16.6451L16.963 12.0023C17.0522 11.8526 17.1383 11.7251 17.2147 11.6136V13.9748C17.2147 15.7051 17.9094 17.0881 19.1266 17.77C19.6802 18.0688 20.3039 18.2132 20.9324 18.1879C21.5609 18.1627 22.171 17.9688 22.6988 17.6266C24.0372 16.7566 24.7669 15.1825 24.6904 13.2865H24.7032Z" fill="#0D0D0D"/>
</svg>
