<svg width="23" height="26" viewBox="0 0 23 26" fill="none" xmlns="http://www.w3.org/2000/svg">
<path d="M8.73626 1.94604C7.26191 2.71403 6.05574 3.36391 6.056 3.39034C6.05666 3.45857 9.59441 5.25021 9.71996 5.24584C9.77711 5.24393 10.1914 5.05319 10.6407 4.82204L11.4577 4.40183L12.3499 4.86046L13.2421 5.31918L14.7033 4.66261C16.905 3.67328 17.1336 3.56487 17.0978 3.52845C17.0502 3.48012 16.2605 3.05589 14.118 1.92794C13.0826 1.38279 12.0776 0.848288 11.8847 0.740132C11.6918 0.631976 11.5076 0.544971 11.4754 0.546655C11.4432 0.548339 10.2106 1.17807 8.73626 1.94604ZM2.26993 5.29451L0.735189 6.08726V9.5665C0.735189 11.48 0.755342 13.0457 0.780062 13.0457C0.804699 13.0457 1.55979 12.7183 2.45801 12.3182L4.09115 11.5909V7.92355L4.8892 8.3584C5.50417 8.69312 6.11951 9.02717 6.73526 9.36055L7.78316 9.92792L8.24943 9.7171C8.54193 9.58465 8.83376 9.45084 9.12506 9.31585C9.35013 9.21099 9.90266 8.96215 10.3528 8.76272C10.803 8.56322 11.2197 8.3626 11.2788 8.31684C11.3573 8.2561 10.4001 7.72712 7.73853 6.36037C5.73227 5.3301 4.02641 4.49044 3.94774 4.49446C3.86906 4.49848 3.11405 4.85846 2.26993 5.29451ZM17.3744 5.51713C16.3291 5.98901 15.4731 6.39394 15.4722 6.41704C15.4713 6.4401 16.041 6.77884 16.7382 7.16967C17.4355 7.5606 18.006 7.90135 18.006 7.927C18.006 7.95257 17.389 8.25152 16.635 8.5915C15.8808 8.93132 13.9748 9.7921 12.3991 10.5044L7.11963 12.8908C5.79161 13.4911 4.59453 14.0322 4.45949 14.0934C1.74687 15.3214 1.00128 15.6621 0.898892 15.7206C0.795932 15.7795 0.772614 16.1216 0.754284 17.8387L0.732422 19.8866L2.10485 20.5859L3.47726 21.2852L5.38031 20.4263C6.42702 19.9539 7.28336 19.5428 7.28336 19.5125C7.28336 19.4822 7.08993 19.3562 6.85368 19.2323C6.61724 19.1084 6.12924 18.8339 5.76909 18.6224C5.40897 18.4109 5.04988 18.2168 4.97104 18.191C4.89223 18.1654 4.82888 18.1205 4.83017 18.0912C4.83148 18.062 5.6695 17.6639 6.69228 17.2066C8.67896 16.3184 10.1993 15.6338 13.4632 14.1578C14.9227 13.4978 16.3824 12.8384 17.8423 12.1793C19.1253 11.6002 20.6171 10.9238 21.1573 10.6763L22.1395 10.2262L22.1614 8.15499L22.1833 6.08383L20.7913 5.36935C20.0257 4.97644 19.3713 4.65591 19.337 4.65708C19.3027 4.65817 18.4195 5.04514 17.3744 5.51713ZM21.7666 12.9893C21.5615 13.0895 21.1563 13.2771 20.8662 13.4062C20.5761 13.5353 20.0257 13.7836 19.6431 13.9582L18.9473 14.2756L18.9314 16.0939C18.9227 17.094 18.8859 17.9078 18.8496 17.9025C18.7672 17.8903 17.4633 17.2215 16.1525 16.5191C15.2064 16.0123 15.147 15.9921 14.9247 16.1022C14.7962 16.1659 14.028 16.5104 13.2177 16.868C12.4073 17.2254 11.7179 17.5412 11.6855 17.5698C11.6532 17.5984 13.284 18.4823 15.3098 19.5342L18.9929 21.4469L20.5662 20.633C21.4315 20.1854 22.1673 19.7771 22.2012 19.7258C22.2774 19.6103 22.2709 12.7913 22.1946 12.8006C22.1643 12.8042 21.9717 12.8891 21.7666 12.9893ZM13.0539 20.993C12.781 21.1104 12.5082 21.2279 12.2355 21.3455C11.4117 21.7019 11.5731 21.7137 10.5933 21.2259C9.94053 20.901 9.65921 20.8007 9.53711 20.8494C9.44546 20.8859 8.65721 21.2405 7.78511 21.6375C6.91316 22.0345 6.16943 22.3593 6.13244 22.3593C5.76658 22.3593 6.37481 22.7227 8.72186 23.9066L11.4744 25.295L12.6325 24.7232C13.2695 24.4088 14.5542 23.779 15.4876 23.3238C16.4208 22.8686 17.1729 22.4843 17.1588 22.4697C17.1447 22.4553 16.3626 22.0538 15.4209 21.5774L13.7088 20.7114L13.0539 20.993Z" fill="#0D0D0D"/>
</svg>
