<svg width="33" height="34" viewBox="0 0 33 34" fill="none" xmlns="http://www.w3.org/2000/svg">
<path d="M12.8085 2.32779C10.8427 3.35178 9.23448 4.21829 9.23482 4.25353C9.2357 4.3445 13.9527 6.73335 14.1201 6.72753C14.1963 6.72498 14.7487 6.47066 15.3477 6.16246L16.4371 5.60218L17.6267 6.21369L18.8163 6.82531L20.7645 5.94989C23.7001 4.63078 24.005 4.48623 23.9572 4.43767C23.8938 4.37323 22.8408 3.80759 19.9842 2.30366C18.6036 1.57679 17.2636 0.864123 17.0064 0.719915C16.7492 0.575707 16.5036 0.459701 16.4607 0.461946C16.4178 0.464192 14.7743 1.30383 12.8085 2.32779ZM4.18673 6.79242L2.14041 7.84942V12.4884C2.14041 15.0398 2.16728 17.1273 2.20024 17.1273C2.23309 17.1273 3.23988 16.6908 4.43751 16.1574L6.61502 15.1876V10.2978L7.67909 10.8776C8.49905 11.3239 9.31951 11.7693 10.1405 12.2138L11.5377 12.9703L12.1594 12.6892C12.5494 12.5126 12.9385 12.3342 13.3269 12.1542C13.627 12.0144 14.3637 11.6826 14.9639 11.4167C15.5642 11.1507 16.1198 10.8832 16.1986 10.8222C16.3032 10.7412 15.027 10.0359 11.4782 8.21357C8.80319 6.83988 6.5287 5.72032 6.42381 5.72568C6.31891 5.73105 5.31223 6.21102 4.18673 6.79242ZM24.326 7.08925C22.9323 7.71842 21.791 8.25833 21.7897 8.28912C21.7885 8.31987 22.5481 8.77153 23.4778 9.29264C24.4075 9.81387 25.1681 10.2682 25.1681 10.3024C25.1681 10.3365 24.3455 10.7351 23.3401 11.1884C22.3346 11.6415 19.7932 12.7892 17.6923 13.7389L10.653 16.9208C8.88231 17.7212 7.2862 18.4427 7.10614 18.5243C3.48932 20.1616 2.4952 20.6159 2.35868 20.6939C2.2214 20.7724 2.19031 21.2286 2.16587 23.518L2.13672 26.2485L3.96663 27.1809L5.7965 28.1133L8.33391 26.9681C9.72952 26.3383 10.8713 25.7901 10.8713 25.7497C10.8713 25.7094 10.6134 25.5414 10.2984 25.3761C9.98315 25.2109 9.33248 24.845 8.85228 24.563C8.37212 24.2809 7.89333 24.0222 7.78821 23.9878C7.68313 23.9536 7.59867 23.8938 7.60038 23.8547C7.60213 23.8158 8.71949 23.285 10.0832 22.6752C12.7321 21.4909 14.7592 20.5781 19.1111 18.6101C21.0571 17.7302 23.0034 16.8509 24.9499 15.9722C26.6606 15.2 28.6496 14.2982 29.3699 13.9681L30.6795 13.368L30.7087 10.6064L30.7379 7.84485L28.8819 6.89221C27.8611 6.36832 26.9885 5.94095 26.9428 5.94251C26.8971 5.94396 25.7195 6.45993 24.326 7.08925ZM30.1823 17.0522C29.9088 17.1858 29.3686 17.4359 28.9818 17.608C28.595 17.7801 27.8611 18.1112 27.3509 18.344L26.4232 18.7672L26.402 21.1916C26.3904 22.5251 26.3413 23.6101 26.2929 23.6031C26.1831 23.5868 24.4445 22.6951 22.6968 21.7586C21.4354 21.0828 21.3561 21.0559 21.0597 21.2027C20.8884 21.2876 19.8641 21.747 18.7837 22.2237C17.7032 22.7003 16.784 23.1214 16.7408 23.1595C16.6977 23.1976 18.8722 24.3762 21.5732 25.7787L26.484 28.3289L28.5818 27.2437C29.7355 26.6469 30.7165 26.1025 30.7617 26.0341C30.8634 25.8801 30.8547 16.7882 30.7529 16.8005C30.7126 16.8053 30.4558 16.9186 30.1823 17.0522ZM18.5654 27.7238C18.2015 27.8803 17.8378 28.0369 17.4741 28.1938C16.3758 28.669 16.591 28.6847 15.2845 28.0343C14.4142 27.6011 14.0391 27.4674 13.8763 27.5323C13.7541 27.581 12.7031 28.0538 11.5403 28.5831C10.3777 29.1124 9.38607 29.5455 9.33675 29.5455C8.84893 29.5455 9.65991 30.03 12.7893 31.6086L16.4593 33.4597L18.0035 32.6974C18.8528 32.2781 20.5658 31.4384 21.8103 30.8315C23.0546 30.2245 24.0574 29.7121 24.0386 29.6927C24.0197 29.6735 22.977 29.1381 21.7214 28.5029L19.4385 27.3483L18.5654 27.7238Z" fill="white"/>
</svg>
