<svg width="34" height="35" viewBox="0 0 34 35" fill="none" xmlns="http://www.w3.org/2000/svg">
<path d="M21.8614 17.1104C21.8329 17.447 21.7069 17.7681 21.4989 18.0343C21.291 18.3006 21.01 18.5005 20.6903 18.6098C20.3706 18.719 20.026 18.7328 19.6986 18.6495C19.3712 18.5662 19.0751 18.3893 18.8465 18.1405C18.6179 17.8918 18.4667 17.5818 18.4113 17.2485C18.3559 16.9153 18.3987 16.5731 18.5345 16.2637C18.6704 15.9544 18.8933 15.6913 19.1762 15.5065C19.459 15.3218 19.7896 15.2233 20.1274 15.2233C20.3652 15.2332 20.5987 15.29 20.8146 15.3902C21.0305 15.4904 21.2245 15.6322 21.3855 15.8075C21.5465 15.9828 21.6715 16.188 21.7531 16.4116C21.8348 16.6351 21.8716 16.8726 21.8614 17.1104ZM13.9227 15.2233C13.4499 15.2635 13.0094 15.4797 12.6884 15.8292C12.3673 16.1786 12.1892 16.6359 12.1892 17.1104C12.1892 17.5849 12.3673 18.0422 12.6884 18.3916C13.0094 18.7411 13.4499 18.9573 13.9227 18.9975C14.1605 18.9875 14.394 18.9308 14.6099 18.8306C14.8258 18.7303 15.0198 18.5885 15.1808 18.4133C15.3418 18.238 15.4668 18.0327 15.5484 17.8092C15.6301 17.5856 15.6669 17.3482 15.6567 17.1104C15.6684 16.8722 15.6326 16.6342 15.5515 16.41C15.4704 16.1858 15.3455 15.9799 15.1842 15.8044C15.0229 15.6288 14.8283 15.487 14.6117 15.3873C14.3952 15.2875 14.161 15.2318 13.9227 15.2233ZM31.8752 4.46201V34.96C27.5925 31.1756 28.9625 32.4282 23.9875 27.8028L24.8881 30.9494H5.61151C5.15245 30.9485 4.69806 30.8571 4.27432 30.6805C3.85058 30.5039 3.46581 30.2455 3.14199 29.9201C2.81817 29.5947 2.56166 29.2087 2.38712 28.7841C2.21258 28.3595 2.12343 27.9047 2.12477 27.4456V4.46201C2.12365 4.00309 2.21297 3.54844 2.38761 3.12405C2.56225 2.69965 2.8188 2.31383 3.14259 1.98861C3.46639 1.66339 3.85109 1.40515 4.27471 1.22866C4.69834 1.05216 5.15259 0.960853 5.61151 0.959961L28.3902 0.959961C28.8489 0.961076 29.303 1.05254 29.7264 1.22914C30.1499 1.40574 30.5344 1.66401 30.858 1.98921C31.1816 2.3144 31.438 2.70016 31.6125 3.12444C31.7871 3.54873 31.8763 4.00323 31.8752 4.46201ZM27.0278 20.5784C26.9724 17.1321 26.1353 13.7432 24.5794 10.6676C23.2105 9.592 21.5413 8.96798 19.8026 8.88167L19.5644 9.15381C21.1126 9.56563 22.5555 10.3016 23.7979 11.313C21.8588 10.2679 19.7064 9.68018 17.5053 9.59469C15.3042 9.50919 13.1127 9.92825 11.0985 10.8198C10.4691 11.1089 10.0958 11.313 10.0958 11.313C11.4043 10.2512 12.9307 9.49074 14.5665 9.08577L14.3964 8.88167C12.6576 8.96798 10.9885 9.592 9.61957 10.6676C8.06471 13.7432 7.22842 17.1317 7.17375 20.5776C7.76038 21.4005 8.54035 22.0665 9.44497 22.5171C10.3496 22.9676 11.3511 23.1888 12.3613 23.1612C12.3613 23.1612 12.9907 22.3958 13.5001 21.7503C12.3043 21.4491 11.2514 20.7395 10.5236 19.7442C10.7736 19.9193 11.1861 20.1464 11.2209 20.1694C12.8344 21.049 14.6232 21.5587 16.458 21.6617C18.2927 21.7646 20.1274 21.4582 21.8291 20.7647C22.5169 20.5054 23.1731 20.1691 23.7851 19.762C23.0303 20.7783 21.9405 21.495 20.7083 21.7852C21.2185 22.4315 21.83 23.162 21.83 23.162C22.8416 23.1871 23.844 22.9648 24.7501 22.5144C25.6563 22.064 26.4387 21.3991 27.0295 20.5776L27.0278 20.5784Z" fill="white"/>
</svg>
