<svg width="23" height="26" viewBox="0 0 23 26" fill="none" xmlns="http://www.w3.org/2000/svg">
<path d="M15.0436 12.6665C15.0229 12.9115 14.9312 13.1452 14.7797 13.339C14.6284 13.5329 14.4239 13.6784 14.1911 13.758C13.9584 13.8374 13.7076 13.8475 13.4692 13.7869C13.2309 13.7262 13.0154 13.5974 12.849 13.4163C12.6826 13.2353 12.5725 13.0096 12.5322 12.767C12.4918 12.5245 12.523 12.2754 12.6218 12.0501C12.7208 11.825 12.883 11.6335 13.089 11.4989C13.2948 11.3645 13.5355 11.2928 13.7814 11.2928C13.9545 11.3 14.1245 11.3413 14.2816 11.4143C14.4388 11.4872 14.58 11.5904 14.6972 11.718C14.8144 11.8457 14.9054 11.995 14.9648 12.1578C15.0243 12.3205 15.0511 12.4934 15.0436 12.6665ZM9.26472 11.2928C8.92055 11.322 8.5999 11.4794 8.36623 11.7338C8.13248 11.9882 8.00284 12.3211 8.00284 12.6665C8.00284 13.0119 8.13248 13.3448 8.36623 13.5991C8.5999 13.8535 8.92055 14.0109 9.26472 14.0402C9.43783 14.0329 9.6078 13.9916 9.76497 13.9187C9.92213 13.8457 10.0633 13.7425 10.1805 13.6149C10.2977 13.4873 10.3887 13.3379 10.4481 13.1752C10.5076 13.0124 10.5344 12.8396 10.527 12.6665C10.5355 12.4931 10.5094 12.3198 10.4504 12.1566C10.3914 11.9934 10.3004 11.8435 10.183 11.7158C10.0656 11.588 9.92395 11.4847 9.76628 11.4122C9.60868 11.3395 9.43819 11.299 9.26472 11.2928ZM22.3331 3.4592V25.6599C19.2155 22.9051 20.2128 23.8169 16.5913 20.4499L17.2469 22.7405H3.21467C2.8805 22.7398 2.54973 22.6733 2.24127 22.5447C1.93281 22.4162 1.65272 22.2281 1.417 21.9912C1.18128 21.7543 0.994555 21.4733 0.8675 21.1642C0.740445 20.8552 0.675549 20.5241 0.676525 20.1899V3.4592C0.675709 3.12513 0.740729 2.79417 0.867857 2.48524C0.994984 2.1763 1.18174 1.89545 1.41744 1.65871C1.65315 1.42197 1.93318 1.23398 2.24155 1.10551C2.54993 0.977028 2.8806 0.910561 3.21467 0.909912H19.7962C20.1301 0.910724 20.4607 0.977304 20.7689 1.10586C21.0772 1.23441 21.3571 1.42242 21.5926 1.65914C21.8282 1.89586 22.0148 2.17667 22.1419 2.48553C22.269 2.79438 22.3339 3.12523 22.3331 3.4592ZM18.8045 15.191C18.7641 12.6823 18.1548 10.2154 17.0222 7.9765C16.0257 7.19353 14.8106 6.73928 13.5449 6.67645L13.3715 6.87455C14.4985 7.17433 15.5489 7.71008 16.4533 8.44632C15.0417 7.68554 13.4749 7.25772 11.8726 7.19549C10.2704 7.13325 8.67509 7.4383 7.20887 8.0873C6.75071 8.29774 6.47897 8.44632 6.47897 8.44632C7.43148 7.67339 8.54261 7.11982 9.73337 6.82502L9.60955 6.67645C8.34381 6.73928 7.1288 7.19353 6.1323 7.9765C5.00045 10.2154 4.39168 12.682 4.35188 15.1904C4.77892 15.7894 5.34669 16.2742 6.0052 16.6022C6.66372 16.9302 7.39275 17.0912 8.12812 17.0711C8.12812 17.0711 8.58628 16.5139 8.9571 16.0441C8.08662 15.8248 7.32017 15.3083 6.79038 14.5837C6.97236 14.7112 7.27264 14.8765 7.29797 14.8933C8.4725 15.5336 9.77465 15.9046 11.1103 15.9796C12.4458 16.0545 13.7814 15.8314 15.0201 15.3266C15.5208 15.1378 15.9985 14.893 16.444 14.5967C15.8945 15.3365 15.1012 15.8582 14.2042 16.0695C14.5756 16.5399 15.0208 17.0717 15.0208 17.0717C15.7572 17.09 16.4868 16.9281 17.1464 16.6003C17.8061 16.2724 18.3756 15.7884 18.8057 15.1904L18.8045 15.191Z" fill="#0D0D0D"/>
</svg>
