<svg width="387" height="195" viewBox="0 0 387 195" fill="none" xmlns="http://www.w3.org/2000/svg">
<mask id="mask0_1_124" style="mask-type:luminance" maskUnits="userSpaceOnUse" x="0" y="0" width="387" height="195">
<path d="M386.06 0.699997H0V194.7H386.06V0.699997Z" fill="white"/>
</mask>
<g mask="url(#mask0_1_124)">
<path opacity="0.5" d="M160.858 1.82811H160.633V2.32863H159.993V36.3427H159.355V36.5143H158.721V64.0769H158.09V64.073H157.462V62.6297H156.836V62.6733H156.215V62.9449H155.597V62.6675H154.981V63.0904H154.369V63.1913H153.758V62.6481H153.152V61.4715H152.549V61.2387H151.948V61.033H151.352V61.0059H150.757V60.615H150.166V59.8545H149.577V57.6962H148.992V56.0822H148.409V56.4837H147.829V55.6059H147.253V58.8573H146.678V57.6642H146.107V57.2646H145.54V58.0163H144.974V59.8448H144.412V59.4481H143.852V58.8554H143.294V58.7497H142.74V58.7138H142.189V57.9009H141.64V57.7826H141.094V57.315H140.551V57.0492H140.011V56.1355H139.472V56.1064H138.938V56.3305H138.405V56.1598H137.876V52.6338H137.348V52.7056H136.823V52.2274H136.301V51.8539H135.782V51.6405H135.265V51.6172H134.751V51.3728H134.24V51.3175H133.731V51.2797H133.225V50.2544H132.72V48.7587H132.219V47.5646H131.72V45.2686H131.223V45.1415H130.73V45.1115H130.238V45.3569H129.749V45.2405H129.262V44.8234H128.778V43.574H128.296V43.4789H127.817V42.8931H127.34V46.8701H126.865V46.3889H126.393V45.8904H125.923V45.4219H125.455V44.3675H124.99V39.2759H124.528V39.0393H124.067V39.2265H123.608V39.0383H123.152V9.29129H122.698V34.4211H122.247V36.6754H121.798V35.9789H121.351V42.1549H120.907V43.6642H120.463V44.2123H120.023V43.9348H119.585V43.7641H119.149V43.3703H118.715V43.2403H118.284V42.8494H117.854V43.9135H117.427V43.8029H117.001V47.7343H116.578V47.8352H116.157V48.4124H115.738V49.7267H115.322V51.755H114.907V52.8715H114.495V52.7997H114.084V56.9639H113.675V56.9522H113.269V56.832H112.864V56.8135H112.463V56.119H112.062V58.1259H111.663V58.093H111.267V57.2345H110.873V58.0503H110.48V58.287H110.089V58.2967H109.701V61.6994H109.314V62.1107H108.929V62.0525H108.547V62.4308H108.166V62.0079H107.786V62.4725H107.41V62.651H107.035V62.7412H106.661V64.3737H106.29V64.4911H105.92V64.0109H105.552V63.9702H105.186V64.0352H104.822V64.3126H104.459V65.2419H104.099V65.3418H103.74V65.3631H103.383V65.6725H103.028V65.6425H102.675V65.724H102.323V66.0848H101.973V66.0625H101.625V66.1731H101.279V66.4214H100.934V66.4544H100.591V67.0354H100.25V66.8404H99.9109V64.7326H99.5723V64.8723H99.2367V64.105H98.9021V64.2738H98.5693V64.234H98.2386V64.1719H97.9088V63.7859H97.5809V63.7102H97.255V63.169H96.93V63.4415H96.607V64.7675H96.286V64.6055H95.9659V64.9635H95.6477V66.7812H95.3315V66.1896H95.0162V66.2206H94.7029V66.2875H94.3906V66.2584H94.0802V65.5833H93.7717V65.6522H93.4642V64.7704H93.1587L92.8551 64.7695V64.7966H92.5524V64.9053H92.2508V65.0323H91.951V64.7782H91.6532V64.8063H91.3564V67.436H91.0615V65.075H90.7676V64.9935H90.4757V64.9877H90.1847V61.8372H89.8956V58.9243H89.6075V62.3435H89.3214V62.7257H89.0362V62.6995H88.752V44.9873H88.4707V45.1212H88.1894V45.0979H87.91V45.0339H87.6316V46.5209H87.3552V46.6334H87.0807V46.5451H86.8062V46.5829H86.5336V47.8556H86.263V47.7974H85.9933V48.0923H85.7246V47.6034H85.4579V47.9506H85.1921V48.2649H84.9273V49.169H84.6644V49.0458H84.4025V50.1419H84.1416V49.6491H83.8826V49.7772H83.6246V49.9702H83.3685V50.6618H83.1134V50.6288H82.8592V50.7675H82.6061V50.8568H82.3548V51.1478H82.1046V51.0702H81.8553V49.0632H81.6079V52.3457H81.3606V52.6096H81.1152V53.0131H80.8717V54.0025H80.6282V53.9443H80.3867V54.0937H80.1461V54.3022H79.9075V54.2663H79.6689V55.3401H79.4322V55.474H79.1965V55.6447H78.9618V55.7524H78.729V55.31H78.4962V56.1083H78.2653V56.669H78.0354V57.1627H77.8065V59.3724H77.5795V62.3096H77.3525V62.6209H77.1275V33.0883H76.9034V33.4191H76.6803V33.5413H76.4582V33.614H76.237V34.0952H76.0178V34.1252H75.7986V34.3474H75.5813V34.8217H75.365V66.6319H75.1497V66.7027H74.9353V66.9083H74.7219V68.2469H74.5095V69.3537H74.298V70.0055H74.0885V70.766H73.879V71.6953H73.6714V73.7847H73.4648V75.2804H73.2582V75.7246H73.0535V76.0409H72.8498V76.6365H72.6471V77.0749H72.4453V77.2669H72.2435V77.5541H72.0437V77.8645H71.8449V78.786H71.647V80.2662H71.4501V81.1373H71.2541V82.3536H71.0601V82.7513H70.8661V83.0258H70.6731V83.7339H70.4811V85.2656H70.29V86.3112H70.0998V87.7779H69.9107V88.4637H69.7225V88.6683H69.5353V90.9876H69.3491V90.8857H69.1628V92.7355H68.9785V92.916H68.7952V94.5853H68.6128V95.4302H68.4305V95.6601H68.2501V95.8153H68.0696V96.2857H67.8912V96.9521H67.7127V97.2548H67.5352V98.1472H67.3596V98.7408H67.184V99.8573H67.0094V101.078H66.8358V101.215H66.6622V102.34H66.4905V102.534H66.3198V102.701H66.149V102.868H65.9793V102.917H65.8105V102.973H65.6427V103.044H65.4759V103.278H65.31V104.027H65.1451V104.297H64.9802V105.26H64.8172V105.46H64.6543V105.693H64.4923V105.864H64.3313V105.887H64.1702V105.984H64.0112V106.103H63.8521V106.748H63.694V106.917H63.5368V106.992H63.3807V107.071H63.2245V107.346H63.0703V107.819H62.916V108.157H62.7628V108.231H62.6095V109.19H62.4582V109.285H62.3069V109.841H62.1565V109.901H62.0071V109.971H61.8587V110.319H61.7103V110.508H61.5629V111.536H61.4164V111.907H61.2709V115.693H61.1254V116.298H60.9809V116.578H60.8373V117.244H60.6947V117.888H60.5521V118.967H60.4105V119.365H60.2699V119.871H60.1292V120.231H59.9905V120.351H59.8518V120.414H59.7131V120.544H59.5763V120.675H59.4395V121.07H59.3037V121.175H59.1679V121.391H59.0331V121.456H58.8993V121.554H58.7664V121.783H58.6335V122.099H58.5016V124.901H58.3706V125.043H58.2397V125.36H58.1097V125.461H57.9807V125.63H57.8517V126.046H57.7236V126.181H57.5956V126.228H57.4695V126.55H57.3434V126.709H57.2173V126.761H57.0921V126.887H56.968V126.949H56.8448V127.112H56.7216V127.406H56.5994V127.623H56.4772V127.972H56.3559V129.009H56.2356V129.197H56.1154V129.249H55.996V129.369H55.8777V129.528H55.7594V129.619H55.641V129.698H55.5246V130.52H55.4082V130.658H55.2918V130.767H55.1764V130.825H55.0619V130.948H54.9475V131.375H54.834V149.303H54.7215V149.412H54.6089V149.449H54.4964V149.609H54.3858V149.787H54.2743V149.916H54.1647V150.186H54.0551V150.395H53.9455V150.592H53.8368V150.787H53.7292V150.848H53.6215V151.086H53.5148V151.19H53.4081V149.356H53.3024V151.477H53.1966V151.665H53.0919V151.683H52.9871V151.732H52.8833V152.042H52.7805V152.23H52.6777V152.3H52.5758V152.39H52.474V152.596H52.3721V152.698H52.2712V152.942H52.1713V153.138H52.0714V153.447H51.9725V154.548H51.8735V154.678H51.7756V154.788H51.6776V155.127H51.5806V155.443H51.4836V155.632H51.3876V155.689H51.2915V155.74H51.1965V157.459H51.1014V157.512H51.0064V157.524H50.9132V157.533H50.8192V157.538H50.726V157.541H50.6339V157.555H50.5417H50.4506V157.556H50.3594V157.618H50.2682V157.639H50.178H50.0878V157.479H49.9985V157.695H49.9103V157.829H49.821V157.834H49.7337H49.6455V157.846H49.5591V157.856H49.4718V157.961H49.3855H49.3001V157.974H49.2148H49.1294H49.045V157.978H48.9606H48.7938V157.98H48.7104V157.994H48.6279V157.996H48.5464V157.997H48.465V158H48.3835V158.003H48.302V158.004H48.2215L48.142 158.005H48.0624V158.066H47.9829H47.9043V158.074H47.8257H47.7472H47.6696H47.5929H47.5153V158.041H47.4397H47.363H47.2874V158.065H47.2117V158.096H47.137H47.0623H46.9877L46.9139 158.097V158.102H46.8402H46.7675V158.145H46.6947V158.149H46.622V158.145H46.5502H46.4784V158.148H46.4066H46.3358V158.157H46.265V158.183H46.1952V158.19H46.1253H46.0555V158.191H45.9866V158.199H45.9177H45.8489H45.781H45.7131H45.6452V158.215H45.3784H45.3125H45.2475H45.1815V158.216H45.1165H44.9245H44.8604H44.7974H44.7343H44.6713H44.5471H44.4239H44.3628V158.226H44.3027H44.2416V158.228H44.1213H43.9438H43.8264H43.711H43.6528H43.5956H43.5393H43.4821H43.3696H43.258H43.2027V158.239H42.9845H42.9311V158.242H42.613V158.25H42.5606H42.4568H42.2541H42.0542H41.9553H41.9068H41.8098H41.7623H41.5721H41.3403H41.2938H41.2491V158.269H41.158V158.272H41.0687H41.0251H40.8495H40.8058H40.6778H40.5507H40.4266V158.277H40.2626H40.1821H39.9455H39.7912H39.7534V158.291H39.7156H39.6409H39.5662H39.5293H39.4566H39.3838V158.292H39.312H39.2762H39.0317H38.9978H38.9638H38.9299H38.6971H38.6651H38.505H38.442H38.4099H38.3479H38.0763H37.8735L37.8454 158.293H37.7048H37.6223L37.568 158.292H37.5146H37.2799H37.2285H37.1286L37.0064 158.293H36.8628H36.7251H36.7018V158.304H36.6125H36.5679H36.5456V158.305H36.5029H36.4806H36.2711H35.8618H35.8074H35.3641H35.046H34.8918H34.7851H34.658H34.6328H34.6211H34.4436H34.4329H34.3544H34.269H34.0886H33.6948H33.6647H33.5638H33.4697H33.4629H33.4067L33.3058 158.306V158.449H33.2612H33.1826V158.464H33.1283H33.0817V158.418H33.0769H33.0594H32.975V158.452H32.9314H32.9285H32.9207H32.8732H32.8664H32.8421H32.8324H32.8295H32.8101H32.8033H32.7975H32.7878H32.7849L32.7548 158.451V158.449H32.7461H32.7296H32.7151H32.6937H32.6918L32.6491 158.45H32.6443H32.6375H32.6346H32.6258V158.496H32.621H32.5996H32.5667V158.494H32.5094V158.458H32.4978L32.4929 158.457V158.411H32.4871H32.4444V158.41H32.4377V158.408H32.4367V158.41H32.4328V158.456H32.4173H32.4008H32.3882H32.3775H32.3727V158.457H32.3688H32.3387H32.331H32.329H32.3251L32.3222 158.458H32.3203L32.3193 158.46H32.3106H32.3086V158.448H32.2873H32.2844H32.2815H32.2795H32.2689V158.45H32.2621H32.2563V158.486H32.2446H32.2378H32.233V158.487H32.2223H32.2204H32.2165V158.499H32.2146H32.1942H32.1922H32.1855V158.495H32.1835L32.1825 158.492H32.1806H32.1787V158.315V158.309H32.1767V158.303L32.1758 158.302H32.1748V157.525V157.529V154.978V154.976L32.1738 154.957V154.482V155.259V155.28V155.457L32.1728 155.462V155.469V155.475V155.476V155.478V155.953V158.504L32.1719 158.505V158.552V158.559V158.56V165.6H32.1738H32.1758H32.1777H32.1796H32.1825H32.1845H32.1922H32.1942H32.2146H32.2165H32.2204H32.2223H32.233H32.2369H32.2446H32.2563H32.2621H32.2689H32.2795H32.2815H32.2844H32.2873H32.3086H32.3106H32.3193H32.3222H32.3251H32.329H32.331H32.3387H32.3688H32.3727H32.3775H32.3882H32.4008H32.4173H32.4328H32.4367H32.4377H32.4444H32.4871H32.492H32.4978H32.5094H32.5667H32.5996H32.621H32.6258H32.6346H32.6375H32.6443H32.6491H32.6918H32.6937H32.7151H32.7296H32.7461H32.7548H32.7849H32.7878H32.7975H32.8033H32.8101H32.8295H32.8324H32.8421H32.8664H32.8732H32.9207H32.9285H32.9314H32.975H33.0594H33.0769H33.0817H33.1283H33.1826H33.2612H33.3058H33.4067H33.4629H33.4697H33.5638H33.6647H33.6948H34.0886H34.269H34.3544H34.4329H34.4436H34.6211H34.6328H34.658H34.7851H34.8918H35.046H35.3641H35.8074H35.8618H36.2711H36.4806H36.5029H36.5456H36.5679H36.6125H36.7018H36.7251H36.8628H37.0064H37.1286H37.2285H37.2799H37.5146H37.568H37.6223H37.7048H37.8454H37.8735H38.0763H38.3479H38.4099H38.442H38.505H38.6651H38.6971H38.9299H38.9638H38.9978H39.0317H39.2762H39.312H39.3838H39.4566H39.5293H39.5662H39.6409H39.7156H39.7534H39.7912H39.9455H40.1821H40.2626H40.4266H40.5507H40.6778H40.8058H40.8495H41.0251H41.0687H41.158H41.2491H41.2938H41.3403H41.5721H41.7623H41.8098H41.9068H41.9553H42.0542H42.2541H42.4568H42.5606H42.613H42.9311H42.9845H43.2027H43.258H43.3696H43.4821H43.5393H43.5956H43.6528H43.711H43.8264H43.9438H44.1213H44.2416H44.3027H44.3628H44.4239H44.5471H44.6713H44.7343H44.7974H44.8604H44.9245H45.1165H45.1815H45.2475H45.3125H45.3784H45.6452H45.7131H45.781H45.8489H45.9177H45.9866H46.0555H46.1253H46.1952H46.265H46.3358H46.4066H46.4784H46.5502H46.622H46.6947H46.7675H46.8402H46.9139H46.9877H47.0623H47.137H47.2117H47.2874H47.363H47.4397H47.5153H47.5929H47.6696H47.7472H47.8257H47.9043H47.9829H48.0624H48.142H48.2215H48.302H48.3835H48.465H48.5464H48.6279H48.7104H48.7938H48.9606H49.045H49.1294H49.2148H49.3001H49.3855H49.4718H49.5591H49.6455H49.7337H49.821H49.9103H49.9985H50.0878H50.178H50.2682H50.3594H50.4506H50.5417H50.6339H50.726H50.8192H50.9132H51.0064H51.1014H51.1965H51.2915H51.3876H51.4836H51.5806H51.6776H51.7756H51.8735H51.9725H52.0714H52.1713H52.2712H52.3721H52.474H52.5758H52.6777H52.7805H52.8833H52.9871H53.0919H53.1966H53.3024H53.4081H53.5148H53.6215H53.7292H53.8368H53.9455H54.0551H54.1647H54.2743H54.3858H54.4964H54.6089H54.7215H54.834H54.9475H55.0619H55.1764H55.2918H55.4082H55.5246H55.641H55.7594H55.8777H55.996H56.1154H56.2356H56.3559H56.4772H56.5994H56.7216H56.8448H56.968H57.0921H57.2173H57.3434H57.4695H57.5956H57.7236H57.8517H57.9807H58.1097H58.2397H58.3706H58.5016H58.6335H58.7664H58.8993H59.0331H59.1679H59.3037H59.4395H59.5763H59.7131H59.8518H59.9905H60.1292H60.2699H60.4105H60.5521H60.6947H60.8373H60.9809H61.1254H61.2709H61.4164H61.5629H61.7103H61.8587H62.0071H62.1565H62.3069H62.4582H62.6095H62.7628H62.916H63.0703H63.2245H63.3807H63.5368H63.694H63.8521H64.0112H64.1702H64.3313H64.4923H64.6543H64.8172H64.9802H65.1451H65.31H65.4759H65.6427H65.8105H65.9793H66.149H66.3198H66.4905H66.6622H66.8358H67.0094H67.184H67.3596H67.5352H67.7127H67.8912H68.0696H68.2501H68.4305H68.6128H68.7952H68.9785H69.1628H69.3491H69.5353H69.7225H69.9107H70.0998H70.29H70.4811H70.6731H70.8661H71.0601H71.2541H71.4501H71.647H71.8449H72.0437H72.2435H72.4453H72.6471H72.8498H73.0535H73.2582H73.4648H73.6714H73.879H74.0885H74.298H74.5095H74.7219H74.9353H75.1497H75.365H75.5813H75.7986H76.0178H76.237H76.4582H76.6803H76.9034H77.1275H77.3525H77.5795H77.8065H78.0354H78.2653H78.4962H78.729H78.9618H79.1965H79.4322H79.6689H79.9075H80.1461H80.3867H80.6282H80.8717H81.1152H81.3606H81.6079H81.8553H82.1046H82.3548H82.6061H82.8592H83.1134H83.3685H83.6246H83.8826H84.1416H84.4025H84.6644H84.9273H85.1921H85.4579H85.7246H85.9933H86.263H86.5336H86.8062H87.0807H87.3552H87.6316H87.91H88.1894H88.4707H88.752H89.0362H89.3214H89.6075H89.8956H90.1847H90.4757H90.7676H91.0615H91.3564H91.6532H91.951H92.2508H92.5524H92.8551H93.1587H93.4642H93.7717H94.0802H94.3906H94.7029H95.0162H95.3315H95.6477H95.9659H96.286H96.607H96.93H97.255H97.5809H97.9088H98.2386H98.5693H98.9021H99.2367H99.5723H99.9109H100.25H100.591H100.934H101.279H101.625H101.973H102.323H102.675H103.028H103.383H103.74H104.099H104.459H104.822H105.186H105.552H105.92H106.29H106.661H107.035H107.41H107.786H108.166H108.547H108.929H109.314H109.701H110.089H110.48H110.873H111.267H111.663H112.062H112.463H112.864H113.269H113.675H114.084H114.495H114.907H115.322H115.738H116.157H116.578H117.001H117.427H117.854H118.284H118.715H119.149H119.585H120.023H120.463H120.907H121.351H121.798H122.247H122.698H123.152H123.608H124.067H124.528H124.99H125.455H125.923H126.393H126.865H127.34H127.817H128.296H128.778H129.262H129.749H130.238H130.73H131.223H131.72H132.219H132.72H133.225H133.731H134.24H134.751H135.265H135.782H136.301H136.823H137.348H137.876H138.405H138.938H139.472H140.011H140.551H141.094H141.64H142.189H142.74H143.294H143.852H144.412H144.974H145.54H146.107H146.678H147.253H147.829H148.409H148.992H149.577H150.166H150.757H151.352H151.948H152.549H153.152H153.758H154.369H154.981H155.597H156.215H156.836H157.462H158.09H158.721H159.355H159.993H160.633H160.858V1.82811Z" fill="url(#paint0_linear_1_124)"/>
<path opacity="0.5" d="M1399.36 158.028H1385.76H1332.68H1326.2H1306.93V158.025H1281.69H1250.84H1238.72H1232.7H1220.76H1179.88H1174.15L1168.46 158.024H1145.96H1140.4H1118.46V158.023H1102.29V158.024H1096.95V158.023H1091.64H1086.36H1081.1H1075.87H1070.66H1055.2V158.01H1050.1V158.008H1045.02H1029.95H1020.02H1010.19V158.006H1000.46H986.044H976.553H967.157H962.494H948.643H944.073H939.525H935V157.97H912.71H899.601H878.185H869.768H865.591H840.961H836.927H832.914H828.92H817.058H805.373H797.68V157.969H786.284H782.523H775.057H771.353L756.716 157.968V157.964H753.103H749.507V157.957H738.828V157.955H735.304H731.797H728.308H717.944V157.954H714.524H711.121H707.735H691.056H684.501H678.01H671.584H665.222H655.797H652.688V157.94H646.514H643.449H640.401H637.367H628.358V157.929H625.384H622.426V157.906H616.553H613.638H610.739H607.853V157.897H604.982H602.125H599.283H596.455H593.641H588.054H585.281V157.892H582.523H577.047V157.891H574.33H568.936H566.259H563.595H560.945H553.073H550.475V157.886H545.317H535.158H530.152V157.883H527.669H522.739V157.882H520.292L515.436 157.881H508.241H505.867V157.878H501.154H498.815H496.488H494.172H491.868H489.575H487.294V157.86H485.024V157.76H482.766H480.518L467.268 157.76H462.939V157.755H460.792H458.654H456.526H454.41H452.304H448.124H446.05V157.751H441.932V157.749H439.888V157.756H437.855V157.751H435.832V157.741H433.819H431.815L429.822 157.74H427.839V157.696H425.866V157.582H423.902H421.949V157.577H420.004V157.57H418.07H416.145V157.291H414.231V157.275H412.326V157.276H410.429H408.543H406.666V157.253H404.798H402.94H401.091H399.251H397.42H395.599V157.248H393.786V157.242H391.983H390.188V157.22H388.402V157.248H386.625H384.858V157.176H383.099V157.251H381.349V157.25H379.607H377.875H376.15V157.241H374.435V156.791H372.728V157.244H371.03H369.34H367.658V157.25H365.985H364.32H362.664H361.015H357.744H356.12L354.504 157.249V157.247H352.897V157.23H351.297V157.21H349.705V157.205H348.122H346.546V157.196H344.978L343.419 157.195V157.179H341.866V155.602H340.321H338.785V155.596H337.255V155.599H335.734V155.555H334.22V155.546H332.714V155.524H331.215V155.513H329.723V155.109H328.239V155.075H326.763V155.061H325.293V155.043H323.831V154.982H322.377V154.956H320.93V154.67H319.49V154.65H318.057V154.519H316.631V154.461H315.212V154.46H313.801V154.453H312.396V154.122H310.998V154.049H309.608V153.983H308.224V153.927H306.848V153.823H305.478V153.794H304.114V153.784H302.758V153.799H301.409V153.745H300.066V153.712H298.73V153.688H297.401V153.578H296.078V152.513H294.762V152.424H293.452V152.27H292.149V152.056H290.852V151.5H289.562V151.387H288.279V151.353H287.002V150.299H285.731V150.278H284.466V148.393H283.208V148.182H281.956V148.084H280.71V148.054H279.47V147.913H278.237V147.857H277.01V147.828H275.788V147.794H274.574V147.716H273.365V147.63H272.162V147.593H270.966V147.611H269.774V147.589H268.589V147.555H267.41V147.353H266.237V145.751H265.07V145.544H263.908V145.527H262.753V145.279H261.602V144.943H260.458V144.846H259.32V144.685H258.187V144.604H257.06V144.563H255.938V144.387H254.822V144.597H253.711V144.464H252.606V144.338H251.507V144.243H250.413V144.053H249.325V144.059H248.242V143.942H247.165V143.936H246.092V143.984H245.025V143.831H243.964V143.807H242.907V143.645H241.857V143.592H240.81V141.891H239.77V141.852H238.734V141.69H237.704V141.55H236.68V141.331H235.659V141.237H234.645V141.054H233.635V140.968H232.63V140.624H231.63V140.267H230.636V139.807H229.645V139.41H228.661V139.217H227.681V138.709H226.706V137.768H225.735V137.698H224.77V137.702H223.81V137.57H222.854V137.138H221.903V136.986H220.957V136.813H220.015V136.643H219.078V136.557H218.146V136.222H217.219V135.828H216.296V135.157H215.378V134.793H214.464V134.641H213.555V134.473H212.65V134.201H211.75V132.614H210.855V132.375H209.963V132.005H209.077V131.913H208.195V131.516H207.317V131.379H206.443V128.194H205.574V127.992H204.71V127.945H203.848V127.697H202.993V127.279H202.14V126.533H201.293V126.217H200.449V125.665H199.61V125.12H198.775V124.173H197.944V122.677H197.117V121.949H196.295V121.515H195.476V121.346H194.661V120.817H193.851V120.71H193.045V119.654H192.243V119.648H191.445V117.584H190.65V115.882H189.86V114.602H189.073V112.444H188.29V111.52H187.513V110.803H186.738V110.304H185.966V109.674H185.2V107.478H184.437V106.796H183.677V103.527H182.922V102.22H182.17V101.316H181.422V99.2423H180.677V98.9309H179.937V97.1423H179.2V92.8432H178.466V91.073H177.737V89.6985H177.01V89.4395H176.289V89.1873H175.57V78.4339H174.854V78.236H174.143V77.1923H173.435V35.7636H172.731V33.9468H172.029V32.1668H171.332V8.07491H170.637V7.37748H169.947V7.22422H169.26V6.62864H168.576V6.22318H167.896V4.64887H167.219V4.29967H166.546V3.06583H165.876V2.74961H165.208V0.699997H164.545V22.2059H163.885V19.2542H163.229V18.9418H162.575V21.7092H161.924V29.67H161.277V1.82811H160.858V165.6H161.277H161.924H162.575H163.229H163.885H164.545H165.208H165.876H166.546H167.219H167.896H168.576H169.26H169.947H170.637H171.332H172.029H172.731H173.435H174.143H174.854H175.57H176.289H177.01H177.737H178.466H179.2H179.937H180.677H181.422H182.17H182.922H183.677H184.437H185.2H185.966H186.738H187.513H188.29H189.073H189.86H190.65H191.445H192.243H193.045H193.851H194.661H195.476H196.295H197.117H197.944H198.775H199.61H200.449H201.293H202.14H202.993H203.848H204.71H205.574H206.443H207.317H208.195H209.077H209.963H210.855H211.75H212.65H213.555H214.464H215.378H216.296H217.219H218.146H219.078H220.015H220.957H221.903H222.854H223.81H224.77H225.735H226.706H227.681H228.661H229.645H230.636H231.63H232.63H233.635H234.645H235.659H236.68H237.704H238.734H239.77H240.81H241.857H242.907H243.964H245.025H246.092H247.165H248.242H249.325H250.413H251.507H252.606H253.711H254.822H255.938H257.06H258.187H259.32H260.458H261.602H262.753H263.908H265.07H266.237H267.41H268.589H269.774H270.966H272.162H273.365H274.574H275.788H277.01H278.237H279.47H280.71H281.956H283.208H284.466H285.731H287.002H288.279H289.562H290.852H292.149H293.452H294.762H296.078H297.401H298.73H300.066H301.409H302.758H304.114H305.478H306.848H308.224H309.608H310.998H312.396H313.801H315.212H316.631H318.057H319.49H320.93H322.377H323.831H325.293H326.763H328.239H329.723H331.215H332.714H334.22H335.734H337.255H338.785H340.321H341.866H343.419H344.978H346.546H348.122H349.705H351.297H352.897H354.504H356.12H357.744H361.015H362.664H364.32H365.985H367.658H369.34H371.03H372.728H374.435H376.15H377.875H379.607H381.349H383.099H384.858H386.625H388.402H390.188H391.983H393.786H395.599H397.42H399.251H401.091H402.94H404.798H406.666H408.543H410.429H412.326H414.231H416.145H418.07H420.004H421.949H423.902H425.866H427.839H429.822H431.815H433.819H435.832H437.855H439.888H441.932H446.05H448.124H452.304H454.41H456.526H458.654H460.792H462.939H467.268H480.518H482.766H485.024H487.294H489.575H491.868H494.172H496.488H498.815H501.154H505.867H508.241H515.436H520.292H522.739H527.669H530.152H535.158H545.317H550.475H553.073H560.945H563.595H566.259H568.936H574.33H577.047H582.523H585.281H588.054H593.641H596.455H599.283H602.125H604.982H607.853H610.739H613.638H616.553H622.426H625.384H628.358H637.367H640.401H643.449H646.514H652.688H655.797H665.222H671.584H678.01H684.501H691.056H707.735H711.121H714.524H717.944H728.308H731.797H735.304H738.828H749.507H753.103H756.716H771.353H775.057H782.523H786.284H797.68H805.373H817.058H828.92H832.914H836.927H840.961H865.591H869.768H878.185H899.601H912.71H935H939.525H944.073H948.643H962.494H967.157H976.553H986.044H1000.46H1010.19H1020.02H1029.95H1045.02H1050.1H1055.2H1070.66H1075.87H1081.1H1086.36H1091.64H1096.95H1102.29H1118.46H1140.4H1145.96H1168.46H1174.15H1179.88H1220.76H1232.7H1238.72H1250.84H1281.69H1306.93H1326.2H1332.68H1385.76H1399.36V158.028Z" fill="url(#paint1_linear_1_124)"/>
<mask id="mask1_1_124" style="mask-type:luminance" maskUnits="userSpaceOnUse" x="138" y="0" width="109" height="166">
<path d="M246.092 0.699997H138.938V165.6H246.092V0.699997Z" fill="white"/>
</mask>
<g mask="url(#mask1_1_124)">
<path opacity="0.1" d="M1399.36 158.028H1385.76H1332.68H1326.2H1306.93V158.025H1281.69H1250.84H1238.72H1232.7H1220.76H1179.88H1174.15L1168.46 158.024H1145.96H1140.4H1118.46V158.023H1102.29V158.024H1096.95V158.023H1091.64H1086.36H1081.1H1075.87H1070.66H1055.2V158.01H1050.1V158.008H1045.02H1029.95H1020.02H1010.19V158.006H1000.46H986.044H976.553H967.157H962.494H948.643H944.073H939.525H935V157.97H912.71H899.601H878.185H869.768H865.591H840.961H836.927H832.914H828.92H817.058H805.373H797.68V157.969H786.284H782.523H775.057H771.353L756.716 157.968V157.964H753.103H749.507V157.957H738.828V157.955H735.304H731.797H728.308H717.944V157.954H714.524H711.121H707.735H691.056H684.501H678.01H671.584H665.222H655.797H652.688V157.94H646.514H643.449H640.401H637.367H628.358V157.929H625.384H622.426V157.906H616.553H613.638H610.739H607.853V157.897H604.982H602.125H599.283H596.455H593.641H588.054H585.281V157.892H582.523H577.047V157.891H574.33H568.936H566.259H563.595H560.945H553.073H550.475V157.886H545.317H535.158H530.152V157.883H527.669H522.739V157.882H520.292L515.436 157.881H508.241H505.867V157.878H501.154H498.815H496.488H494.172H491.868H489.575H487.294V157.86H485.024V157.76H482.766H480.518L467.268 157.76H462.939V157.755H460.792H458.654H456.526H454.41H452.304H448.124H446.05V157.751H441.932V157.749H439.888V157.756H437.855V157.751H435.832V157.741H433.819H431.815L429.822 157.74H427.839V157.696H425.866V157.582H423.902H421.949V157.577H420.004V157.57H418.07H416.145V157.291H414.231V157.275H412.326V157.276H410.429H408.543H406.666V157.253H404.798H402.94H401.091H399.251H397.42H395.599V157.248H393.786V157.242H391.983H390.188V157.22H388.402V157.248H386.625H384.858V157.176H383.099V157.251H381.349V157.25H379.607H377.875H376.15V157.241H374.435V156.791H372.728V157.244H371.03H369.34H367.658V157.25H365.985H364.32H362.663H361.015H357.744H356.12L354.504 157.249V157.247H352.897V157.23H351.297V157.21H349.705V157.205H348.122H346.546V157.196H344.978L343.419 157.195V157.179H341.866V155.602H340.321H338.785V155.596H337.255V155.599H335.734V155.555H334.22V155.546H332.714V155.524H331.215V155.513H329.723V155.109H328.239V155.075H326.763V155.061H325.293V155.043H323.831V154.982H322.377V154.956H320.93V154.67H319.49V154.65H318.057V154.519H316.631V154.461H315.212V154.46H313.801V154.453H312.396V154.122H310.998V154.049H309.608V153.983H308.224V153.927H306.848V153.823H305.478V153.794H304.114V153.784H302.758V153.799H301.409V153.745H300.066V153.712H298.73V153.688H297.401V153.578H296.078V152.513H294.762V152.424H293.452V152.27H292.149V152.056H290.852V151.5H289.562V151.387H288.279V151.353H287.002V150.299H285.731V150.278H284.466V148.393H283.208V148.182H281.956V148.084H280.71V148.054H279.47V147.913H278.237V147.857H277.01V147.828H275.788V147.794H274.574V147.716H273.365V147.63H272.162V147.593H270.966V147.611H269.774V147.589H268.589V147.555H267.41V147.353H266.237V145.751H265.07V145.544H263.908V145.527H262.753V145.279H261.602V144.943H260.458V144.846H259.32V144.685H258.187V144.604H257.06V144.563H255.938V144.387H254.822V144.597H253.711V144.464H252.606V144.338H251.507V144.243H250.413V144.053H249.325V144.059H248.242V143.942H247.165V143.936H246.092V143.984H245.025V143.831H243.964V143.807H242.907V143.645H241.857V143.592H240.81V141.891H239.77V141.852H238.734V141.69H237.704V141.55H236.68V141.331H235.659V141.237H234.645V141.054H233.635V140.968H232.63V140.624H231.63V140.267H230.636V139.807H229.645V139.41H228.661V139.217H227.681V138.709H226.706V137.768H225.735V137.698H224.77V137.702H223.81V137.57H222.854V137.138H221.903V136.986H220.957V136.813H220.015V136.643H219.078V136.557H218.146V136.222H217.219V135.828H216.296V135.157H215.378V134.793H214.464V134.641H213.555V134.473H212.65V134.201H211.75V132.614H210.855V132.375H209.963V132.005H209.077V131.913H208.195V131.516H207.317V131.379H206.443V128.194H205.574V127.992H204.71V127.945H203.848V127.697H202.993V127.279H202.14V126.533H201.293V126.217H200.449V125.665H199.61V125.12H198.775V124.173H197.944V122.677H197.117V121.949H196.295V121.515H195.476V121.346H194.661V120.817H193.851V120.71H193.045V119.654H192.243V119.648H191.445V117.584H190.65V115.882H189.86V114.602H189.073V112.444H188.29V111.52H187.513V110.803H186.738V110.304H185.966V109.674H185.2V107.478H184.437V106.796H183.677V103.527H182.921V102.22H182.17V101.316H181.422V99.2423H180.677V98.9309H179.937V97.1423H179.2V92.8432H178.466V91.073H177.737V89.6985H177.01V89.4395H176.289V89.1873H175.57V78.4339H174.854V78.236H174.143V77.1923H173.435V35.7636H172.731V33.9468H172.029V32.1668H171.332V8.07491H170.637V7.37748H169.947V7.22422H169.26V6.62864H168.576V6.22318H167.896V4.64887H167.219V4.29967H166.546V3.06583H165.876V2.74961H165.208V0.699997H164.545V22.2059H163.885V19.2542H163.229V18.9418H162.575V21.7092H161.924V29.67H161.277V1.82811H160.633V2.32863H159.993V36.3426H159.355V36.5143H158.721V64.0769H158.09V64.073H157.462V62.6297H156.836V62.6733H156.215V62.9449H155.597V62.6675H154.981V63.0904H154.369V63.1913H153.758V62.6481H153.152V61.4715H152.549V61.2387H151.948V61.033H151.352V61.0059H150.757V60.615H150.166V59.8545H149.577V57.6962H148.992V56.0821H148.409V56.4837H147.829V55.6059H147.253V58.8573H146.678V57.6642H146.107V57.2646H145.54V58.0163H144.974V59.8448H144.412V59.448H143.852V58.8554H143.294V58.7496H142.74V58.7138H142.189V57.9009H141.64V57.7826H141.094V57.315H140.551V57.0492H140.011V56.1355H139.472V56.1064H138.938V56.3305H138.405V56.1597H137.876V52.6338H137.348V52.7056H136.823V52.2274H136.301V51.8539H135.782V51.6405H135.265V51.6172H134.751V51.3728H134.24V51.3175H133.731V51.2797H133.225V50.2544H132.72V48.7586H132.219V47.5646H131.72V45.2686H131.223V45.1415H130.73V45.1114H130.238V45.3569H129.749V45.2405H129.262V44.8234H128.778V43.574H128.296V43.4789H127.817V42.8931H127.34V46.8701H126.865V46.3889H126.393V45.8904H125.923V45.4218H125.455V44.3675H124.99V39.2759H124.528V39.0392H124.067V39.2265H123.608V39.0383H123.152V9.29129H122.698V34.4211H122.247V36.6754H121.798V35.9789H121.351V42.1549H120.907V43.6642H120.463V44.2123H120.023V43.9348H119.585V43.7641H119.149V43.3703H118.715V43.2403H118.284V42.8494H117.854V43.9135H117.427V43.8029H117.001V47.7343H116.578V47.8352H116.157V48.4124H115.738V49.7267H115.322V51.755H114.907V52.8714H114.495V52.7997H114.084V56.9639H113.675V56.9522H113.269V56.832H112.864V56.8135H112.463V56.119H112.062V58.1259H111.663V58.093H111.267V57.2345H110.873V58.0503H110.48V58.287H110.089V58.2967H109.701V61.6994H109.314V62.1107H108.929V62.0525H108.547V62.4308H108.166V62.0079H107.786V62.4725H107.41V62.651H107.035V62.7412H106.661V64.3737H106.29V64.4911H105.92V64.0109H105.552V63.9702H105.186V64.0352H104.822V64.3126H104.459V65.2419H104.099V65.3418H103.74V65.3631H103.383V65.6725H103.028V65.6425H102.675V65.724H102.323V66.0848H101.973V66.0625H101.625V66.1731H101.279V66.4214H100.934V66.4544H100.591V67.0354H100.25V66.8404H99.9109V64.7326H99.5723V64.8723H99.2367V64.105H98.9021V64.2738H98.5693V64.234H98.2386V64.1719H97.9088V63.7859H97.5809V63.7102H97.255V63.169H96.93V63.4415H96.607V64.7675H96.286V64.6055H95.9659V64.9635H95.6477V66.7812H95.3315V66.1895H95.0162V66.2206H94.7029V66.2875H94.3906V66.2584H94.0802V65.5833H93.7717V65.6522H93.4642V64.7704H93.1587L92.8551 64.7695V64.7966H92.5524V64.9053H92.2508V65.0323H91.951V64.7782H91.6532V64.8063H91.3564V67.436H91.0615V65.075H90.7676V64.9935H90.4757V64.9877H90.1847V61.8372H89.8956V58.9243H89.6075V62.3435H89.3214V62.7257H89.0362V62.6995H88.752V44.9873H88.4707V45.1211H88.1894V45.0979H87.91V45.0339H87.6316V46.5209H87.3552V46.6334H87.0807V46.5451H86.8062V46.5829H86.5336V47.8556H86.263V47.7974H85.9933V48.0923H85.7246V47.6034H85.4579V47.9506H85.1921V48.2649H84.9273V49.169H84.6644V49.0458H84.4025V50.1419H84.1416V49.6491H83.8826V49.7771H83.6246V49.9702H83.3685V50.6618H83.1134V50.6288H82.8592V50.7675H82.6061V50.8568H82.3548V51.1478H82.1046V51.0702H81.8553V49.0632H81.6079V52.3457H81.3606V52.6095H81.1152V53.0131H80.8717V54.0025H80.6282V53.9443H80.3867V54.0936H80.1461V54.3022H79.9075V54.2663H79.6689V55.3401H79.4322V55.474H79.1965V55.6447H78.9618V55.7523H78.729V55.31H78.4962V56.1083H78.2653V56.669H78.0354V57.1627H77.8065V59.3724H77.5795V62.3095H77.3525V62.6209H77.1275V33.0883H76.9034V33.4191H76.6803V33.5413H76.4582V33.614H76.237V34.0952H76.0178V34.1252H75.7986V34.3474H75.5813V34.8217H75.365V66.6319H75.1497V66.7027H74.9353V66.9083H74.7219V68.2469H74.5095V69.3537H74.298V70.0055H74.0885V70.766H73.879V71.6953H73.6714V73.7847H73.4648V75.2804H73.2582V75.7246H73.0535V76.0409H72.8498V76.6365H72.6471V77.0749H72.4453V77.2669H72.2435V77.5541H72.0437V77.8645H71.8449V78.786H71.647V80.2662H71.4501V81.1373H71.2541V82.3536H71.0601V82.7513H70.8661V83.0258H70.6731V83.7339H70.4811V85.2656H70.29V86.3112H70.0998V87.7779H69.9107V88.4637H69.7225V88.6683H69.5353V90.9876H69.3491V90.8857H69.1628V92.7355H68.9785V92.916H68.7952V94.5853H68.6128V95.4302H68.4305V95.6601H68.2501V95.8153H68.0696V96.2857H67.8912V96.9521H67.7127V97.2548H67.5352V98.1472H67.3596V98.7408H67.184V99.8573H67.0094V101.078H66.8358V101.215H66.6622V102.34H66.4905V102.534H66.3198V102.701H66.149V102.868H65.9793V102.917H65.8105V102.973H65.6427V103.044H65.4759V103.277H65.31V104.027H65.1451V104.297H64.9802V105.26H64.8172V105.46H64.6543V105.693H64.4923V105.864H64.3313V105.887H64.1702V105.984H64.0112V106.103H63.8521V106.748H63.694V106.917H63.5368V106.992H63.3807V107.071H63.2245V107.346H63.0703V107.819H62.916V108.157H62.7628V108.231H62.6095V109.19H62.4582V109.285H62.3069V109.841H62.1565V109.901H62.0071V109.971H61.8587V110.319H61.7103V110.508H61.5629V111.536H61.4164V111.907H61.2709V115.693H61.1254V116.298H60.9809V116.578H60.8373V117.244H60.6947V117.888H60.5521V118.967H60.4105V119.365H60.2699V119.871H60.1292V120.231H59.9905V120.351H59.8518V120.414H59.7131V120.544H59.5763V120.675H59.4395V121.07H59.3037V121.175H59.1679V121.391H59.0331V121.456H58.8993V121.554H58.7664V121.783H58.6335V122.099H58.5016V124.901H58.3706V125.043H58.2397V125.36H58.1097V125.461H57.9807V125.63H57.8517V126.046H57.7236V126.181H57.5956V126.228H57.4695V126.55H57.3434V126.709H57.2173V126.761H57.0921V126.887H56.968V126.949H56.8448V127.112H56.7216V127.406H56.5994V127.623H56.4772V127.972H56.3559V129.009H56.2356V129.197H56.1154V129.249H55.996V129.369H55.8777V129.528H55.7594V129.619H55.641V129.698H55.5246V130.52H55.4082V130.658H55.2918V130.767H55.1764V130.825H55.0619V130.948H54.9475V131.375H54.834V149.303H54.7215V149.412H54.6089V149.449H54.4964V149.609H54.3858V149.787H54.2743V149.916H54.1647V150.186H54.0551V150.395H53.9455V150.592H53.8368V150.787H53.7292V150.848H53.6215V151.086H53.5148V151.19H53.4081V149.356H53.3024V151.477H53.1966V151.665H53.0919V151.683H52.9871V151.732H52.8833V152.042H52.7805V152.23H52.6777V152.3H52.5758V152.39H52.474V152.596H52.3721V152.698H52.2712V152.941H52.1713V153.138H52.0714V153.447H51.9725V154.548H51.8735V154.678H51.7756V154.788H51.6776V155.127H51.5806V155.443H51.4836V155.632H51.3876V155.689H51.2915V155.74H51.1965V157.459H51.1014V157.512H51.0064V157.524H50.9132V157.533H50.8192V157.538H50.726V157.541H50.6339V157.555H50.5417H50.4506V157.556H50.3594V157.618H50.2682V157.639H50.178H50.0878V157.479H49.9985V157.695H49.9103V157.829H49.821V157.834H49.7337H49.6455V157.846H49.5591V157.856H49.4718V157.961H49.3855H49.3001V157.974H49.2148H49.1294H49.045V157.978H48.9606H48.7938V157.98H48.7104V157.994H48.6279V157.996H48.5464V157.997H48.465V158H48.3835V158.003H48.302V158.004H48.2215L48.142 158.005H48.0624V158.066H47.9829H47.9043V158.074H47.8257H47.7472H47.6696H47.5929H47.5153V158.041H47.4397H47.363H47.2874V158.065H47.2117V158.096H47.137H47.0623H46.9877L46.9139 158.097V158.102H46.8402H46.7675V158.145H46.6947V158.149H46.622V158.145H46.5502H46.4784V158.148H46.4066H46.3358V158.157H46.265V158.183H46.1952V158.19H46.1253H46.0555V158.191H45.9866V158.199H45.9177H45.8489H45.781H45.7131H45.6452V158.215H45.3784H45.3125H45.2475H45.1815V158.216H45.1165H44.9245H44.8604H44.7974H44.7343H44.6713H44.5471H44.4239H44.3628V158.226H44.3027H44.2416V158.228H44.1213H43.9438H43.8264H43.711H43.6528H43.5956H43.5393H43.4821H43.3696H43.258H43.2027V158.239H42.9845H42.9311V158.242H42.613V158.25H42.5606H42.4568H42.2541H42.0542H41.9553H41.9068H41.8098H41.7623H41.5721H41.3403H41.2938H41.2491V158.269H41.158V158.272H41.0687H41.0251H40.8495H40.8058H40.6778H40.5507H40.4266V158.277H40.2626H40.1821H39.9455H39.7912H39.7534V158.291H39.7156H39.6409H39.5662H39.5293H39.4566H39.3838V158.292H39.312H39.2762H39.0317H38.9978H38.9638H38.9299H38.6971H38.6651H38.505H38.442H38.4099H38.3479H38.0763H37.8735L37.8454 158.293H37.7048H37.6223L37.568 158.292H37.5146H37.2799H37.2285H37.1286L37.0064 158.293H36.8628H36.7251H36.7018V158.304H36.6125H36.5679H36.5456V158.305H36.5029H36.4806H36.2711H35.8618H35.8074H35.3641H35.046H34.8918H34.7851H34.658H34.6328H34.6211H34.4436H34.4329H34.3544H34.269H34.0886H33.6948H33.6647H33.5638H33.4697H33.4629H33.4067L33.3058 158.306V158.449H33.2612H33.1826V158.464H33.1283H33.0817V158.418H33.0769H33.0594H32.975V158.452H32.9314H32.9285H32.9207H32.8732H32.8664H32.8421H32.8324H32.8295H32.8101H32.8033H32.7975H32.7878H32.7849L32.7548 158.451V158.449H32.7461H32.7296H32.7151H32.6937H32.6918L32.6491 158.45H32.6443H32.6375H32.6346H32.6258V158.496H32.621H32.5996H32.5667V158.494H32.5094V158.458H32.4978L32.4929 158.457V158.411H32.4871H32.4444V158.41H32.4377V158.408H32.4367V158.41H32.4328V158.456H32.4173H32.4008H32.3882H32.3775H32.3727V158.457H32.3688H32.3387H32.331H32.329H32.3251L32.3222 158.458H32.3203L32.3193 158.46H32.3106H32.3086V158.448H32.2873H32.2844H32.2815H32.2795H32.2689V158.45H32.2621H32.2563V158.486H32.2446H32.2378H32.233V158.487H32.2223H32.2204H32.2165V158.499H32.2146H32.1942H32.1922H32.1855V158.495H32.1835L32.1825 158.492H32.1806H32.1787V158.315V158.309H32.1767V158.303L32.1758 158.302H32.1748V157.525V157.529V154.978V154.976L32.1738 154.957V154.482V155.259V155.28V155.457L32.1728 155.462V155.469V155.475V155.476V155.478V155.953V158.504L32.1719 158.505V158.552V158.559V158.56V165.6H32.1738H32.1758H32.1777H32.1796H32.1825H32.1845H32.1922H32.1942H32.2146H32.2165H32.2204H32.2223H32.233H32.2369H32.2446H32.2563H32.2621H32.2689H32.2795H32.2815H32.2844H32.2873H32.3086H32.3106H32.3193H32.3222H32.3251H32.329H32.331H32.3387H32.3688H32.3727H32.3775H32.3882H32.4008H32.4173H32.4328H32.4367H32.4377H32.4444H32.4871H32.492H32.4978H32.5094H32.5667H32.5996H32.621H32.6258H32.6346H32.6375H32.6443H32.6491H32.6918H32.6937H32.7151H32.7296H32.7461H32.7548H32.7849H32.7878H32.7975H32.8033H32.8101H32.8295H32.8324H32.8421H32.8664H32.8732H32.9207H32.9285H32.9314H32.975H33.0594H33.0769H33.0817H33.1283H33.1826H33.2612H33.3058H33.4067H33.4629H33.4697H33.5638H33.6647H33.6948H34.0886H34.269H34.3544H34.4329H34.4436H34.6211H34.6328H34.658H34.7851H34.8918H35.046H35.3641H35.8074H35.8618H36.2711H36.4806H36.5029H36.5456H36.5679H36.6125H36.7018H36.7251H36.8628H37.0064H37.1286H37.2285H37.2799H37.5146H37.568H37.6223H37.7048H37.8454H37.8735H38.0763H38.3479H38.4099H38.442H38.505H38.6651H38.6971H38.9299H38.9638H38.9978H39.0317H39.2762H39.312H39.3838H39.4566H39.5293H39.5662H39.6409H39.7156H39.7534H39.7912H39.9455H40.1821H40.2626H40.4266H40.5507H40.6778H40.8058H40.8495H41.0251H41.0687H41.158H41.2491H41.2938H41.3403H41.5721H41.7623H41.8098H41.9068H41.9553H42.0542H42.2541H42.4568H42.5606H42.613H42.9311H42.9845H43.2027H43.258H43.3696H43.4821H43.5393H43.5956H43.6528H43.711H43.8264H43.9438H44.1213H44.2416H44.3027H44.3628H44.4239H44.5471H44.6713H44.7343H44.7974H44.8604H44.9245H45.1165H45.1815H45.2475H45.3125H45.3784H45.6452H45.7131H45.781H45.8489H45.9177H45.9866H46.0555H46.1253H46.1952H46.265H46.3358H46.4066H46.4784H46.5502H46.622H46.6947H46.7675H46.8402H46.9139H46.9877H47.0623H47.137H47.2117H47.2874H47.363H47.4397H47.5153H47.5929H47.6696H47.7472H47.8257H47.9043H47.9829H48.0624H48.142H48.2215H48.302H48.3835H48.465H48.5464H48.6279H48.7104H48.7938H48.9606H49.045H49.1294H49.2148H49.3001H49.3855H49.4718H49.5591H49.6455H49.7337H49.821H49.9103H49.9985H50.0878H50.178H50.2682H50.3594H50.4506H50.5417H50.6339H50.726H50.8192H50.9132H51.0064H51.1014H51.1965H51.2915H51.3876H51.4836H51.5806H51.6776H51.7756H51.8735H51.9725H52.0714H52.1713H52.2712H52.3721H52.474H52.5758H52.6777H52.7805H52.8833H52.9871H53.0919H53.1966H53.3024H53.4081H53.5148H53.6215H53.7292H53.8368H53.9455H54.0551H54.1647H54.2743H54.3858H54.4964H54.6089H54.7215H54.834H54.9475H55.0619H55.1764H55.2918H55.4082H55.5246H55.641H55.7594H55.8777H55.996H56.1154H56.2356H56.3559H56.4772H56.5994H56.7216H56.8448H56.968H57.0921H57.2173H57.3434H57.4695H57.5956H57.7236H57.8517H57.9807H58.1097H58.2397H58.3706H58.5016H58.6335H58.7664H58.8993H59.0331H59.1679H59.3037H59.4395H59.5763H59.7131H59.8518H59.9905H60.1292H60.2699H60.4105H60.5521H60.6947H60.8373H60.9809H61.1254H61.2709H61.4164H61.5629H61.7103H61.8587H62.0071H62.1565H62.3069H62.4582H62.6095H62.7628H62.916H63.0703H63.2245H63.3807H63.5368H63.694H63.8521H64.0112H64.1702H64.3313H64.4923H64.6543H64.8172H64.9802H65.1451H65.31H65.4759H65.6427H65.8105H65.9793H66.149H66.3198H66.4905H66.6622H66.8358H67.0094H67.184H67.3596H67.5352H67.7127H67.8912H68.0696H68.2501H68.4305H68.6128H68.7952H68.9785H69.1628H69.3491H69.5353H69.7225H69.9107H70.0998H70.29H70.4811H70.6731H70.8661H71.0601H71.2541H71.4501H71.647H71.8449H72.0437H72.2435H72.4453H72.6471H72.8498H73.0535H73.2582H73.4648H73.6714H73.879H74.0885H74.298H74.5095H74.7219H74.9353H75.1497H75.365H75.5813H75.7986H76.0178H76.237H76.4582H76.6803H76.9034H77.1275H77.3525H77.5795H77.8065H78.0354H78.2653H78.4962H78.729H78.9618H79.1965H79.4322H79.6689H79.9075H80.1461H80.3867H80.6282H80.8717H81.1152H81.3606H81.6079H81.8553H82.1046H82.3548H82.6061H82.8592H83.1134H83.3685H83.6246H83.8826H84.1416H84.4025H84.6644H84.9273H85.1921H85.4579H85.7246H85.9933H86.263H86.5336H86.8062H87.0807H87.3552H87.6316H87.91H88.1894H88.4707H88.752H89.0362H89.3214H89.6075H89.8956H90.1847H90.4757H90.7676H91.0615H91.3564H91.6532H91.951H92.2508H92.5524H92.8551H93.1587H93.4642H93.7717H94.0802H94.3906H94.7029H95.0162H95.3315H95.6477H95.9659H96.286H96.607H96.93H97.255H97.5809H97.9088H98.2386H98.5693H98.9021H99.2367H99.5723H99.9109H100.25H100.591H100.934H101.279H101.625H101.973H102.323H102.675H103.028H103.383H103.74H104.099H104.459H104.822H105.186H105.552H105.92H106.29H106.661H107.035H107.41H107.786H108.166H108.547H108.929H109.314H109.701H110.089H110.48H110.873H111.267H111.663H112.062H112.463H112.864H113.269H113.675H114.084H114.495H114.907H115.322H115.738H116.157H116.578H117.001H117.427H117.854H118.284H118.715H119.149H119.585H120.023H120.463H120.907H121.351H121.798H122.247H122.698H123.152H123.608H124.067H124.528H124.99H125.455H125.923H126.393H126.865H127.34H127.817H128.296H128.778H129.262H129.749H130.238H130.73H131.223H131.72H132.219H132.72H133.225H133.731H134.24H134.751H135.265H135.782H136.301H136.823H137.348H137.876H138.405H138.938H139.472H140.011H140.551H141.094H141.64H142.189H142.74H143.294H143.852H144.412H144.974H145.54H146.107H146.678H147.253H147.829H148.409H148.992H149.577H150.166H150.757H151.352H151.948H152.549H153.152H153.758H154.369H154.981H155.597H156.215H156.836H157.462H158.09H158.721H159.355H159.993H160.633H161.277H161.924H162.575H163.229H163.885H164.545H165.208H165.876H166.546H167.219H167.896H168.576H169.26H169.947H170.637H171.332H172.029H172.731H173.435H174.143H174.854H175.57H176.289H177.01H177.737H178.466H179.2H179.937H180.677H181.422H182.17H182.921H183.677H184.437H185.2H185.966H186.738H187.513H188.29H189.073H189.86H190.65H191.445H192.243H193.045H193.851H194.661H195.476H196.295H197.117H197.944H198.775H199.61H200.449H201.293H202.14H202.993H203.848H204.71H205.574H206.443H207.317H208.195H209.077H209.963H210.855H211.75H212.65H213.555H214.464H215.378H216.296H217.219H218.146H219.078H220.015H220.957H221.903H222.854H223.81H224.77H225.735H226.706H227.681H228.661H229.645H230.636H231.63H232.63H233.635H234.645H235.659H236.68H237.704H238.734H239.77H240.81H241.857H242.907H243.964H245.025H246.092H247.165H248.242H249.325H250.413H251.507H252.606H253.711H254.822H255.938H257.06H258.187H259.32H260.458H261.602H262.753H263.908H265.07H266.237H267.41H268.589H269.774H270.966H272.162H273.365H274.574H275.788H277.01H278.237H279.47H280.71H281.956H283.208H284.466H285.731H287.002H288.279H289.562H290.852H292.149H293.452H294.762H296.078H297.401H298.73H300.066H301.409H302.758H304.114H305.478H306.848H308.224H309.608H310.998H312.396H313.801H315.212H316.631H318.057H319.49H320.93H322.377H323.831H325.293H326.763H328.239H329.723H331.215H332.714H334.22H335.734H337.255H338.785H340.321H341.866H343.419H344.978H346.546H348.122H349.705H351.297H352.897H354.504H356.12H357.744H361.015H362.663H364.32H365.985H367.658H369.34H371.03H372.728H374.435H376.15H377.875H379.607H381.349H383.099H384.858H386.625H388.402H390.188H391.983H393.786H395.599H397.42H399.251H401.091H402.94H404.798H406.666H408.543H410.429H412.326H414.231H416.145H418.07H420.004H421.949H423.902H425.866H427.839H429.822H431.815H433.819H435.832H437.855H439.888H441.932H446.05H448.124H452.304H454.41H456.526H458.654H460.792H462.939H467.268H480.518H482.766H485.024H487.294H489.575H491.868H494.172H496.488H498.815H501.154H505.867H508.241H515.436H520.292H522.739H527.669H530.152H535.158H545.317H550.475H553.073H560.945H563.595H566.259H568.936H574.33H577.047H582.523H585.281H588.054H593.641H596.455H599.283H602.125H604.982H607.853H610.739H613.638H616.553H622.426H625.384H628.358H637.367H640.401H643.449H646.514H652.688H655.797H665.222H671.584H678.01H684.501H691.056H707.735H711.121H714.524H717.944H728.308H731.797H735.304H738.828H749.507H753.103H756.716H771.353H775.057H782.523H786.284H797.68H805.373H817.058H828.92H832.914H836.927H840.961H865.591H869.768H878.185H899.601H912.71H935H939.525H944.073H948.643H962.494H967.157H976.553H986.044H1000.46H1010.19H1020.02H1029.95H1045.02H1050.1H1055.2H1070.66H1075.87H1081.1H1086.36H1091.64H1096.95H1102.29H1118.46H1140.4H1145.96H1168.46H1174.15H1179.88H1220.76H1232.7H1238.72H1250.84H1281.69H1306.93H1326.2H1332.68H1385.76H1399.36V158.028Z" fill="white"/>
</g>
<path opacity="0.5" d="M160.858 0.699997V165.6" stroke="#1FC7D4" stroke-width="1.94" stroke-dasharray="3.88 3.88"/>
<path d="M32.1716 165.6V171.42" stroke="white" stroke-width="0.97"/>
<path d="M32.2797 187.542C31.6201 187.542 31.0898 187.416 30.6889 187.163C30.2879 186.905 29.9937 186.536 29.8062 186.058C29.6251 185.573 29.5346 184.994 29.5346 184.321C29.5346 183.623 29.6219 183.028 29.7965 182.536C29.9775 182.045 30.2685 181.67 30.6695 181.411C31.0704 181.153 31.6071 181.023 32.2797 181.023C32.9522 181.023 33.4857 181.153 33.8802 181.411C34.2811 181.67 34.5689 182.045 34.7435 182.536C34.9245 183.028 35.0151 183.623 35.0151 184.321C35.0151 184.994 34.9245 185.573 34.7435 186.058C34.5624 186.536 34.2714 186.905 33.8705 187.163C33.4695 187.416 32.9393 187.542 32.2797 187.542ZM32.2797 186.64C32.9005 186.64 33.3337 186.436 33.5795 186.028C33.8252 185.615 33.9481 185.045 33.9481 184.321C33.9481 183.552 33.8284 182.96 33.5892 182.546C33.3499 182.132 32.9134 181.925 32.2797 181.925C31.6459 181.925 31.2062 182.132 30.9605 182.546C30.7212 182.96 30.6016 183.552 30.6016 184.321C30.6016 185.045 30.7244 185.615 30.9702 186.028C31.2159 186.436 31.6524 186.64 32.2797 186.64Z" fill="#00FFFF"/>
<path d="M123.023 165.6V171.42" stroke="white" stroke-width="0.97"/>
<path d="M114.439 187.367V186.843C114.607 186.449 114.84 186.093 115.138 185.776C115.442 185.459 115.765 185.152 116.108 184.855C116.366 184.628 116.58 184.438 116.748 184.282C116.923 184.121 117.058 183.975 117.155 183.846C117.252 183.717 117.32 183.584 117.359 183.448C117.398 183.306 117.417 183.141 117.417 182.954C117.417 182.617 117.32 182.362 117.126 182.187C116.932 182.013 116.609 181.925 116.156 181.925C115.91 181.925 115.658 181.951 115.4 182.003C115.147 182.055 114.905 182.126 114.672 182.216V181.285C114.898 181.208 115.167 181.146 115.477 181.101C115.788 181.049 116.082 181.023 116.36 181.023C117.058 181.023 117.585 181.195 117.941 181.537C118.297 181.88 118.475 182.349 118.475 182.944C118.475 183.241 118.423 183.506 118.319 183.739C118.216 183.966 118.074 184.182 117.893 184.389C117.711 184.59 117.501 184.797 117.262 185.01C116.965 185.269 116.683 185.521 116.418 185.767C116.159 186.006 115.949 186.268 115.788 186.552H118.542V187.367H114.439ZM122.12 187.542C121.46 187.542 120.93 187.416 120.529 187.163C120.128 186.905 119.834 186.536 119.646 186.058C119.465 185.573 119.375 184.994 119.375 184.321C119.375 183.623 119.462 183.028 119.636 182.536C119.818 182.045 120.109 181.67 120.509 181.411C120.91 181.153 121.447 181.023 122.12 181.023C122.792 181.023 123.326 181.153 123.72 181.411C124.121 181.67 124.409 182.045 124.583 182.536C124.765 183.028 124.855 183.623 124.855 184.321C124.855 184.994 124.765 185.573 124.583 186.058C124.402 186.536 124.111 186.905 123.71 187.163C123.31 187.416 122.779 187.542 122.12 187.542ZM122.12 186.64C122.74 186.64 123.174 186.436 123.419 186.028C123.665 185.615 123.788 185.045 123.788 184.321C123.788 183.552 123.668 182.96 123.429 182.546C123.19 182.132 122.753 181.925 122.12 181.925C121.486 181.925 121.046 182.132 120.8 182.546C120.561 182.96 120.442 183.552 120.442 184.321C120.442 185.045 120.564 185.615 120.81 186.028C121.056 186.436 121.492 186.64 122.12 186.64ZM128.438 187.542C127.778 187.542 127.248 187.416 126.847 187.163C126.446 186.905 126.152 186.536 125.964 186.058C125.783 185.573 125.693 184.994 125.693 184.321C125.693 183.623 125.78 183.028 125.955 182.536C126.136 182.045 126.427 181.67 126.828 181.411C127.229 181.153 127.765 181.023 128.438 181.023C129.11 181.023 129.644 181.153 130.038 181.411C130.439 181.67 130.727 182.045 130.902 182.536C131.083 183.028 131.173 183.623 131.173 184.321C131.173 184.994 131.083 185.573 130.902 186.058C130.721 186.536 130.43 186.905 130.029 187.163C129.628 187.416 129.098 187.542 128.438 187.542ZM128.438 186.64C129.059 186.64 129.492 186.436 129.738 186.028C129.983 185.615 130.106 185.045 130.106 184.321C130.106 183.552 129.987 182.96 129.747 182.546C129.508 182.132 129.072 181.925 128.438 181.925C127.804 181.925 127.364 182.132 127.119 182.546C126.879 182.96 126.76 183.552 126.76 184.321C126.76 185.045 126.883 185.615 127.128 186.028C127.374 186.436 127.811 186.64 128.438 186.64Z" fill="#00FFFF"/>
<path d="M213.875 165.6V171.42" stroke="white" stroke-width="0.97"/>
<path d="M208.055 187.367V185.999H204.932V185.252L208.181 181.12H209.103V185.146H209.743V185.999H209.103V187.367H208.055ZM205.96 185.175H208.22V182.323L205.96 185.175ZM213.137 187.542C212.478 187.542 211.948 187.416 211.547 187.163C211.146 186.905 210.852 186.536 210.664 186.058C210.483 185.573 210.392 184.994 210.392 184.321C210.392 183.623 210.48 183.028 210.654 182.536C210.835 182.045 211.126 181.67 211.527 181.411C211.928 181.153 212.465 181.023 213.137 181.023C213.81 181.023 214.344 181.153 214.738 181.411C215.139 181.67 215.427 182.045 215.601 182.536C215.782 183.028 215.873 183.623 215.873 184.321C215.873 184.994 215.782 185.573 215.601 186.058C215.42 186.536 215.129 186.905 214.728 187.163C214.327 187.416 213.797 187.542 213.137 187.542ZM213.137 186.64C213.758 186.64 214.192 186.436 214.437 186.028C214.683 185.615 214.806 185.045 214.806 184.321C214.806 183.552 214.686 182.96 214.447 182.546C214.208 182.132 213.771 181.925 213.137 181.925C212.504 181.925 212.064 182.132 211.818 182.546C211.579 182.96 211.459 183.552 211.459 184.321C211.459 185.045 211.582 185.615 211.828 186.028C212.074 186.436 212.51 186.64 213.137 186.64ZM219.456 187.542C218.796 187.542 218.266 187.416 217.865 187.163C217.464 186.905 217.17 186.536 216.982 186.058C216.801 185.573 216.711 184.994 216.711 184.321C216.711 183.623 216.798 183.028 216.973 182.536C217.154 182.045 217.445 181.67 217.846 181.411C218.246 181.153 218.783 181.023 219.456 181.023C220.128 181.023 220.662 181.153 221.056 181.411C221.457 181.67 221.745 182.045 221.92 182.536C222.101 183.028 222.191 183.623 222.191 184.321C222.191 184.994 222.101 185.573 221.92 186.058C221.738 186.536 221.447 186.905 221.047 187.163C220.646 187.416 220.115 187.542 219.456 187.542ZM219.456 186.64C220.077 186.64 220.51 186.436 220.756 186.028C221.001 185.615 221.124 185.045 221.124 184.321C221.124 183.552 221.005 182.96 220.765 182.546C220.526 182.132 220.089 181.925 219.456 181.925C218.822 181.925 218.382 182.132 218.137 182.546C217.897 182.96 217.778 183.552 217.778 184.321C217.778 185.045 217.901 185.615 218.146 186.028C218.392 186.436 218.828 186.64 219.456 186.64Z" fill="#00FFFF"/>
<path d="M304.728 165.6V171.42" stroke="white" stroke-width="0.97"/>
<path d="M298.698 187.464C297.915 187.464 297.324 187.27 296.923 186.882C296.528 186.494 296.331 185.883 296.331 185.049V183.642C296.331 183.125 296.438 182.669 296.651 182.275C296.865 181.88 297.168 181.573 297.563 181.353C297.957 181.133 298.426 181.023 298.969 181.023C299.286 181.023 299.561 181.043 299.794 181.081C300.033 181.12 300.253 181.175 300.454 181.246V182.148C300.253 182.077 300.036 182.022 299.804 181.984C299.577 181.945 299.322 181.925 299.037 181.925C298.455 181.925 298.025 182.064 297.747 182.342C297.469 182.614 297.33 182.979 297.33 183.439V183.827C297.556 183.658 297.815 183.536 298.106 183.458C298.404 183.374 298.672 183.332 298.911 183.332C299.642 183.332 300.182 183.51 300.531 183.865C300.88 184.221 301.055 184.725 301.055 185.379C301.055 185.999 300.864 186.504 300.483 186.892C300.101 187.273 299.506 187.464 298.698 187.464ZM298.708 186.669C299.173 186.669 299.522 186.555 299.755 186.329C299.988 186.103 300.104 185.799 300.104 185.417C300.104 185.016 300.007 184.706 299.813 184.486C299.626 184.26 299.273 184.147 298.756 184.147C298.497 184.147 298.242 184.192 297.99 184.282C297.744 184.366 297.524 184.48 297.33 184.622V185.291C297.33 186.209 297.789 186.669 298.708 186.669ZM304.637 187.542C303.977 187.542 303.447 187.416 303.046 187.163C302.645 186.905 302.351 186.536 302.163 186.058C301.982 185.573 301.892 184.994 301.892 184.321C301.892 183.623 301.979 183.028 302.153 182.536C302.334 182.045 302.625 181.67 303.026 181.411C303.427 181.153 303.964 181.023 304.637 181.023C305.309 181.023 305.843 181.153 306.237 181.411C306.638 181.67 306.926 182.045 307.1 182.536C307.281 183.028 307.372 183.623 307.372 184.321C307.372 184.994 307.281 185.573 307.1 186.058C306.919 186.536 306.628 186.905 306.227 187.163C305.826 187.416 305.296 187.542 304.637 187.542ZM304.637 186.64C305.257 186.64 305.691 186.436 305.936 186.028C306.182 185.615 306.305 185.045 306.305 184.321C306.305 183.552 306.185 182.96 305.946 182.546C305.707 182.132 305.27 181.925 304.637 181.925C304.003 181.925 303.563 182.132 303.317 182.546C303.078 182.96 302.959 183.552 302.959 184.321C302.959 185.045 303.081 185.615 303.327 186.028C303.573 186.436 304.009 186.64 304.637 186.64ZM310.955 187.542C310.295 187.542 309.765 187.416 309.364 187.163C308.963 186.905 308.669 186.536 308.481 186.058C308.3 185.573 308.21 184.994 308.21 184.321C308.21 183.623 308.297 183.028 308.472 182.536C308.653 182.045 308.944 181.67 309.345 181.411C309.746 181.153 310.282 181.023 310.955 181.023C311.627 181.023 312.161 181.153 312.555 181.411C312.956 181.67 313.244 182.045 313.419 182.536C313.6 183.028 313.69 183.623 313.69 184.321C313.69 184.994 313.6 185.573 313.419 186.058C313.238 186.536 312.947 186.905 312.546 187.163C312.145 187.416 311.614 187.542 310.955 187.542ZM310.955 186.64C311.576 186.64 312.009 186.436 312.255 186.028C312.5 185.615 312.623 185.045 312.623 184.321C312.623 183.552 312.504 182.96 312.264 182.546C312.025 182.132 311.589 181.925 310.955 181.925C310.321 181.925 309.881 182.132 309.636 182.546C309.396 182.96 309.277 183.552 309.277 184.321C309.277 185.045 309.4 185.615 309.645 186.028C309.891 186.436 310.328 186.64 310.955 186.64Z" fill="#00FFFF"/>
</g>
<path d="M370.06 0.699997H16C7.16344 0.699997 0 7.86344 0 16.7V178.7C0 187.537 7.16345 194.7 16 194.7H370.06C378.897 194.7 386.06 187.537 386.06 178.7V16.7C386.06 7.86344 378.897 0.699997 370.06 0.699997Z" fill="white" fill-opacity="0.08"/>
<path d="M16 1.2H370.06C378.62 1.2 385.56 8.13958 385.56 16.7V178.7C385.56 187.26 378.62 194.2 370.06 194.2H16C7.4396 194.2 0.5 187.26 0.5 178.7V16.7C0.5 8.13958 7.43959 1.2 16 1.2Z" stroke="white" stroke-opacity="0.05"/>
<mask id="mask2_1_124" style="mask-type:luminance" maskUnits="userSpaceOnUse" x="0" y="0" width="387" height="166">
<path d="M386.06 0.699997H0V165.6H386.06V0.699997Z" fill="white"/>
</mask>
<g mask="url(#mask2_1_124)">
<path d="M246.092 0.699997H138.938V165.6H246.092V0.699997Z" fill="url(#paint2_linear_1_124)" fill-opacity="0.1"/>
</g>
<path d="M138.938 0.699997V165.6V0.699997ZM137.968 165.6V0.699997V165.6ZM138.938 1.67H127.298C126.005 1.67 125.358 2.31666 125.358 3.61V24.95C125.358 26.2433 126.005 26.89 127.298 26.89H138.938V1.67Z" fill="#00FFFF"/>
<path d="M138.938 0.699997V165.6M137.968 165.6V0.699997M138.938 1.67H127.298C126.005 1.67 125.358 2.31666 125.358 3.61V24.95C125.358 26.2433 126.005 26.89 127.298 26.89H138.938V1.67Z" stroke="#00FFFF" stroke-width="2.91"/>
<path d="M134.088 7.49V21.07V7.49Z" fill="black"/>
<path d="M134.088 7.49V21.07M130.208 7.49V21.07" stroke="black" stroke-width="1.455"/>
<path d="M69.0981 0.699997H111.778C116.064 0.699997 119.538 4.17427 119.538 8.46V22.04C119.538 26.3257 116.064 29.8 111.778 29.8H69.0981C64.8124 29.8 61.3381 26.3257 61.3381 22.04V8.46C61.3381 4.17427 64.8124 0.699997 69.0981 0.699997Z" fill="#00FFFF"/>
<mask id="path-24-inside-1_1_124" fill="white">
<path d="M78.2014 13.7775V12.7057H83.0184V13.7775H78.2014ZM85.4114 16.64V9.72972L84.1 9.9567V8.80919L86.7733 8.39306V16.64H85.4114ZM88.9717 16.64L91.9602 9.5784H88.0007V8.51916H93.4356V9.40186L90.3714 16.64H88.9717ZM96.1978 12.1004C95.6009 12.1004 95.1512 11.9365 94.8485 11.6086C94.5543 11.2723 94.4072 10.8478 94.4072 10.335C94.4072 9.73813 94.5543 9.26735 94.8485 8.92268C95.1512 8.5696 95.6009 8.39306 96.1978 8.39306C96.7947 8.39306 97.2402 8.5696 97.5345 8.92268C97.8287 9.26735 97.9758 9.73813 97.9758 10.335C97.9758 10.8478 97.8287 11.2723 97.5345 11.6086C97.2402 11.9365 96.7947 12.1004 96.1978 12.1004ZM95.643 16.64L99.943 8.51916H101.229L96.9292 16.64H95.643ZM96.1978 11.2681C96.5257 11.2681 96.761 11.1841 96.904 11.0159C97.0469 10.8478 97.1183 10.6124 97.1183 10.3098C97.1183 9.93989 97.0427 9.67087 96.8914 9.50274C96.7484 9.3262 96.5173 9.23793 96.1978 9.23793C95.8783 9.23793 95.643 9.3262 95.4916 9.50274C95.3487 9.67087 95.2773 9.93989 95.2773 10.3098C95.2773 10.6124 95.3487 10.8478 95.4916 11.0159C95.6346 11.1841 95.8699 11.2681 96.1978 11.2681ZM100.712 16.7661C100.115 16.7661 99.6656 16.6022 99.3629 16.2743C99.0687 15.938 98.9216 15.5135 98.9216 15.0007C98.9216 14.4038 99.0687 13.9331 99.3629 13.5884C99.6656 13.2353 100.115 13.0588 100.712 13.0588C101.309 13.0588 101.755 13.2353 102.049 13.5884C102.343 13.9331 102.49 14.4038 102.49 15.0007C102.49 15.5135 102.343 15.938 102.049 16.2743C101.755 16.6022 101.309 16.7661 100.712 16.7661ZM100.712 15.9338C101.04 15.9338 101.275 15.8498 101.418 15.6816C101.561 15.5135 101.633 15.2781 101.633 14.9755C101.633 14.6056 101.557 14.3366 101.406 14.1684C101.263 13.9919 101.032 13.9036 100.712 13.9036C100.393 13.9036 100.157 13.9919 100.006 14.1684C99.8631 14.3366 99.7917 14.6056 99.7917 14.9755C99.7917 15.2781 99.8631 15.5135 100.006 15.6816C100.149 15.8498 100.384 15.9338 100.712 15.9338Z"/>
</mask>
<path d="M78.2014 13.7775V12.7057H83.0184V13.7775H78.2014ZM85.4114 16.64V9.72972L84.1 9.9567V8.80919L86.7733 8.39306V16.64H85.4114ZM88.9717 16.64L91.9602 9.5784H88.0007V8.51916H93.4356V9.40186L90.3714 16.64H88.9717ZM96.1978 12.1004C95.6009 12.1004 95.1512 11.9365 94.8485 11.6086C94.5543 11.2723 94.4072 10.8478 94.4072 10.335C94.4072 9.73813 94.5543 9.26735 94.8485 8.92268C95.1512 8.5696 95.6009 8.39306 96.1978 8.39306C96.7947 8.39306 97.2402 8.5696 97.5345 8.92268C97.8287 9.26735 97.9758 9.73813 97.9758 10.335C97.9758 10.8478 97.8287 11.2723 97.5345 11.6086C97.2402 11.9365 96.7947 12.1004 96.1978 12.1004ZM95.643 16.64L99.943 8.51916H101.229L96.9292 16.64H95.643ZM96.1978 11.2681C96.5257 11.2681 96.761 11.1841 96.904 11.0159C97.0469 10.8478 97.1183 10.6124 97.1183 10.3098C97.1183 9.93989 97.0427 9.67087 96.8914 9.50274C96.7484 9.3262 96.5173 9.23793 96.1978 9.23793C95.8783 9.23793 95.643 9.3262 95.4916 9.50274C95.3487 9.67087 95.2773 9.93989 95.2773 10.3098C95.2773 10.6124 95.3487 10.8478 95.4916 11.0159C95.6346 11.1841 95.8699 11.2681 96.1978 11.2681ZM100.712 16.7661C100.115 16.7661 99.6656 16.6022 99.3629 16.2743C99.0687 15.938 98.9216 15.5135 98.9216 15.0007C98.9216 14.4038 99.0687 13.9331 99.3629 13.5884C99.6656 13.2353 100.115 13.0588 100.712 13.0588C101.309 13.0588 101.755 13.2353 102.049 13.5884C102.343 13.9331 102.49 14.4038 102.49 15.0007C102.49 15.5135 102.343 15.938 102.049 16.2743C101.755 16.6022 101.309 16.7661 100.712 16.7661ZM100.712 15.9338C101.04 15.9338 101.275 15.8498 101.418 15.6816C101.561 15.5135 101.633 15.2781 101.633 14.9755C101.633 14.6056 101.557 14.3366 101.406 14.1684C101.263 13.9919 101.032 13.9036 100.712 13.9036C100.393 13.9036 100.157 13.9919 100.006 14.1684C99.8631 14.3366 99.7917 14.6056 99.7917 14.9755C99.7917 15.2781 99.8631 15.5135 100.006 15.6816C100.149 15.8498 100.384 15.9338 100.712 15.9338Z" fill="#FAF9FA"/>
<path d="M78.2014 13.7775H77.2314V14.7475H78.2014V13.7775ZM78.2014 12.7057V11.7357H77.2314V12.7057H78.2014ZM83.0184 12.7057H83.9884V11.7357H83.0184V12.7057ZM83.0184 13.7775V14.7475H83.9884V13.7775H83.0184ZM79.1714 13.7775V12.7057H77.2314V13.7775H79.1714ZM78.2014 13.6757H83.0184V11.7357H78.2014V13.6757ZM82.0484 12.7057V13.7775H83.9884V12.7057H82.0484ZM83.0184 12.8075H78.2014V14.7475H83.0184V12.8075ZM85.4114 16.64H84.4414V17.61H85.4114V16.64ZM85.4114 9.72972H86.3814V8.57741L85.246 8.77393L85.4114 9.72972ZM84.1 9.9567H83.13V11.109L84.2654 10.9125L84.1 9.9567ZM84.1 8.80919L83.9508 7.85073L83.13 7.9785V8.80919H84.1ZM86.7733 8.39306H87.7433V7.26039L86.6241 7.4346L86.7733 8.39306ZM86.7733 16.64V17.61H87.7433V16.64H86.7733ZM86.3814 16.64V9.72972H84.4414V16.64H86.3814ZM85.246 8.77393L83.9346 9.00091L84.2654 10.9125L85.5768 10.6855L85.246 8.77393ZM85.07 9.9567V8.80919H83.13V9.9567H85.07ZM84.2492 9.76765L86.9225 9.35152L86.6241 7.4346L83.9508 7.85073L84.2492 9.76765ZM85.8033 8.39306V16.64H87.7433V8.39306H85.8033ZM86.7733 15.67H85.4114V17.61H86.7733V15.67ZM88.9717 16.64L88.0784 16.2619L87.5079 17.61H88.9717V16.64ZM91.9602 9.5784L92.8535 9.95645L93.4241 8.6084H91.9602V9.5784ZM88.0007 9.5784H87.0307V10.5484H88.0007V9.5784ZM88.0007 8.51916V7.54916H87.0307V8.51916H88.0007ZM93.4356 8.51916H94.4056V7.54916H93.4356V8.51916ZM93.4356 9.40186L94.3289 9.78001L94.4056 9.59872V9.40186H93.4356ZM90.3714 16.64V17.61H91.0141L91.2646 17.0182L90.3714 16.64ZM89.865 17.0181L92.8535 9.95645L91.067 9.20034L88.0784 16.2619L89.865 17.0181ZM91.9602 8.6084H88.0007V10.5484H91.9602V8.6084ZM88.9707 9.5784V8.51916H87.0307V9.5784H88.9707ZM88.0007 9.48916H93.4356V7.54916H88.0007V9.48916ZM92.4656 8.51916V9.40186H94.4056V8.51916H92.4656ZM92.5424 9.02371L89.4781 16.2618L91.2646 17.0182L94.3289 9.78001L92.5424 9.02371ZM90.3714 15.67H88.9717V17.61H90.3714V15.67ZM94.8485 11.6086L94.1185 12.2474L94.127 12.2571L94.1358 12.2665L94.8485 11.6086ZM94.8485 8.92268L94.1121 8.29141L94.1108 8.29289L94.8485 8.92268ZM97.5345 8.92268L96.7892 9.5437L96.7967 9.55246L97.5345 8.92268ZM97.5345 11.6086L98.2564 12.2565L98.2645 12.2474L97.5345 11.6086ZM95.643 16.64L94.7857 16.1861L94.0318 17.61H95.643V16.64ZM99.943 8.51916V7.54916H99.359L99.0857 8.06525L99.943 8.51916ZM101.229 8.51916L102.086 8.97307L102.84 7.54916H101.229V8.51916ZM96.9292 16.64V17.61H97.5132L97.7864 17.0939L96.9292 16.64ZM96.904 11.0159L97.643 11.6442V11.6442L96.904 11.0159ZM96.8914 9.50274L96.1374 10.1131L96.1534 10.1328L96.1704 10.1516L96.8914 9.50274ZM95.4916 9.50274L94.7552 8.87147L94.7526 8.87452L95.4916 9.50274ZM95.4916 11.0159L94.7526 11.6442V11.6442L95.4916 11.0159ZM99.3629 16.2743L98.6329 16.9131L98.6414 16.9228L98.6502 16.9322L99.3629 16.2743ZM99.3629 13.5884L98.6264 12.9571L98.6252 12.9586L99.3629 13.5884ZM102.049 13.5884L101.304 14.2094L101.311 14.2182L102.049 13.5884ZM102.049 16.2743L102.771 16.9222L102.779 16.9131L102.049 16.2743ZM101.418 15.6816L100.679 15.0534L101.418 15.6816ZM101.406 14.1684L100.652 14.7788L100.668 14.7985L100.685 14.8173L101.406 14.1684ZM100.006 14.1684L99.2695 13.5372L99.2669 13.5402L100.006 14.1684ZM100.006 15.6816L100.745 15.0534V15.0534L100.006 15.6816ZM96.1978 11.1304C95.7761 11.1304 95.6242 11.0188 95.5613 10.9507L94.1358 12.2665C94.6781 12.8541 95.4258 13.0704 96.1978 13.0704V11.1304ZM95.5785 10.9699C95.4617 10.8363 95.3772 10.6498 95.3772 10.335H93.4372C93.4372 11.0459 93.6469 11.7083 94.1185 12.2474L95.5785 10.9699ZM95.3772 10.335C95.3772 9.89478 95.484 9.67231 95.5863 9.55246L94.1108 8.29289C93.6246 8.86239 93.4372 9.58147 93.4372 10.335H95.3772ZM95.585 9.55395C95.6538 9.47366 95.7979 9.36306 96.1978 9.36306V7.42306C95.404 7.42306 94.6485 7.66554 94.1121 8.29141L95.585 9.55395ZM96.1978 9.36306C96.5992 9.36306 96.7313 9.47405 96.7893 9.54366L98.2796 8.3017C97.7492 7.66515 96.9902 7.42306 96.1978 7.42306V9.36306ZM96.7967 9.55246C96.899 9.67231 97.0058 9.89478 97.0058 10.335H98.9458C98.9458 9.58147 98.7584 8.86239 98.2722 8.29289L96.7967 9.55246ZM97.0058 10.335C97.0058 10.6498 96.9213 10.8363 96.8045 10.9699L98.2645 12.2474C98.7361 11.7083 98.9458 11.0459 98.9458 10.335H97.0058ZM96.8125 10.9607C96.761 11.0182 96.6214 11.1304 96.1978 11.1304V13.0704C96.968 13.0704 97.7195 12.8547 98.2564 12.2565L96.8125 10.9607ZM96.5002 17.0939L100.8 8.97307L99.0857 8.06525L94.7857 16.1861L96.5002 17.0939ZM99.943 9.48916H101.229V7.54916H99.943V9.48916ZM100.372 8.06525L96.0719 16.1861L97.7864 17.0939L102.086 8.97307L100.372 8.06525ZM96.9292 15.67H95.643V17.61H96.9292V15.67ZM96.1978 12.2381C96.6695 12.2381 97.2409 12.1173 97.643 11.6442L96.1649 10.3877C96.1893 10.359 96.216 10.3361 96.2414 10.3192C96.2663 10.3026 96.2855 10.2946 96.294 10.2916C96.3021 10.2887 96.2997 10.2905 96.2832 10.293C96.2666 10.2955 96.2389 10.2981 96.1978 10.2981V12.2381ZM97.643 11.6442C97.9823 11.245 98.0883 10.7572 98.0883 10.3098H96.1483C96.1483 10.3867 96.139 10.4234 96.1366 10.4315C96.135 10.4366 96.1408 10.416 96.1649 10.3877L97.643 11.6442ZM98.0883 10.3098C98.0883 9.8432 97.9991 9.28353 97.6123 8.85384L96.1704 10.1516C96.1257 10.102 96.121 10.069 96.1278 10.0932C96.1353 10.1198 96.1483 10.1868 96.1483 10.3098H98.0883ZM97.6453 8.89242C97.2519 8.40646 96.6852 8.26793 96.1978 8.26793V10.2079C96.272 10.2079 96.2866 10.2187 96.2648 10.2103C96.2526 10.2057 96.2319 10.1961 96.2072 10.1786C96.1821 10.1608 96.1581 10.1386 96.1374 10.1131L97.6453 8.89242ZM96.1978 8.26793C95.7061 8.26793 95.1524 8.40798 94.7552 8.87147L96.2281 10.134C96.2104 10.1547 96.19 10.1728 96.1689 10.1872C96.1482 10.2014 96.1314 10.209 96.1223 10.2124C96.106 10.2185 96.1243 10.2079 96.1978 10.2079V8.26793ZM94.7526 8.87452C94.3884 9.30289 94.3073 9.85322 94.3073 10.3098H96.2473C96.2473 10.1832 96.2599 10.1113 96.2684 10.0796C96.2764 10.0493 96.274 10.0801 96.2307 10.131L94.7526 8.87452ZM94.3073 10.3098C94.3073 10.7572 94.4133 11.245 94.7526 11.6442L96.2307 10.3877C96.2548 10.416 96.2606 10.4366 96.259 10.4315C96.2566 10.4234 96.2473 10.3867 96.2473 10.3098H94.3073ZM94.7526 11.6442C95.1547 12.1173 95.7261 12.2381 96.1978 12.2381V10.2981C96.1568 10.2981 96.129 10.2955 96.1124 10.293C96.096 10.2905 96.0935 10.2887 96.1016 10.2916C96.1101 10.2946 96.1293 10.3026 96.1542 10.3192C96.1796 10.3361 96.2063 10.359 96.2307 10.3877L94.7526 11.6442ZM100.712 15.7961C100.29 15.7961 100.139 15.6845 100.076 15.6164L98.6502 16.9322C99.1925 17.5198 99.9401 17.7361 100.712 17.7361V15.7961ZM100.093 15.6356C99.9761 15.502 99.8916 15.3155 99.8916 15.0007H97.9516C97.9516 15.7116 98.1613 16.374 98.6329 16.9131L100.093 15.6356ZM99.8916 15.0007C99.8916 14.5605 99.9984 14.338 100.101 14.2182L98.6252 12.9586C98.139 13.5281 97.9516 14.2472 97.9516 15.0007H99.8916ZM100.099 14.2196C100.168 14.1394 100.312 14.0288 100.712 14.0288V12.0888C99.9183 12.0888 99.1629 12.3312 98.6264 12.9571L100.099 14.2196ZM100.712 14.0288C101.114 14.0288 101.246 14.1397 101.304 14.2094L102.794 12.9674C102.264 12.3308 101.505 12.0888 100.712 12.0888V14.0288ZM101.311 14.2182C101.413 14.338 101.52 14.5605 101.52 15.0007H103.46C103.46 14.2472 103.273 13.5281 102.787 12.9586L101.311 14.2182ZM101.52 15.0007C101.52 15.3155 101.436 15.502 101.319 15.6356L102.779 16.9131C103.25 16.374 103.46 15.7116 103.46 15.0007H101.52ZM101.327 15.6264C101.275 15.6839 101.136 15.7961 100.712 15.7961V17.7361C101.482 17.7361 102.234 17.5205 102.771 16.9222L101.327 15.6264ZM100.712 16.9038C101.184 16.9038 101.755 16.783 102.157 16.3099L100.679 15.0534C100.704 15.0247 100.73 15.0018 100.756 14.9849C100.781 14.9683 100.8 14.9603 100.808 14.9573C100.816 14.9544 100.814 14.9562 100.798 14.9587C100.781 14.9612 100.753 14.9638 100.712 14.9638V16.9038ZM102.157 16.3099C102.497 15.9107 102.603 15.4229 102.603 14.9755H100.663C100.663 15.0524 100.653 15.0891 100.651 15.0972C100.649 15.1023 100.655 15.0817 100.679 15.0534L102.157 16.3099ZM102.603 14.9755C102.603 14.5089 102.513 13.9492 102.127 13.5195L100.685 14.8173C100.64 14.7677 100.635 14.7347 100.642 14.7589C100.65 14.7855 100.663 14.8525 100.663 14.9755H102.603ZM102.16 13.5581C101.766 13.0722 101.2 12.9336 100.712 12.9336V14.8736C100.786 14.8736 100.801 14.8844 100.779 14.876C100.767 14.8714 100.746 14.8618 100.722 14.8443C100.696 14.8265 100.672 14.8043 100.652 14.7788L102.16 13.5581ZM100.712 12.9336C100.221 12.9336 99.6668 13.0737 99.2695 13.5372L100.743 14.7997C100.725 14.8204 100.704 14.8385 100.683 14.8529C100.663 14.8671 100.646 14.8747 100.637 14.8781C100.62 14.8842 100.639 14.8736 100.712 14.8736V12.9336ZM99.2669 13.5402C98.9028 13.9686 98.8217 14.5189 98.8217 14.9755H100.762C100.762 14.8489 100.774 14.777 100.783 14.7453C100.791 14.715 100.788 14.7458 100.745 14.7967L99.2669 13.5402ZM98.8217 14.9755C98.8217 15.4229 98.9277 15.9107 99.2669 16.3099L100.745 15.0534C100.769 15.0817 100.775 15.1023 100.773 15.0972C100.771 15.0891 100.762 15.0524 100.762 14.9755H98.8217ZM99.2669 16.3099C99.6691 16.783 100.241 16.9038 100.712 16.9038V14.9638C100.671 14.9638 100.643 14.9612 100.627 14.9587C100.61 14.9562 100.608 14.9544 100.616 14.9573C100.625 14.9603 100.644 14.9683 100.669 14.9849C100.694 15.0018 100.721 15.0247 100.745 15.0534L99.2669 16.3099Z" fill="black" mask="url(#path-24-inside-1_1_124)"/>
<path d="M246.092 0.699997V165.6V0.699997ZM247.062 165.6V0.699997V165.6ZM246.092 1.67H257.732C259.025 1.67 259.672 2.31666 259.672 3.61V24.95C259.672 26.2433 259.025 26.89 257.732 26.89H246.092V1.67Z" fill="#00FFFF"/>
<path d="M246.092 0.699997V165.6M247.062 165.6V0.699997M246.092 1.67H257.732C259.025 1.67 259.672 2.31666 259.672 3.61V24.95C259.672 26.2433 259.025 26.89 257.732 26.89H246.092V1.67Z" stroke="#00FFFF" stroke-width="2.91"/>
<path d="M250.942 7.49V21.07V7.49Z" fill="black"/>
<path d="M250.942 7.49V21.07M254.822 7.49V21.07" stroke="black" stroke-width="1.455"/>
<path d="M315.932 0.699997H273.252C268.966 0.699997 265.492 4.17427 265.492 8.46V22.04C265.492 26.3257 268.966 29.8 273.252 29.8H315.932C320.217 29.8 323.692 26.3257 323.692 22.04V8.46C323.692 4.17427 320.217 0.699997 315.932 0.699997Z" fill="#00FFFF"/>
<mask id="path-31-inside-2_1_124" fill="white">
<path d="M286.276 16.7661C285.259 16.7661 284.49 16.5139 283.969 16.0095C283.456 15.5051 283.199 14.7107 283.199 13.6262V11.7978C283.199 11.1252 283.338 10.5326 283.616 10.0197C283.893 9.50694 284.288 9.10763 284.801 8.8218C285.314 8.53597 285.923 8.39306 286.629 8.39306C287.041 8.39306 287.399 8.41828 287.701 8.46872C288.012 8.51916 288.298 8.59062 288.559 8.68309V9.85582C288.298 9.76335 288.016 9.69189 287.714 9.64145C287.42 9.59101 287.088 9.56579 286.718 9.56579C285.961 9.56579 285.402 9.74653 285.041 10.108C284.679 10.4611 284.498 10.9361 284.498 11.5329V12.0373C284.793 11.8188 285.129 11.659 285.507 11.5582C285.894 11.4489 286.243 11.3942 286.554 11.3942C287.504 11.3942 288.206 11.6254 288.66 12.0878C289.114 12.5502 289.341 13.2059 289.341 14.0549C289.341 14.862 289.093 15.5177 288.597 16.0221C288.101 16.5181 287.327 16.7661 286.276 16.7661ZM286.289 15.7321C286.894 15.7321 287.348 15.585 287.651 15.2907C287.953 14.9965 288.105 14.6014 288.105 14.1054C288.105 13.5842 287.979 13.1807 287.726 12.8948C287.483 12.6006 287.024 12.4535 286.352 12.4535C286.016 12.4535 285.684 12.5123 285.356 12.63C285.036 12.7393 284.75 12.8864 284.498 13.0714V13.9415C284.498 15.1352 285.095 15.7321 286.289 15.7321ZM293.505 16.7661C292.488 16.7661 291.718 16.5139 291.197 16.0095C290.684 15.5051 290.428 14.7107 290.428 13.6262V11.7978C290.428 11.1252 290.567 10.5326 290.844 10.0197C291.122 9.50694 291.517 9.10763 292.03 8.8218C292.542 8.53597 293.152 8.39306 293.858 8.39306C294.27 8.39306 294.627 8.41828 294.93 8.46872C295.241 8.51916 295.527 8.59062 295.787 8.68309V9.85582C295.527 9.76335 295.245 9.69189 294.942 9.64145C294.648 9.59101 294.316 9.56579 293.946 9.56579C293.19 9.56579 292.631 9.74653 292.269 10.108C291.908 10.4611 291.727 10.9361 291.727 11.5329V12.0373C292.021 11.8188 292.357 11.659 292.736 11.5582C293.122 11.4489 293.471 11.3942 293.782 11.3942C294.732 11.3942 295.434 11.6254 295.888 12.0878C296.342 12.5502 296.569 13.2059 296.569 14.0549C296.569 14.862 296.321 15.5177 295.825 16.0221C295.329 16.5181 294.556 16.7661 293.505 16.7661ZM293.518 15.7321C294.123 15.7321 294.577 15.585 294.879 15.2907C295.182 14.9965 295.333 14.6014 295.333 14.1054C295.333 13.5842 295.207 13.1807 294.955 12.8948C294.711 12.6006 294.253 12.4535 293.581 12.4535C293.244 12.4535 292.912 12.5123 292.584 12.63C292.265 12.7393 291.979 12.8864 291.727 13.0714V13.9415C291.727 15.1352 292.324 15.7321 293.518 15.7321ZM299.447 12.1004C298.85 12.1004 298.401 11.9365 298.098 11.6086C297.804 11.2723 297.657 10.8478 297.657 10.335C297.657 9.73813 297.804 9.26735 298.098 8.92268C298.401 8.5696 298.85 8.39306 299.447 8.39306C300.044 8.39306 300.49 8.5696 300.784 8.92268C301.078 9.26735 301.225 9.73813 301.225 10.335C301.225 10.8478 301.078 11.2723 300.784 11.6086C300.49 11.9365 300.044 12.1004 299.447 12.1004ZM298.892 16.64L303.192 8.51916H304.479L300.179 16.64H298.892ZM299.447 11.2681C299.775 11.2681 300.011 11.1841 300.153 11.0159C300.296 10.8478 300.368 10.6124 300.368 10.3098C300.368 9.93989 300.292 9.67087 300.141 9.50274C299.998 9.3262 299.767 9.23793 299.447 9.23793C299.128 9.23793 298.892 9.3262 298.741 9.50274C298.598 9.67087 298.527 9.93989 298.527 10.3098C298.527 10.6124 298.598 10.8478 298.741 11.0159C298.884 11.1841 299.119 11.2681 299.447 11.2681ZM303.962 16.7661C303.365 16.7661 302.915 16.6022 302.612 16.2743C302.318 15.938 302.171 15.5135 302.171 15.0007C302.171 14.4038 302.318 13.9331 302.612 13.5884C302.915 13.2353 303.365 13.0588 303.962 13.0588C304.559 13.0588 305.004 13.2353 305.298 13.5884C305.593 13.9331 305.74 14.4038 305.74 15.0007C305.74 15.5135 305.593 15.938 305.298 16.2743C305.004 16.6022 304.559 16.7661 303.962 16.7661ZM303.962 15.9338C304.289 15.9338 304.525 15.8498 304.668 15.6816C304.811 15.5135 304.882 15.2781 304.882 14.9755C304.882 14.6056 304.807 14.3366 304.655 14.1684C304.512 13.9919 304.281 13.9036 303.962 13.9036C303.642 13.9036 303.407 13.9919 303.255 14.1684C303.113 14.3366 303.041 14.6056 303.041 14.9755C303.041 15.2781 303.113 15.5135 303.255 15.6816C303.398 15.8498 303.634 15.9338 303.962 15.9338Z"/>
</mask>
<path d="M286.276 16.7661C285.259 16.7661 284.49 16.5139 283.969 16.0095C283.456 15.5051 283.199 14.7107 283.199 13.6262V11.7978C283.199 11.1252 283.338 10.5326 283.616 10.0197C283.893 9.50694 284.288 9.10763 284.801 8.8218C285.314 8.53597 285.923 8.39306 286.629 8.39306C287.041 8.39306 287.399 8.41828 287.701 8.46872C288.012 8.51916 288.298 8.59062 288.559 8.68309V9.85582C288.298 9.76335 288.016 9.69189 287.714 9.64145C287.42 9.59101 287.088 9.56579 286.718 9.56579C285.961 9.56579 285.402 9.74653 285.041 10.108C284.679 10.4611 284.498 10.9361 284.498 11.5329V12.0373C284.793 11.8188 285.129 11.659 285.507 11.5582C285.894 11.4489 286.243 11.3942 286.554 11.3942C287.504 11.3942 288.206 11.6254 288.66 12.0878C289.114 12.5502 289.341 13.2059 289.341 14.0549C289.341 14.862 289.093 15.5177 288.597 16.0221C288.101 16.5181 287.327 16.7661 286.276 16.7661ZM286.289 15.7321C286.894 15.7321 287.348 15.585 287.651 15.2907C287.953 14.9965 288.105 14.6014 288.105 14.1054C288.105 13.5842 287.979 13.1807 287.726 12.8948C287.483 12.6006 287.024 12.4535 286.352 12.4535C286.016 12.4535 285.684 12.5123 285.356 12.63C285.036 12.7393 284.75 12.8864 284.498 13.0714V13.9415C284.498 15.1352 285.095 15.7321 286.289 15.7321ZM293.505 16.7661C292.488 16.7661 291.718 16.5139 291.197 16.0095C290.684 15.5051 290.428 14.7107 290.428 13.6262V11.7978C290.428 11.1252 290.567 10.5326 290.844 10.0197C291.122 9.50694 291.517 9.10763 292.03 8.8218C292.542 8.53597 293.152 8.39306 293.858 8.39306C294.27 8.39306 294.627 8.41828 294.93 8.46872C295.241 8.51916 295.527 8.59062 295.787 8.68309V9.85582C295.527 9.76335 295.245 9.69189 294.942 9.64145C294.648 9.59101 294.316 9.56579 293.946 9.56579C293.19 9.56579 292.631 9.74653 292.269 10.108C291.908 10.4611 291.727 10.9361 291.727 11.5329V12.0373C292.021 11.8188 292.357 11.659 292.736 11.5582C293.122 11.4489 293.471 11.3942 293.782 11.3942C294.732 11.3942 295.434 11.6254 295.888 12.0878C296.342 12.5502 296.569 13.2059 296.569 14.0549C296.569 14.862 296.321 15.5177 295.825 16.0221C295.329 16.5181 294.556 16.7661 293.505 16.7661ZM293.518 15.7321C294.123 15.7321 294.577 15.585 294.879 15.2907C295.182 14.9965 295.333 14.6014 295.333 14.1054C295.333 13.5842 295.207 13.1807 294.955 12.8948C294.711 12.6006 294.253 12.4535 293.581 12.4535C293.244 12.4535 292.912 12.5123 292.584 12.63C292.265 12.7393 291.979 12.8864 291.727 13.0714V13.9415C291.727 15.1352 292.324 15.7321 293.518 15.7321ZM299.447 12.1004C298.85 12.1004 298.401 11.9365 298.098 11.6086C297.804 11.2723 297.657 10.8478 297.657 10.335C297.657 9.73813 297.804 9.26735 298.098 8.92268C298.401 8.5696 298.85 8.39306 299.447 8.39306C300.044 8.39306 300.49 8.5696 300.784 8.92268C301.078 9.26735 301.225 9.73813 301.225 10.335C301.225 10.8478 301.078 11.2723 300.784 11.6086C300.49 11.9365 300.044 12.1004 299.447 12.1004ZM298.892 16.64L303.192 8.51916H304.479L300.179 16.64H298.892ZM299.447 11.2681C299.775 11.2681 300.011 11.1841 300.153 11.0159C300.296 10.8478 300.368 10.6124 300.368 10.3098C300.368 9.93989 300.292 9.67087 300.141 9.50274C299.998 9.3262 299.767 9.23793 299.447 9.23793C299.128 9.23793 298.892 9.3262 298.741 9.50274C298.598 9.67087 298.527 9.93989 298.527 10.3098C298.527 10.6124 298.598 10.8478 298.741 11.0159C298.884 11.1841 299.119 11.2681 299.447 11.2681ZM303.962 16.7661C303.365 16.7661 302.915 16.6022 302.612 16.2743C302.318 15.938 302.171 15.5135 302.171 15.0007C302.171 14.4038 302.318 13.9331 302.612 13.5884C302.915 13.2353 303.365 13.0588 303.962 13.0588C304.559 13.0588 305.004 13.2353 305.298 13.5884C305.593 13.9331 305.74 14.4038 305.74 15.0007C305.74 15.5135 305.593 15.938 305.298 16.2743C305.004 16.6022 304.559 16.7661 303.962 16.7661ZM303.962 15.9338C304.289 15.9338 304.525 15.8498 304.668 15.6816C304.811 15.5135 304.882 15.2781 304.882 14.9755C304.882 14.6056 304.807 14.3366 304.655 14.1684C304.512 13.9919 304.281 13.9036 303.962 13.9036C303.642 13.9036 303.407 13.9919 303.255 14.1684C303.113 14.3366 303.041 14.6056 303.041 14.9755C303.041 15.2781 303.113 15.5135 303.255 15.6816C303.398 15.8498 303.634 15.9338 303.962 15.9338Z" fill="#FAF9FA"/>
<path d="M283.969 16.0095L283.288 16.7011L283.294 16.7065L283.969 16.0095ZM283.616 10.0197L282.762 9.5582H282.762L283.616 10.0197ZM284.801 8.8218L285.273 9.66908H285.273L284.801 8.8218ZM287.701 8.46872L287.542 9.42553L287.546 9.42621L287.701 8.46872ZM288.559 8.68309H289.529V7.99802L288.883 7.76893L288.559 8.68309ZM288.559 9.85582L288.234 10.77L289.529 11.2293V9.85582H288.559ZM287.714 9.64145L287.55 10.5975L287.554 10.5983L287.714 9.64145ZM285.041 10.108L285.718 10.802L285.726 10.7939L285.041 10.108ZM284.498 12.0373H283.528V13.9663L285.077 12.816L284.498 12.0373ZM285.507 11.5582L285.757 12.4954L285.764 12.4936L285.771 12.4916L285.507 11.5582ZM288.66 12.0878L287.967 12.7674L288.66 12.0878ZM288.597 16.0221L289.282 16.708L289.288 16.7022L288.597 16.0221ZM287.651 15.2907L288.327 15.9862H288.327L287.651 15.2907ZM287.726 12.8948L286.98 13.5137L286.989 13.5253L286.999 13.5366L287.726 12.8948ZM285.356 12.63L285.67 13.5478L285.677 13.5454L285.684 13.543L285.356 12.63ZM284.498 13.0714L283.925 12.2892L283.528 12.5798V13.0714H284.498ZM286.276 15.7961C285.409 15.7961 284.921 15.5817 284.643 15.3125L283.294 16.7065C284.058 17.4461 285.11 17.7361 286.276 17.7361V15.7961ZM284.649 15.318C284.397 15.0706 284.169 14.5812 284.169 13.6262H282.229C282.229 14.8402 282.514 15.9396 283.288 16.701L284.649 15.318ZM284.169 13.6262V11.7978H282.229V13.6262H284.169ZM284.169 11.7978C284.169 11.2615 284.279 10.8319 284.469 10.4813L282.762 9.5582C282.397 10.2332 282.229 10.989 282.229 11.7978H284.169ZM284.469 10.4813C284.658 10.1318 284.92 9.8658 285.273 9.66908L284.329 7.97452C283.656 8.34945 283.128 8.88204 282.762 9.5582L284.469 10.4813ZM285.273 9.66908C285.615 9.47857 286.055 9.36306 286.629 9.36306V7.42306C285.791 7.42306 285.013 7.59337 284.329 7.97452L285.273 9.66908ZM286.629 9.36306C287.005 9.36306 287.306 9.38626 287.542 9.42552L287.861 7.51192C287.491 7.4503 287.078 7.42306 286.629 7.42306V9.36306ZM287.546 9.42621C287.807 9.46858 288.036 9.52674 288.234 9.59724L288.883 7.76893C288.561 7.65449 288.217 7.56974 287.857 7.51123L287.546 9.42621ZM287.589 8.68309V9.85582H289.529V8.68309H287.589ZM288.883 8.94166C288.563 8.82823 288.226 8.74344 287.873 8.68465L287.554 10.5983C287.807 10.6403 288.033 10.6985 288.234 10.77L288.883 8.94166ZM287.878 8.6854C287.518 8.62379 287.13 8.59579 286.718 8.59579V10.5358C287.045 10.5358 287.321 10.5582 287.55 10.5975L287.878 8.6854ZM286.718 8.59579C285.826 8.59579 284.969 8.80727 284.355 9.42213L285.726 10.7939C285.835 10.6858 286.096 10.5358 286.718 10.5358V8.59579ZM284.363 9.4141C283.781 9.98257 283.528 10.726 283.528 11.5329H285.468C285.468 11.1462 285.577 10.9396 285.718 10.8019L284.363 9.4141ZM283.528 11.5329V12.0373H285.468V11.5329H283.528ZM285.077 12.816C285.266 12.6755 285.489 12.5669 285.757 12.4954L285.257 10.6209C284.768 10.7512 284.319 10.9621 283.92 11.2587L285.077 12.816ZM285.771 12.4916C286.095 12.3999 286.353 12.3642 286.554 12.3642V10.4242C286.132 10.4242 285.692 10.4979 285.243 10.6247L285.771 12.4916ZM286.554 12.3642C287.365 12.3642 287.766 12.5624 287.967 12.7674L289.352 11.4082C288.645 10.6884 287.643 10.4242 286.554 10.4242V12.3642ZM287.967 12.7674C288.193 12.9973 288.371 13.3783 288.371 14.0549H290.311C290.311 13.0335 290.034 12.103 289.352 11.4082L287.967 12.7674ZM288.371 14.0549C288.371 14.6464 288.197 15.045 287.905 15.342L289.288 16.7022C289.988 15.9905 290.311 15.0776 290.311 14.0549H288.371ZM287.911 15.3362C287.67 15.5769 287.197 15.7961 286.276 15.7961V17.7361C287.458 17.7361 288.531 17.4593 289.282 16.708L287.911 15.3362ZM286.289 16.7021C287.037 16.7021 287.777 16.5205 288.327 15.9862L286.975 14.5952C286.919 14.6494 286.751 14.7621 286.289 14.7621V16.7021ZM288.327 15.9862C288.85 15.4774 289.075 14.8137 289.075 14.1054H287.135C287.135 14.389 287.057 14.5156 286.975 14.5952L288.327 15.9862ZM289.075 14.1054C289.075 13.4351 288.912 12.7721 288.454 12.2531L286.999 13.5366C287.046 13.5892 287.135 13.7333 287.135 14.1054H289.075ZM288.473 12.276C287.944 11.6374 287.105 11.4835 286.352 11.4835V13.4235C286.624 13.4235 286.8 13.4541 286.903 13.4874C287.002 13.519 287.003 13.5418 286.98 13.5137L288.473 12.276ZM286.352 11.4835C285.9 11.4835 285.457 11.563 285.028 11.7171L285.684 13.543C285.91 13.4617 286.131 13.4235 286.352 13.4235V11.4835ZM285.042 11.7122C284.637 11.8508 284.262 12.0417 283.925 12.2892L285.072 13.8536C285.239 13.7311 285.436 13.6278 285.67 13.5478L285.042 11.7122ZM283.528 13.0714V13.9415H285.468V13.0714H283.528ZM283.528 13.9415C283.528 14.6879 283.716 15.4258 284.26 15.9703C284.805 16.5148 285.543 16.7021 286.289 16.7021V14.7621C285.842 14.7621 285.684 14.6509 285.632 14.5985C285.579 14.5462 285.468 14.3888 285.468 13.9415H283.528ZM291.197 16.0095L290.517 16.7011L290.523 16.7065L291.197 16.0095ZM290.844 10.0197L289.991 9.5582H289.991L290.844 10.0197ZM292.03 8.8218L292.502 9.66908H292.502L292.03 8.8218ZM294.93 8.46872L294.77 9.42553L294.775 9.42621L294.93 8.46872ZM295.787 8.68309H296.757V7.99802L296.112 7.76893L295.787 8.68309ZM295.787 9.85582L295.463 10.77L296.757 11.2293V9.85582H295.787ZM294.942 9.64145L294.779 10.5975L294.783 10.5983L294.942 9.64145ZM292.269 10.108L292.947 10.802L292.955 10.7939L292.269 10.108ZM291.727 12.0373H290.757V13.9663L292.305 12.816L291.727 12.0373ZM292.736 11.5582L292.986 12.4954L292.993 12.4936L292.999 12.4916L292.736 11.5582ZM295.888 12.0878L295.196 12.7674L295.888 12.0878ZM295.825 16.0221L296.511 16.708L296.517 16.7022L295.825 16.0221ZM294.879 15.2907L295.556 15.9862L294.879 15.2907ZM294.955 12.8948L294.208 13.5137L294.218 13.5253L294.228 13.5366L294.955 12.8948ZM292.584 12.63L292.898 13.5478L292.905 13.5454L292.912 13.543L292.584 12.63ZM291.727 13.0714L291.153 12.2892L290.757 12.5798V13.0714H291.727ZM293.505 15.7961C292.637 15.7961 292.15 15.5817 291.872 15.3125L290.523 16.7065C291.287 17.4461 292.338 17.7361 293.505 17.7361V15.7961ZM291.877 15.318C291.626 15.0706 291.398 14.5812 291.398 13.6262H289.458C289.458 14.8402 289.743 15.9396 290.517 16.701L291.877 15.318ZM291.398 13.6262V11.7978H289.458V13.6262H291.398ZM291.398 11.7978C291.398 11.2615 291.508 10.8319 291.697 10.4813L289.991 9.5582C289.626 10.2332 289.458 10.989 289.458 11.7978H291.398ZM291.697 10.4813C291.886 10.1318 292.149 9.8658 292.502 9.66908L291.557 7.97452C290.885 8.34945 290.357 8.88204 289.991 9.5582L291.697 10.4813ZM292.502 9.66908C292.844 9.47857 293.284 9.36306 293.858 9.36306V7.42306C293.02 7.42306 292.241 7.59337 291.557 7.97452L292.502 9.66908ZM293.858 9.36306C294.233 9.36306 294.535 9.38626 294.77 9.42552L295.089 7.51192C294.72 7.4503 294.306 7.42306 293.858 7.42306V9.36306ZM294.775 9.42621C295.036 9.46858 295.264 9.52674 295.463 9.59724L296.112 7.76893C295.789 7.65449 295.446 7.56974 295.085 7.51123L294.775 9.42621ZM294.817 8.68309V9.85582H296.757V8.68309H294.817ZM296.112 8.94166C295.792 8.82823 295.455 8.74344 295.102 8.68465L294.783 10.5983C295.036 10.6403 295.261 10.6985 295.463 10.77L296.112 8.94166ZM295.106 8.6854C294.747 8.62379 294.359 8.59579 293.946 8.59579V10.5358C294.274 10.5358 294.549 10.5582 294.779 10.5975L295.106 8.6854ZM293.946 8.59579C293.055 8.59579 292.198 8.80727 291.583 9.42213L292.955 10.7939C293.063 10.6858 293.324 10.5358 293.946 10.5358V8.59579ZM291.591 9.4141C291.009 9.98257 290.757 10.726 290.757 11.5329H292.697C292.697 11.1462 292.806 10.9396 292.947 10.8019L291.591 9.4141ZM290.757 11.5329V12.0373H292.697V11.5329H290.757ZM292.305 12.816C292.495 12.6755 292.718 12.5669 292.986 12.4954L292.486 10.6209C291.997 10.7512 291.548 10.9621 291.148 11.2587L292.305 12.816ZM292.999 12.4916C293.324 12.3999 293.582 12.3642 293.782 12.3642V10.4242C293.36 10.4242 292.921 10.4979 292.472 10.6247L292.999 12.4916ZM293.782 12.3642C294.593 12.3642 294.995 12.5624 295.196 12.7674L296.58 11.4082C295.874 10.6884 294.871 10.4242 293.782 10.4242V12.3642ZM295.196 12.7674C295.422 12.9973 295.599 13.3783 295.599 14.0549H297.539C297.539 13.0335 297.262 12.103 296.58 11.4082L295.196 12.7674ZM295.599 14.0549C295.599 14.6464 295.426 15.045 295.133 15.342L296.517 16.7022C297.217 15.9905 297.539 15.0776 297.539 14.0549H295.599ZM295.139 15.3362C294.899 15.5769 294.425 15.7961 293.505 15.7961V17.7361C294.686 17.7361 295.76 17.4593 296.511 16.708L295.139 15.3362ZM293.518 16.7021C294.266 16.7021 295.006 16.5205 295.556 15.9862L294.203 14.5952C294.147 14.6494 293.98 14.7621 293.518 14.7621V16.7021ZM295.556 15.9862C296.079 15.4774 296.303 14.8137 296.303 14.1054H294.363C294.363 14.389 294.285 14.5156 294.203 14.5952L295.556 15.9862ZM296.303 14.1054C296.303 13.4351 296.14 12.7721 295.682 12.2531L294.228 13.5366C294.274 13.5892 294.363 13.7333 294.363 14.1054H296.303ZM295.702 12.276C295.173 11.6374 294.333 11.4835 293.581 11.4835V13.4235C293.853 13.4235 294.028 13.4541 294.132 13.4874C294.23 13.519 294.231 13.5418 294.208 13.5137L295.702 12.276ZM293.581 11.4835C293.129 11.4835 292.686 11.563 292.257 11.7171L292.912 13.543C293.139 13.4617 293.36 13.4235 293.581 13.4235V11.4835ZM292.27 11.7122C291.865 11.8508 291.491 12.0417 291.153 12.2892L292.301 13.8536C292.467 13.7311 292.664 13.6278 292.898 13.5478L292.27 11.7122ZM290.757 13.0714V13.9415H292.697V13.0714H290.757ZM290.757 13.9415C290.757 14.6879 290.944 15.4258 291.489 15.9703C292.033 16.5148 292.771 16.7021 293.518 16.7021V14.7621C293.07 14.7621 292.913 14.6509 292.86 14.5985C292.808 14.5462 292.697 14.3888 292.697 13.9415H290.757ZM298.098 11.6086L297.368 12.2474L297.376 12.2571L297.385 12.2665L298.098 11.6086ZM298.098 8.92268L297.362 8.29141L297.36 8.29289L298.098 8.92268ZM300.784 8.92268L300.039 9.5437L300.046 9.55246L300.784 8.92268ZM300.784 11.6086L301.506 12.2565L301.514 12.2474L300.784 11.6086ZM298.892 16.64L298.035 16.1861L297.281 17.61H298.892V16.64ZM303.192 8.51916V7.54916H302.608L302.335 8.06525L303.192 8.51916ZM304.479 8.51916L305.336 8.97307L306.09 7.54916H304.479V8.51916ZM300.179 16.64V17.61H300.763L301.036 17.0939L300.179 16.64ZM300.153 11.0159L300.892 11.6442V11.6442L300.153 11.0159ZM300.141 9.50274L299.387 10.1131L299.403 10.1328L299.42 10.1516L300.141 9.50274ZM298.741 9.50274L298.005 8.87147L298.002 8.87452L298.741 9.50274ZM298.741 11.0159L298.002 11.6442L298.002 11.6442L298.741 11.0159ZM302.612 16.2743L301.882 16.9131L301.891 16.9228L301.9 16.9322L302.612 16.2743ZM302.612 13.5884L301.876 12.9571L301.875 12.9586L302.612 13.5884ZM305.298 13.5884L304.553 14.2094L304.561 14.2182L305.298 13.5884ZM305.298 16.2743L306.02 16.9222L306.028 16.9131L305.298 16.2743ZM304.668 15.6816L303.929 15.0534L304.668 15.6816ZM304.655 14.1684L303.901 14.7788L303.917 14.7985L303.934 14.8173L304.655 14.1684ZM303.255 14.1684L302.519 13.5372L302.516 13.5402L303.255 14.1684ZM303.255 15.6816L303.995 15.0534V15.0534L303.255 15.6816ZM299.447 11.1304C299.026 11.1304 298.874 11.0188 298.811 10.9507L297.385 12.2665C297.928 12.8541 298.675 13.0704 299.447 13.0704V11.1304ZM298.828 10.9699C298.711 10.8363 298.627 10.6498 298.627 10.335H296.687C296.687 11.0459 296.896 11.7083 297.368 12.2474L298.828 10.9699ZM298.627 10.335C298.627 9.89478 298.733 9.67231 298.836 9.55246L297.36 8.29289C296.874 8.86239 296.687 9.58147 296.687 10.335H298.627ZM298.834 9.55395C298.903 9.47366 299.047 9.36306 299.447 9.36306V7.42306C298.653 7.42306 297.898 7.66554 297.362 8.29141L298.834 9.55395ZM299.447 9.36306C299.849 9.36306 299.981 9.47405 300.039 9.54366L301.529 8.3017C300.999 7.66515 300.24 7.42306 299.447 7.42306V9.36306ZM300.046 9.55246C300.148 9.67231 300.255 9.89478 300.255 10.335H302.195C302.195 9.58147 302.008 8.86239 301.522 8.29289L300.046 9.55246ZM300.255 10.335C300.255 10.6498 300.171 10.8363 300.054 10.9699L301.514 12.2474C301.986 11.7083 302.195 11.0459 302.195 10.335H300.255ZM300.062 10.9607C300.01 11.0182 299.871 11.1304 299.447 11.1304V13.0704C300.217 13.0704 300.969 12.8547 301.506 12.2565L300.062 10.9607ZM299.75 17.0939L304.05 8.97307L302.335 8.06525L298.035 16.1861L299.75 17.0939ZM303.192 9.48916H304.479V7.54916H303.192V9.48916ZM303.621 8.06525L299.321 16.1861L301.036 17.0939L305.336 8.97307L303.621 8.06525ZM300.179 15.67H298.892V17.61H300.179V15.67ZM299.447 12.2381C299.919 12.2381 300.49 12.1173 300.892 11.6442L299.414 10.3877C299.439 10.359 299.465 10.3361 299.491 10.3192C299.516 10.3026 299.535 10.2946 299.543 10.2916C299.552 10.2887 299.549 10.2905 299.533 10.293C299.516 10.2955 299.488 10.2981 299.447 10.2981V12.2381ZM300.892 11.6442C301.232 11.245 301.338 10.7572 301.338 10.3098H299.398C299.398 10.3867 299.388 10.4234 299.386 10.4315C299.384 10.4366 299.39 10.416 299.414 10.3877L300.892 11.6442ZM301.338 10.3098C301.338 9.8432 301.249 9.28353 300.862 8.85384L299.42 10.1516C299.375 10.102 299.37 10.069 299.377 10.0932C299.385 10.1198 299.398 10.1868 299.398 10.3098H301.338ZM300.895 8.89242C300.501 8.40646 299.935 8.26793 299.447 8.26793V10.2079C299.521 10.2079 299.536 10.2187 299.514 10.2103C299.502 10.2057 299.481 10.1961 299.457 10.1786C299.432 10.1608 299.408 10.1386 299.387 10.1131L300.895 8.89242ZM299.447 8.26793C298.956 8.26793 298.402 8.40798 298.005 8.87147L299.478 10.134C299.46 10.1547 299.439 10.1728 299.418 10.1872C299.398 10.2014 299.381 10.209 299.372 10.2124C299.355 10.2185 299.374 10.2079 299.447 10.2079V8.26793ZM298.002 8.87452C297.638 9.30289 297.557 9.85322 297.557 10.3098H299.497C299.497 10.1832 299.509 10.1113 299.518 10.0796C299.526 10.0493 299.523 10.0801 299.48 10.131L298.002 8.87452ZM297.557 10.3098C297.557 10.7572 297.663 11.245 298.002 11.6442L299.48 10.3877C299.504 10.416 299.51 10.4366 299.508 10.4315C299.506 10.4234 299.497 10.3867 299.497 10.3098H297.557ZM298.002 11.6442C298.404 12.1173 298.976 12.2381 299.447 12.2381V10.2981C299.406 10.2981 299.378 10.2955 299.362 10.293C299.345 10.2905 299.343 10.2887 299.351 10.2916C299.36 10.2946 299.379 10.3026 299.404 10.3192C299.429 10.3361 299.456 10.359 299.48 10.3877L298.002 11.6442ZM303.962 15.7961C303.54 15.7961 303.388 15.6845 303.325 15.6164L301.9 16.9322C302.442 17.5198 303.19 17.7361 303.962 17.7361V15.7961ZM303.342 15.6356C303.226 15.502 303.141 15.3155 303.141 15.0007H301.201C301.201 15.7116 301.411 16.374 301.882 16.9131L303.342 15.6356ZM303.141 15.0007C303.141 14.5605 303.248 14.338 303.35 14.2182L301.875 12.9586C301.388 13.5281 301.201 14.2472 301.201 15.0007H303.141ZM303.349 14.2196C303.418 14.1394 303.562 14.0288 303.962 14.0288V12.0888C303.168 12.0888 302.412 12.3312 301.876 12.9571L303.349 14.2196ZM303.962 14.0288C304.363 14.0288 304.495 14.1397 304.553 14.2094L306.043 12.9674C305.513 12.3308 304.754 12.0888 303.962 12.0888V14.0288ZM304.561 14.2182C304.663 14.338 304.77 14.5605 304.77 15.0007H306.71C306.71 14.2472 306.522 13.5281 306.036 12.9586L304.561 14.2182ZM304.77 15.0007C304.77 15.3155 304.685 15.502 304.568 15.6356L306.028 16.9131C306.5 16.374 306.71 15.7116 306.71 15.0007H304.77ZM304.576 15.6264C304.525 15.6839 304.385 15.7961 303.962 15.7961V17.7361C304.732 17.7361 305.483 17.5205 306.02 16.9222L304.576 15.6264ZM303.962 16.9038C304.433 16.9038 305.005 16.783 305.407 16.3099L303.929 15.0534C303.953 15.0247 303.98 15.0018 304.005 14.9849C304.03 14.9683 304.049 14.9603 304.058 14.9573C304.066 14.9544 304.063 14.9562 304.047 14.9587C304.03 14.9612 304.003 14.9638 303.962 14.9638V16.9038ZM305.407 16.3099C305.746 15.9107 305.852 15.4229 305.852 14.9755H303.912C303.912 15.0524 303.903 15.0891 303.9 15.0972C303.899 15.1023 303.905 15.0817 303.929 15.0534L305.407 16.3099ZM305.852 14.9755C305.852 14.5089 305.763 13.9492 305.376 13.5195L303.934 14.8173C303.89 14.7677 303.885 14.7347 303.892 14.7589C303.899 14.7855 303.912 14.8525 303.912 14.9755H305.852ZM305.409 13.5581C305.016 13.0722 304.449 12.9336 303.962 12.9336V14.8736C304.036 14.8736 304.05 14.8844 304.029 14.876C304.016 14.8714 303.996 14.8618 303.971 14.8443C303.946 14.8265 303.922 14.8043 303.901 14.7788L305.409 13.5581ZM303.962 12.9336C303.47 12.9336 302.916 13.0737 302.519 13.5372L303.992 14.7997C303.974 14.8204 303.954 14.8385 303.933 14.8529C303.912 14.8671 303.895 14.8747 303.886 14.8781C303.87 14.8842 303.888 14.8736 303.962 14.8736V12.9336ZM302.516 13.5402C302.152 13.9686 302.071 14.5189 302.071 14.9755H304.011C304.011 14.8489 304.024 14.777 304.032 14.7453C304.04 14.715 304.038 14.7458 303.995 14.7967L302.516 13.5402ZM302.071 14.9755C302.071 15.4229 302.177 15.9107 302.516 16.3099L303.995 15.0534C304.019 15.0817 304.024 15.1023 304.023 15.0972C304.02 15.0891 304.011 15.0524 304.011 14.9755H302.071ZM302.516 16.3099C302.919 16.783 303.49 16.9038 303.962 16.9038V14.9638C303.921 14.9638 303.893 14.9612 303.876 14.9587C303.86 14.9562 303.857 14.9544 303.865 14.9573C303.874 14.9603 303.893 14.9683 303.918 14.9849C303.943 15.0018 303.97 15.0247 303.995 15.0534L302.516 16.3099Z" fill="black" mask="url(#path-31-inside-2_1_124)"/>
<defs>
<linearGradient id="paint0_linear_1_124" x1="32.1719" y1="1.82811" x2="32.1719" y2="165.6" gradientUnits="userSpaceOnUse">
<stop offset="0.05" stop-color="#ED4B9E"/>
<stop offset="1" stop-color="#ED4B9E" stop-opacity="0.2"/>
</linearGradient>
<linearGradient id="paint1_linear_1_124" x1="160.858" y1="0.699997" x2="160.858" y2="165.6" gradientUnits="userSpaceOnUse">
<stop offset="0.05" stop-color="#31D0AA"/>
<stop offset="1" stop-color="#31D0AA" stop-opacity="0.2"/>
</linearGradient>
<linearGradient id="paint2_linear_1_124" x1="138.938" y1="16490.7" x2="10854.4" y2="16490.7" gradientUnits="userSpaceOnUse">
<stop stop-color="#723AE4"/>
<stop offset="1" stop-color="#723AE4"/>
</linearGradient>
</defs>
</svg>
