<svg width="30" height="31" viewBox="0 0 30 31" fill="none" xmlns="http://www.w3.org/2000/svg">
<path d="M15 3.66371C19.005 3.66371 19.48 3.67871 21.0625 3.75121C25.1275 3.93621 27.0262 5.86496 27.2112 9.89996C27.2837 11.4812 27.2975 11.9562 27.2975 15.9612C27.2975 19.9675 27.2825 20.4412 27.2112 22.0225C27.025 26.0537 25.1313 27.9862 21.0625 28.1712C19.48 28.2437 19.0075 28.2587 15 28.2587C10.995 28.2587 10.52 28.2437 8.93875 28.1712C4.86375 27.985 2.975 26.0475 2.79 22.0212C2.7175 20.44 2.7025 19.9662 2.7025 15.96C2.7025 11.955 2.71875 11.4812 2.79 9.89871C2.97625 5.86496 4.87 3.93496 8.93875 3.74996C10.5212 3.67871 10.995 3.66371 15 3.66371ZM15 0.959961C10.9262 0.959961 10.4163 0.977461 8.81625 1.04996C3.36875 1.29996 0.34125 4.32246 0.09125 9.77496C0.0175 11.3762 0 11.8862 0 15.96C0 20.0337 0.0175 20.545 0.09 22.145C0.34 27.5925 3.3625 30.62 8.815 30.87C10.4163 30.9425 10.9262 30.96 15 30.96C19.0737 30.96 19.585 30.9425 21.185 30.87C26.6275 30.62 29.6625 27.5975 29.9088 22.145C29.9825 20.545 30 20.0337 30 15.96C30 11.8862 29.9825 11.3762 29.91 9.77621C29.665 4.33371 26.6388 1.30121 21.1862 1.05121C19.585 0.977461 19.0737 0.959961 15 0.959961ZM15 8.25746C10.7463 8.25746 7.2975 11.7062 7.2975 15.96C7.2975 20.2137 10.7463 23.6637 15 23.6637C19.2537 23.6637 22.7025 20.215 22.7025 15.96C22.7025 11.7062 19.2537 8.25746 15 8.25746ZM15 20.96C12.2387 20.96 10 18.7225 10 15.96C10 13.1987 12.2387 10.96 15 10.96C17.7612 10.96 20 13.1987 20 15.96C20 18.7225 17.7612 20.96 15 20.96ZM23.0075 6.15371C22.0125 6.15371 21.2062 6.95996 21.2062 7.95371C21.2062 8.94746 22.0125 9.75371 23.0075 9.75371C24.0012 9.75371 24.8062 8.94746 24.8062 7.95371C24.8062 6.95996 24.0012 6.15371 23.0075 6.15371Z" fill="white"/>
</svg>
