<svg width="25" height="26" viewBox="0 0 25 26" fill="none" xmlns="http://www.w3.org/2000/svg">
<path d="M12.5049 3.19031C15.809 3.19031 16.2009 3.20268 17.5064 3.2625C20.8601 3.41512 22.4265 5.00634 22.5791 8.33522C22.6389 9.63974 22.6503 10.0316 22.6503 13.3357C22.6503 16.6409 22.6379 17.0317 22.5791 18.3363C22.4255 21.6621 20.8632 23.2564 17.5064 23.409C16.2009 23.4688 15.8111 23.4812 12.5049 23.4812C9.20076 23.4812 8.80888 23.4688 7.50435 23.409C4.14248 23.2554 2.58426 21.6569 2.43163 18.3352C2.37182 17.0307 2.35945 16.6399 2.35945 13.3347C2.35945 10.0306 2.37285 9.63974 2.43163 8.33418C2.58529 5.00634 4.14763 3.41409 7.50435 3.26147C8.80987 3.20268 9.20076 3.19031 12.5049 3.19031ZM12.5049 0.959717C9.144 0.959717 8.72333 0.974154 7.40329 1.03397C2.9091 1.24022 0.411414 3.73378 0.205164 8.23209C0.14432 9.55311 0.129883 9.97386 0.129883 13.3347C0.129883 16.6956 0.14432 17.1174 0.204133 18.4374C0.410383 22.9316 2.90394 25.4292 7.40226 25.6355C8.72333 25.6953 9.144 25.7097 12.5049 25.7097C15.8657 25.7097 16.2875 25.6953 17.6075 25.6355C22.0976 25.4292 24.6014 22.9357 24.8046 18.4374C24.8654 17.1174 24.8799 16.6956 24.8799 13.3347C24.8799 9.97386 24.8654 9.55311 24.8056 8.23312C24.6035 3.74306 22.1069 1.24125 17.6085 1.035C16.2875 0.974154 15.8657 0.959717 12.5049 0.959717ZM12.5049 6.98015C8.99558 6.98015 6.15032 9.82536 6.15032 13.3347C6.15032 16.8441 8.99558 19.6903 12.5049 19.6903C16.0142 19.6903 18.8594 16.8451 18.8594 13.3347C18.8594 9.82536 16.0142 6.98015 12.5049 6.98015ZM12.5049 17.4597C10.2268 17.4597 8.37988 15.6138 8.37988 13.3347C8.37988 11.0567 10.2268 9.20975 12.5049 9.20975C14.7829 9.20975 16.6299 11.0567 16.6299 13.3347C16.6299 15.6138 14.7829 17.4597 12.5049 17.4597ZM19.1111 5.24456C18.2902 5.24456 17.625 5.90972 17.625 6.72956C17.625 7.5494 18.2902 8.21456 19.1111 8.21456C19.9309 8.21456 20.595 7.5494 20.595 6.72956C20.595 5.90972 19.9309 5.24456 19.1111 5.24456Z" fill="#0D0D0D"/>
</svg>
