<svg width="25" height="26" viewBox="0 0 25 26" fill="none" xmlns="http://www.w3.org/2000/svg">
<path d="M19.7237 0.548096H5.28613C2.43885 0.548096 0.129883 2.85706 0.129883 5.70434V20.1418C0.129883 22.9891 2.43885 25.2981 5.28613 25.2981H19.7237C22.5719 25.2981 24.8799 22.9891 24.8799 20.1418V5.70434C24.8799 2.85706 22.5719 0.548096 19.7237 0.548096ZM8.37986 20.1418H5.28613V8.7981H8.37986V20.1418ZM6.83301 7.49047C5.83682 7.49047 5.02832 6.67578 5.02832 5.67134C5.02832 4.66691 5.83682 3.85222 6.83301 3.85222C7.82919 3.85222 8.63766 4.66691 8.63766 5.67134C8.63766 6.67578 7.83022 7.49047 6.83301 7.49047ZM20.7549 20.1418H17.6611V14.3627C17.6611 10.8895 13.5362 11.1525 13.5362 14.3627V20.1418H10.4424V8.7981H13.5362V10.6183C14.9757 7.95144 20.7549 7.75447 20.7549 13.1717V20.1418Z" fill="#0D0D0D"/>
</svg>
