<svg width="31" height="32" viewBox="0 0 31 32" fill="none" xmlns="http://www.w3.org/2000/svg">
<path d="M24.5417 0.459961H6.45833C2.89204 0.459961 0 3.352 0 6.91829V25.0016C0 28.5679 2.89204 31.46 6.45833 31.46H24.5417C28.1092 31.46 31 28.5679 31 25.0016V6.91829C31 3.352 28.1092 0.459961 24.5417 0.459961ZM10.3333 25.0016H6.45833V10.7933H10.3333V25.0016ZM8.39583 9.15546C7.14808 9.15546 6.13542 8.13504 6.13542 6.87696C6.13542 5.61888 7.14808 4.59846 8.39583 4.59846C9.64358 4.59846 10.6562 5.61888 10.6562 6.87696C10.6562 8.13504 9.64487 9.15546 8.39583 9.15546ZM25.8333 25.0016H21.9583V17.7631C21.9583 13.4128 16.7917 13.7422 16.7917 17.7631V25.0016H12.9167V10.7933H16.7917V13.0731C18.5948 9.73284 25.8333 9.48613 25.8333 16.2713V25.0016Z" fill="white"/>
</svg>
