<svg width="20" height="20" viewBox="0 0 20 20" fill="none" xmlns="http://www.w3.org/2000/svg">
<path d="M17.4299 10.98C17.4699 10.66 17.4999 10.34 17.4999 10C17.4999 9.66 17.4699 9.34 17.4299 9.02L19.5399 7.37C19.7299 7.22 19.7799 6.95 19.6599 6.73L17.6599 3.27C17.5399 3.05 17.2699 2.97 17.0499 3.05L14.5599 4.05C14.0399 3.65 13.4799 3.32 12.8699 3.07L12.4899 0.42C12.4599 0.18 12.2499 0 11.9999 0H7.99984C7.74984 0 7.53984 0.18 7.50984 0.42L7.12984 3.07C6.51984 3.32 5.95984 3.66 5.43984 4.05L2.94984 3.05C2.71984 2.96 2.45984 3.05 2.33984 3.27L0.339839 6.73C0.209839 6.95 0.269839 7.22 0.459839 7.37L2.56984 9.02C2.52984 9.34 2.49984 9.67 2.49984 10C2.49984 10.33 2.52984 10.66 2.56984 10.98L0.459839 12.63C0.269839 12.78 0.219839 13.05 0.339839 13.27L2.33984 16.73C2.45984 16.95 2.72984 17.03 2.94984 16.95L5.43984 15.95C5.95984 16.35 6.51984 16.68 7.12984 16.93L7.50984 19.58C7.53984 19.82 7.74984 20 7.99984 20H11.9999C12.2499 20 12.4599 19.82 12.4899 19.58L12.8699 16.93C13.4799 16.68 14.0399 16.34 14.5599 15.95L17.0499 16.95C17.2799 17.04 17.5399 16.95 17.6599 16.73L19.6599 13.27C19.7799 13.05 19.7299 12.78 19.5399 12.63L17.4299 10.98ZM9.99988 13.5C8.06988 13.5 6.49984 11.93 6.49984 10C6.49984 8.07 8.06988 6.5 9.99988 6.5C11.9299 6.5 13.4999 8.07 13.4999 10C13.4999 11.93 11.9299 13.5 9.99988 13.5Z" fill="#00FFFF"/>
</svg>
