<svg width="22" height="23" viewBox="0 0 22 23" fill="none" xmlns="http://www.w3.org/2000/svg">
<path d="M21.673 14.1548C20.2052 20.0441 14.2404 23.6403 8.34029 22.1716C2.45101 20.6993 -1.1394 14.7344 0.328427 8.84515C1.79625 2.95589 7.75748 -0.640298 13.6432 0.828417C19.5468 2.27913 23.1372 8.26199 21.673 14.1548Z" fill="#000008"/>
<path d="M17.8024 14.8957L15.5325 17.2672C15.4832 17.3187 15.4235 17.3598 15.3571 17.3879C15.2908 17.416 15.2192 17.4304 15.1469 17.4304H4.38668C4.33534 17.4304 4.28512 17.4158 4.24218 17.3884C4.19925 17.3609 4.16547 17.3219 4.14501 17.276C4.12454 17.2301 4.11828 17.1794 4.12699 17.1301C4.13569 17.0808 4.15899 17.0351 4.19402 16.9985L6.46558 14.627C6.5148 14.5756 6.5743 14.5347 6.64043 14.5066C6.70656 14.4785 6.7779 14.464 6.85004 14.4639H17.6097C17.661 14.4639 17.7112 14.4785 17.7542 14.5059C17.7971 14.5333 17.8308 14.5724 17.8514 14.6183C17.8718 14.6641 17.8781 14.7148 17.8694 14.7641C17.8606 14.8134 17.8374 14.8592 17.8024 14.8957ZM15.5325 10.1202C15.4832 10.0687 15.4235 10.0276 15.3571 9.99953C15.2908 9.97147 15.2192 9.957 15.1469 9.95704H4.38668C4.33534 9.95704 4.28512 9.97164 4.24218 9.99908C4.19925 10.0265 4.16547 10.0656 4.14501 10.1114C4.12454 10.1573 4.11828 10.208 4.12699 10.2573C4.13569 10.3066 4.15899 10.3523 4.19402 10.3889L6.46558 12.7604C6.5148 12.8118 6.5743 12.8528 6.64043 12.8808C6.70656 12.9089 6.7779 12.9234 6.85004 12.9236H17.6097C17.661 12.9236 17.7112 12.9089 17.7542 12.8815C17.7971 12.8541 17.8308 12.815 17.8514 12.7692C17.8718 12.7233 17.8781 12.6726 17.8694 12.6233C17.8606 12.574 17.8374 12.5283 17.8024 12.4917L15.5325 10.1202ZM4.38668 8.41672H15.1469C15.2192 8.41675 15.2908 8.40229 15.3571 8.37422C15.4235 8.34615 15.4832 8.30508 15.5325 8.25356L17.8024 5.88205C17.8374 5.84548 17.8606 5.79974 17.8694 5.75045C17.8781 5.70116 17.8718 5.65046 17.8514 5.60459C17.8308 5.55872 17.7971 5.51967 17.7542 5.49224C17.7112 5.46481 17.661 5.4502 17.6097 5.4502H6.85004C6.7779 5.45031 6.70656 5.46486 6.64043 5.49292C6.5743 5.52099 6.5148 5.56198 6.46558 5.61335L4.1946 7.98486C4.15961 8.02139 4.13632 8.06709 4.1276 8.11632C4.11887 8.16556 4.12508 8.21622 4.14548 8.26207C4.16587 8.30792 4.19955 8.34697 4.2424 8.37444C4.28525 8.40191 4.33539 8.4166 4.38668 8.41672Z" fill="url(#paint0_linear_177_804)"/>
<defs>
<linearGradient id="paint0_linear_177_804" x1="5.28383" y1="17.7159" x2="16.2386" y2="5.03957" gradientUnits="userSpaceOnUse">
<stop offset="0.08" stop-color="#9945FF"/>
<stop offset="0.3" stop-color="#8752F3"/>
<stop offset="0.5" stop-color="#5497D5"/>
<stop offset="0.6" stop-color="#43B4CA"/>
<stop offset="0.72" stop-color="#28E0B9"/>
<stop offset="0.97" stop-color="#19FB9B"/>
</linearGradient>
</defs>
</svg>
