<svg width="33" height="34" viewBox="0 0 33 34" fill="none" xmlns="http://www.w3.org/2000/svg">
<path d="M29.2888 4.41112C28.9674 4.42522 28.6545 4.51469 28.3723 4.62768C28.093 4.73992 26.4851 5.42621 24.1106 6.4414C21.7362 7.45658 18.6496 8.77857 15.5899 10.0894C9.4706 12.7112 3.45729 15.2908 3.45729 15.2908L3.50111 15.2741C3.50111 15.2741 3.13818 15.3954 2.77022 15.6517C2.58623 15.7799 2.3883 15.9454 2.22623 16.1867C2.06416 16.428 1.94568 16.7699 1.99033 17.1316C2.14716 18.4019 3.46373 18.7623 3.46373 18.7623L3.46889 18.7648L9.34443 20.7758C9.49424 21.2755 11.1265 26.7235 11.4856 27.8772C11.6839 28.5151 11.8695 28.883 12.0631 29.1341C12.1599 29.2597 12.2615 29.3569 12.3737 29.428C12.4183 29.4562 12.4652 29.4774 12.5117 29.4963H12.5142C12.5199 29.4988 12.5253 29.499 12.531 29.5014L12.5155 29.4976C12.5263 29.5019 12.537 29.5093 12.5478 29.513C12.5687 29.5204 12.5815 29.5201 12.6083 29.5259C13.2812 29.7609 13.8381 29.3248 13.8381 29.3248L13.8613 29.3068L17.4707 25.9591L23.3282 30.5262L23.4017 30.5598C24.4269 31.015 25.3542 30.761 25.8676 30.3432C26.3811 29.9254 26.5831 29.3867 26.5831 29.3867L26.605 29.33L30.9092 6.89643C31.0193 6.39455 31.0349 5.96072 30.9311 5.5687C30.8272 5.17668 30.5748 4.8359 30.2582 4.64702C29.9415 4.45814 29.6103 4.39702 29.2888 4.41112ZM29.3236 5.75304C29.4542 5.74699 29.5509 5.76191 29.5814 5.78011C29.6119 5.7983 29.6256 5.7959 29.6549 5.90643C29.6842 6.01696 29.7 6.24977 29.6201 6.61413L29.6175 6.62186L25.3378 28.9252C25.3277 28.9477 25.2385 29.154 25.0349 29.3197C24.8272 29.4887 24.5962 29.6206 23.983 29.3635L17.5777 24.3684L17.3972 24.2266L17.3933 24.2305L15.4778 22.7932L26.2428 10.1281C26.3255 10.031 26.3783 9.9121 26.3948 9.78565C26.4114 9.6592 26.391 9.53066 26.336 9.41558C26.2811 9.30049 26.1939 9.20379 26.0852 9.13716C25.9765 9.07054 25.8507 9.03684 25.7233 9.04014C25.5987 9.04338 25.4776 9.08182 25.3739 9.151L9.7969 19.5357L3.91232 17.5209C3.91232 17.5209 3.32799 17.1957 3.30002 16.9692C3.29847 16.9566 3.29157 16.968 3.32193 16.9228C3.3523 16.8776 3.42862 16.8012 3.52432 16.7346C3.7157 16.6012 3.93424 16.5206 3.93424 16.5206L3.95615 16.5128L3.97807 16.5038C3.97807 16.5038 9.99169 13.9241 16.1107 11.3024C19.1702 9.99164 22.2563 8.67063 24.6301 7.65569C27.0034 6.64102 28.7182 5.91067 28.8634 5.85229C29.0287 5.7861 29.1931 5.75908 29.3236 5.75304ZM22.1848 12.8635L14.0212 22.4683L14.0173 22.4722C14.0045 22.4875 13.9925 22.5034 13.9812 22.5199C13.9682 22.5377 13.9562 22.5562 13.9451 22.5753C13.8992 22.6531 13.8698 22.7396 13.8587 22.8292C13.8587 22.831 13.8587 22.8327 13.8587 22.8344L12.7953 27.6168C12.7776 27.5652 12.7652 27.5463 12.7463 27.4853V27.4841C12.4085 26.3987 10.8685 21.2608 10.6554 20.5502L22.1848 12.8635ZM14.9428 24.0423L16.4098 25.1431L14.2545 27.1412L14.9428 24.0423Z" fill="white"/>
</svg>
