<svg width="23" height="21" viewBox="0 0 23 21" fill="none" xmlns="http://www.w3.org/2000/svg">
<path d="M21.0965 0.508536C20.8554 0.519111 20.6207 0.586213 20.4091 0.670956C20.1996 0.755136 18.9937 1.26985 17.2128 2.03125C15.432 2.79263 13.1171 3.78412 10.8223 4.76725C6.2328 6.7336 1.72282 8.6683 1.72282 8.6683L1.75569 8.65577C1.75569 8.65577 1.48349 8.74675 1.20752 8.93897C1.06953 9.03512 0.921079 9.15925 0.799527 9.34022C0.677974 9.5212 0.589114 9.77762 0.622602 10.0489C0.740224 11.0016 1.72765 11.2719 1.72765 11.2719L1.73152 11.2738L6.13818 12.782C6.25054 13.1568 7.47473 17.2428 7.74406 18.1081C7.89278 18.5865 8.03198 18.8624 8.17718 19.0508C8.24978 19.145 8.32598 19.2179 8.41013 19.2712C8.44358 19.2923 8.47875 19.3082 8.51363 19.3224H8.51551C8.51978 19.3243 8.52383 19.3244 8.52811 19.3262L8.51648 19.3234C8.52458 19.3266 8.53261 19.3322 8.54071 19.3349C8.55638 19.3405 8.56598 19.3403 8.58608 19.3446C9.09076 19.5209 9.50843 19.1938 9.50843 19.1938L9.52583 19.1803L12.2329 16.6695L16.626 20.0948L16.6811 20.12C17.45 20.4614 18.1455 20.2709 18.5306 19.9576C18.9157 19.6442 19.0672 19.2402 19.0672 19.2402L19.0836 19.1977L22.3118 2.37252C22.3943 1.99611 22.406 1.67074 22.3282 1.37672C22.2503 1.08271 22.061 0.827121 21.8235 0.685461C21.586 0.543801 21.3376 0.497961 21.0965 0.508536ZM21.1226 1.51498C21.2205 1.51044 21.293 1.52163 21.3159 1.53528C21.3388 1.54892 21.3491 1.54712 21.371 1.63002C21.393 1.71292 21.4049 1.88752 21.3449 2.16079L21.343 2.16659L18.1332 18.8941C18.1256 18.911 18.0587 19.0657 17.906 19.19C17.7503 19.3167 17.577 19.4156 17.1171 19.2228L12.3131 15.4765L12.1778 15.3701L12.1748 15.3731L10.7382 14.2951L18.812 4.79627C18.874 4.72345 18.9136 4.63427 18.926 4.53943C18.9384 4.4446 18.9231 4.34819 18.8819 4.26188C18.8407 4.17556 18.7753 4.10304 18.6938 4.05307C18.6122 4.0031 18.5179 3.97783 18.4223 3.9803C18.3289 3.98273 18.2381 4.01156 18.1603 4.06345L6.47753 11.852L2.06409 10.3409C2.06409 10.3409 1.62585 10.097 1.60487 9.9271C1.60371 9.91765 1.59853 9.9262 1.6213 9.8923C1.64408 9.8584 1.70132 9.8011 1.77309 9.75115C1.91663 9.6511 2.08053 9.59065 2.08053 9.59065L2.09697 9.5848L2.11341 9.57805C2.11341 9.57805 6.62362 7.64327 11.2129 5.677C13.5075 4.69393 15.8221 3.70317 17.6024 2.94196C19.3824 2.18096 20.6685 1.6332 20.7774 1.58941C20.9014 1.53977 21.0247 1.51951 21.1226 1.51498ZM15.7685 6.84782L9.64576 14.0514L9.64283 14.0543C9.63323 14.0658 9.62423 14.0777 9.61576 14.0901C9.60601 14.1035 9.597 14.1173 9.58868 14.1317C9.55426 14.19 9.5322 14.2549 9.52388 14.3221V14.326L8.72633 17.9128C8.71305 17.8741 8.70375 17.8599 8.68958 17.8142V17.8133C8.43623 16.9992 7.28123 13.1458 7.12141 12.6128L15.7685 6.84782ZM10.337 15.2319L11.4372 16.0575L9.82073 17.5561L10.337 15.2319Z" fill="#0D0D0D"/>
</svg>
