<?xml version="1.0" encoding="UTF-8"?>
<svg version="1.1" xmlns="http://www.w3.org/2000/svg" width="328" height="208">
<path d="M0 0 C108.24 0 216.48 0 328 0 C328 68.64 328 137.28 328 208 C219.76 208 111.52 208 0 208 C0 139.36 0 70.72 0 0 Z " fill="#FBFBFA" transform="translate(0,0)"/>
<path d="M0 0 C0 15.51 0 31.02 0 47 C-4.34150974 47.72358496 -8.40099055 48.23811398 -12.76660156 48.53735352 C-13.42570809 48.58334907 -14.08481462 48.62934462 -14.76389408 48.67673397 C-16.97262501 48.83018887 -19.18161592 48.97951291 -21.390625 49.12890625 C-22.99604616 49.23968133 -24.60144826 49.35073281 -26.20683289 49.46203613 C-29.70018674 49.70371213 -33.19365671 49.94360848 -36.68722534 50.18215942 C-42.34971495 50.56889221 -48.01191812 50.95970821 -53.67407227 51.35131836 C-55.66133083 51.4887287 -57.64858975 51.62613402 -59.635849 51.76353455 C-60.64059706 51.83300734 -61.64534512 51.90248013 -62.68054008 51.97405815 C-65.8155764 52.19068161 -68.95063918 52.4069186 -72.08570862 52.62306213 C-95.58291091 54.24362288 -119.07801296 55.8939977 -142.5730896 57.54504395 C-149.93843064 58.06262038 -157.30380756 58.57968493 -164.66918945 59.09667969 C-189.55511717 60.84363482 -214.44087291 62.59301767 -239.32632542 64.34672928 C-244.34765359 64.7005648 -249.36900924 65.05400819 -254.39038086 65.40722656 C-257.05061964 65.5943847 -259.71085685 65.78156517 -262.37109375 65.96875 C-263.62462143 66.05695007 -264.87814911 66.14515015 -266.16966248 66.23602295 C-273.22422577 66.73280635 -280.27855097 67.23280212 -287.33265686 67.73603821 C-291.4549262 68.02985164 -295.57731849 68.32191257 -299.69973755 68.61361694 C-301.52522101 68.74326827 -303.35064358 68.87378064 -305.17599487 69.00527954 C-307.58593004 69.17888868 -309.99605553 69.34956613 -312.40625 69.51953125 C-313.71916016 69.61339111 -315.03207031 69.70725098 -316.38476562 69.80395508 C-319.91858847 69.99558526 -323.46098516 70 -327 70 C-327 54.49 -327 38.98 -327 23 C-323.11081575 22.22216315 -319.63126291 21.7619504 -315.70263672 21.50683594 C-314.43534225 21.42276993 -313.16804779 21.33870392 -311.86235046 21.25209045 C-311.18394293 21.20867083 -310.50553539 21.1652512 -309.80657005 21.12051582 C-307.62770112 20.98104737 -305.4491287 20.83754159 -303.27058411 20.69309998 C-300.11965264 20.4846289 -296.96861429 20.27789729 -293.81747437 20.07260132 C-285.4441703 19.52677028 -277.07158593 18.97015733 -268.69921875 18.41015625 C-267.84366457 18.35299753 -266.98811039 18.29583881 -266.10663033 18.23694801 C-253.61484544 17.40043504 -241.12831719 16.50686899 -228.64453125 15.55859375 C-227.87744843 15.50045376 -227.1103656 15.44231377 -226.32003784 15.38241196 C-218.97625127 14.82538512 -211.63294674 14.26265513 -204.29063511 13.6864996 C-202.25066186 13.52709839 -200.21053641 13.36983093 -198.17033386 13.21339417 C-195.71258447 13.02461104 -193.25511948 12.83206275 -190.79804993 12.6346283 C-171.0682797 11.13114122 -171.0682797 11.13114122 -163 13 C-163 13.66 -163 14.32 -163 15 C-162.34 15 -161.68 15 -161 15 C-160.67 15.99 -160.34 16.98 -160 18 C-160.66 18 -161.32 18 -162 18 C-162 20.31 -162 22.62 -162 25 C-159.03 25 -156.06 25 -153 25 C-153 33.58 -153 42.16 -153 51 C-150.36 51 -147.72 51 -145 51 C-145 42.09 -145 33.18 -145 24 C-142.03 24 -139.06 24 -136 24 C-136 21.69 -136 19.38 -136 17 C-136.66 17 -137.32 17 -138 17 C-138 16.34 -138 15.68 -138 15 C-137.01 14.67 -136.02 14.34 -135 14 C-135 13.01 -135 12.02 -135 11 C-133.26780072 9.26780072 -130.97973192 9.78708239 -128.625 9.75 C-127.64789063 9.72421875 -126.67078125 9.6984375 -125.6640625 9.671875 C-123 10 -123 10 -121.2109375 11.328125 C-120 13 -120 13 -119 16 C-123.62 16.33 -128.24 16.66 -133 17 C-133 27.89 -133 38.78 -133 50 C-130.36 50 -127.72 50 -125 50 C-125 45.71 -125 41.42 -125 37 C-121 38 -121 38 -119.578125 40.06640625 C-119.13984375 40.89011719 -118.7015625 41.71382812 -118.25 42.5625 C-116.25368842 45.9889774 -116.25368842 45.9889774 -112.8359375 47.59375 C-110.37783212 47.61036806 -110.37783212 47.61036806 -107 47 C-107.99 45.63875 -107.99 45.63875 -109 44.25 C-111 41 -111 41 -111 37 C-110.34 37 -109.68 37 -109 37 C-109.33 35.35 -109.66 33.7 -110 32 C-107.03 31.34 -104.06 30.68 -101 30 C-101 30.66 -101 31.32 -101 32 C-100.34 32 -99.68 32 -99 32 C-99.65690619 35.78239671 -100.720131 39.21841526 -102.0625 42.8125 C-102.42472656 43.78832031 -102.78695312 44.76414063 -103.16015625 45.76953125 C-103.43730469 46.50558594 -103.71445313 47.24164063 -104 48 C-101.36 47.67 -98.72 47.34 -96 47 C-95.34 44.69 -94.68 42.38 -94 40 C-89.71 39.67 -85.42 39.34 -81 39 C-80.01 41.97 -80.01 41.97 -79 45 C-76.36 45.33 -73.72 45.66 -71 46 C-71.33322266 45.20827393 -71.66644531 44.41654785 -72.00976562 43.60083008 C-73.24684394 40.64979273 -74.47590871 37.69558025 -75.69970703 34.73901367 C-76.23006591 33.46230168 -76.76355981 32.18688716 -77.30029297 30.9128418 C-78.07310069 29.07688578 -78.83356816 27.23575091 -79.59375 25.39453125 C-80.28500977 23.73707886 -80.28500977 23.73707886 -80.99023438 22.04614258 C-82.8635841 16.39484071 -81.84686534 11.54059603 -80 6 C-71.34070273 4.37608742 -62.77237469 3.48313547 -53.984375 2.9296875 C-52.68856506 2.84373322 -51.39275513 2.75777893 -50.05767822 2.66921997 C-47.33848254 2.48916786 -44.61907326 2.31304371 -41.89941406 2.14013672 C-38.43399768 1.91971793 -34.96913681 1.69167331 -31.50439072 1.46098137 C-28.1645832 1.23915355 -24.82448245 1.0219546 -21.484375 0.8046875 C-20.25088318 0.72346649 -19.01739136 0.64224548 -17.746521 0.55856323 C-16.58461243 0.48493561 -15.42270386 0.41130798 -14.22558594 0.33544922 C-12.70768463 0.23790848 -12.70768463 0.23790848 -11.15911865 0.13839722 C-7.44269097 -0.02441504 -3.71999228 0 0 0 Z " fill="#191D19" transform="translate(328,137)"/>
<path d="M0 0 C1.25031761 0.00424484 1.25031761 0.00424484 2.52589417 0.00857544 C5.16454985 0.01968961 7.80285473 0.04477735 10.44140625 0.0703125 C12.24022944 0.08035365 14.039058 0.08947751 15.83789062 0.09765625 C20.2266958 0.11960015 24.61524173 0.15406863 29.00390625 0.1953125 C29.07355093 13.19133528 29.12679101 26.18731333 29.15934277 39.18348503 C29.17496941 45.21874479 29.19615295 51.25387645 29.23022461 57.2890625 C29.26292492 63.11810686 29.28078183 68.94702834 29.28853798 74.77615738 C29.29406233 76.99519916 29.30484992 79.21423454 29.32109642 81.43322372 C29.34301235 84.55181942 29.34586724 87.66991337 29.34448242 90.78857422 C29.35526825 91.69704605 29.36605408 92.60551788 29.37716675 93.54151917 C29.32963762 103.49425797 26.69299089 112.65567615 20.00390625 120.1953125 C17.15807075 122.50261315 14.20520401 124.42004738 11.00390625 126.1953125 C10.37742187 126.55753906 9.7509375 126.91976562 9.10546875 127.29296875 C0.94003666 130.79894424 -11.69544259 130.64389732 -20.18359375 128.32421875 C-27.83720409 124.76575663 -32.79303738 118.95008056 -35.99609375 111.1953125 C-37.08355399 106.95646575 -37.15672421 102.79210979 -37.1730957 98.44262695 C-37.1796669 97.6776741 -37.1862381 96.91272125 -37.19300842 96.12458801 C-37.21265626 93.60258876 -37.22438584 91.08064887 -37.234375 88.55859375 C-37.23845053 87.69305563 -37.24252605 86.82751751 -37.24672508 85.93575096 C-37.26755099 81.35308449 -37.28186691 76.77044763 -37.29125977 72.18774414 C-37.3023084 67.47484222 -37.33670036 62.76241446 -37.37643147 58.04967976 C-37.40268178 54.40776238 -37.4109591 50.76595651 -37.41454124 47.12395287 C-37.41938657 45.38775625 -37.4309414 43.65156392 -37.44957924 41.91546059 C-37.58794197 28.17137057 -36.1725899 18.587697 -26.36328125 8.328125 C-18.86589234 1.57305182 -9.79711106 -0.12719734 0 0 Z " fill="#1C1F1B" transform="translate(298.99609375,-0.1953125)"/>
<path d="M0 0 C7.88423352 4.16525544 11.72526334 9.98153394 14.6875 18.25 C15.40561826 22.68559096 15.39512091 26.96923967 15.2734375 31.453125 C15.26494781 32.6569281 15.25645813 33.8607312 15.24771118 35.10101318 C15.21443963 38.90163165 15.13920361 42.70003562 15.0625 46.5 C15.03236678 49.09502119 15.00499692 51.69007603 14.98046875 54.28515625 C14.9147344 60.60751139 14.81465078 66.92859743 14.6875 73.25 C11.82167664 73.57087569 8.95578218 73.89109259 6.08984375 74.2109375 C5.28526733 74.30109131 4.48069092 74.39124512 3.6517334 74.48413086 C-6.37080583 75.60143098 -16.21990129 76.39561517 -26.3125 76.25 C-26.2314487 79.50100777 -26.11862351 82.75016335 -26 86 C-25.97744141 86.92039062 -25.95488281 87.84078125 -25.93164062 88.7890625 C-25.8784668 90.12324219 -25.8784668 90.12324219 -25.82421875 91.484375 C-25.78494263 92.70979004 -25.78494263 92.70979004 -25.74487305 93.95996094 C-25.20864529 96.80006051 -24.34216776 98.20211987 -22.3125 100.25 C-18.09260372 100.71887736 -15.60521531 100.94607748 -11.875 98.9375 C-8.95341225 95.78218523 -9.05945055 92.17377157 -8.75 88.0625 C-8.605625 86.144375 -8.46125 84.22625 -8.3125 82.25 C3.0725 81.26 3.0725 81.26 14.6875 80.25 C15.02565756 93.55086386 14.93047345 104.715432 5.6875 115.25 C-3.45459792 123.27122767 -13.77289887 124.93149923 -25.58984375 124.53515625 C-31.60798852 124.0741651 -35.40597605 122.89654341 -40.0625 118.875 C-40.805 118.00875 -41.5475 117.1425 -42.3125 116.25 C-43.01375 115.5075 -43.715 114.765 -44.4375 114 C-50.49967272 105.10881334 -49.7864861 95.02282789 -49.78125 84.73046875 C-49.78836474 83.02329767 -49.79606562 81.31612895 -49.80432129 79.60896301 C-49.81771955 76.04091741 -49.81935627 72.4730929 -49.81347656 68.9050293 C-49.80758932 64.36261934 -49.83815289 59.82128146 -49.87859344 55.27907848 C-49.90461366 51.75542113 -49.9073349 48.23201691 -49.90370178 44.70827675 C-49.90538013 43.03514224 -49.91489689 41.36199438 -49.93284607 39.68895531 C-50.04819047 27.6086396 -49.08177319 17.25268712 -40.625 7.8125 C-30.27899617 -1.62872022 -13.22492317 -5.72556097 0 0 Z " fill="#181C19" transform="translate(127.3125,15.75)"/>
<path d="M0 0 C0 41.91 0 83.82 0 127 C-7.92 127.33 -15.84 127.66 -24 128 C-24 113.15 -24 98.3 -24 83 C-29.94 83.33 -35.88 83.66 -42 84 C-42 98.85 -42 113.7 -42 129 C-48 130 -48 130 -65 130 C-65 88.75 -65 47.5 -65 5 C-47 3 -47 3 -42 3 C-42 22.14 -42 41.28 -42 61 C-35.73 60.67 -29.46 60.34 -23 60 C-23 40.86 -23 21.72 -23 2 C-7 0 -7 0 0 0 Z " fill="#1A1E1B" transform="translate(67,17)"/>
<path d="M0 0 C0 7.92 0 15.84 0 24 C-89.43 24 -178.86 24 -271 24 C-271.33 22.68 -271.66 21.36 -272 20 C-265.79525448 18.24352953 -259.90986063 17.52935725 -253.484375 17.140625 C-252.43872375 17.07112137 -251.39307251 17.00161774 -250.31573486 16.93000793 C-248.017173 16.77793246 -245.71839247 16.62913563 -243.41943359 16.48318481 C-237.61721056 16.1144657 -231.81633849 15.72544881 -226.01530457 15.33856392 C-223.88837805 15.19698909 -221.76139303 15.05631895 -219.63439941 14.91575623 C-208.44630326 14.17443903 -197.26179594 13.38717315 -186.078125 12.58203125 C-184.79820868 12.48991269 -184.79820868 12.48991269 -183.49243546 12.39593315 C-179.10912355 12.08030155 -174.72584979 11.76414334 -170.34259033 11.44778442 C-138.70775499 9.16535783 -107.06824404 6.96446494 -75.42194366 4.84713936 C-71.71096811 4.59883991 -68.00000851 4.35030316 -64.2890625 4.1015625 C-63.57975586 4.0540321 -62.87044922 4.00650169 -62.13964844 3.95753098 C-47.31886744 2.9633274 -32.50220426 1.91275406 -17.68896484 0.81176758 C-16.91783356 0.75522003 -16.14670227 0.69867249 -15.35220337 0.64041138 C-13.35544905 0.49393521 -11.35886748 0.34510899 -9.36230469 0.19604492 C-6.24614481 0.01435189 -3.12145234 0 0 0 Z " fill="#FCFCFC" transform="translate(328,184)"/>
<path d="M0 0 C0 34.32 0 68.64 0 104 C8.91 103.01 8.91 103.01 18 102 C19.98 102 21.96 102 24 102 C24 109.59 24 117.18 24 125 C17.96779927 125.42886573 11.93554261 125.85666555 5.90307617 126.28173828 C3.85159936 126.42661705 1.80016648 126.57211939 -0.2512207 126.71826172 C-3.20252286 126.9284053 -6.15397659 127.13629417 -9.10546875 127.34375 C-10.02023483 127.40937134 -10.93500092 127.47499268 -11.87748718 127.54260254 C-13.1682592 127.63269592 -13.1682592 127.63269592 -14.48510742 127.72460938 C-15.23789474 127.77790405 -15.99068207 127.83119873 -16.76628113 127.8861084 C-19.17469103 128.00890705 -21.58846153 128 -24 128 C-24 86.42 -24 44.84 -24 2 C-7 0 -7 0 0 0 Z " fill="#1A1E1B" transform="translate(234,5)"/>
<path d="M0 0 C0 33.99 0 67.98 0 103 C5.94 102.505 5.94 102.505 12 102 C16.00941371 101.89687722 19.9879473 101.95223747 24 102 C24 109.26 24 116.52 24 124 C18.43172938 124.42970577 12.86338183 124.85777652 7.29467773 125.28173828 C5.40235218 125.4262943 3.51009812 125.57178953 1.61791992 125.71826172 C-1.11000369 125.92926134 -3.83817098 126.13682392 -6.56640625 126.34375 C-7.40522842 126.40937134 -8.2440506 126.47499268 -9.10829163 126.54260254 C-9.90859299 126.60266479 -10.70889435 126.66272705 -11.53344727 126.72460938 C-12.22849869 126.77790405 -12.92355011 126.83119873 -13.6396637 126.8861084 C-16.75638056 127.03649708 -19.87965695 127 -23 127 C-23 85.42 -23 43.84 -23 1 C-15 0 -15 0 0 0 Z " fill="#171B18" transform="translate(175,10)"/>
<path d="M0 0 C0 15.51 0 31.02 0 47 C-4.18681103 47.69780184 -7.86802163 48.16534099 -12.0546875 48.31640625 C-13.71757812 48.37924805 -13.71757812 48.37924805 -15.4140625 48.44335938 C-16.55617188 48.48267578 -17.69828125 48.52199219 -18.875 48.5625 C-20.0403125 48.60568359 -21.205625 48.64886719 -22.40625 48.69335938 C-25.27072625 48.79901629 -28.13528321 48.90111799 -31 49 C-30.34 48.54625 -29.68 48.0925 -29 47.625 C-28.34 47.08875 -27.68 46.5525 -27 46 C-27 45.34 -27 44.68 -27 44 C-29.64 43.67 -32.28 43.34 -35 43 C-35.33 36.4 -35.66 29.8 -36 23 C-36.4125 24.52625 -36.825 26.0525 -37.25 27.625 C-39.30211694 34.36088386 -42.1547014 38.89560895 -47.92724609 42.92797852 C-51.622607 44.83920699 -55.35007127 44.78129825 -59.4375 44.8125 C-63.6759375 44.9053125 -63.6759375 44.9053125 -68 45 C-68 34.11 -68 23.22 -68 12 C-67.01 12 -66.02 12 -65 12 C-65.2784375 10.7934375 -65.2784375 10.7934375 -65.5625 9.5625 C-65.706875 8.716875 -65.85125 7.87125 -66 7 C-65.67 6.67 -65.34 6.34 -65 6 C-65.99 5.34 -66.98 4.68 -68 4 C-60.31535115 3.47528936 -52.63050784 2.95351119 -44.94541168 2.43539429 C-41.37626994 2.19467766 -37.80720035 1.95298149 -34.23828125 1.70898438 C-30.78899044 1.47320316 -27.33952921 1.24007646 -23.88993835 1.00872803 C-21.94460961 0.87758597 -19.99946295 0.74375166 -18.05432129 0.60986328 C-16.25335999 0.48973877 -16.25335999 0.48973877 -14.41601562 0.3671875 C-12.84382263 0.26059814 -12.84382263 0.26059814 -11.23986816 0.15185547 C-7.49701256 -0.02357546 -3.74696464 0 0 0 Z " fill="#1F1F1E" transform="translate(328,137)"/>
<path d="M0 0 C-0.2784375 1.1446875 -0.2784375 1.1446875 -0.5625 2.3125 C-1.22819173 5.08967375 -1.22819173 5.08967375 0 8 C-0.18747803 8.76546143 -0.37495605 9.53092285 -0.56811523 10.31958008 C-1.12949359 13.8036801 -0.27165126 15.64990335 1.08984375 18.88671875 C1.54423828 19.98951172 1.99863281 21.09230469 2.46679688 22.22851562 C2.95212891 23.36998047 3.43746094 24.51144531 3.9375 25.6875 C4.88684598 27.96110101 5.83359954 30.23578681 6.77734375 32.51171875 C7.20265381 33.51678467 7.62796387 34.52185059 8.06616211 35.55737305 C9 38 9 38 9 40 C6.36 40 3.72 40 1 40 C-0.4606285 37.35261084 -1 36.10551666 -1 33 C-5.29 33.33 -9.58 33.66 -14 34 C-14.28875 35.134375 -14.5775 36.26875 -14.875 37.4375 C-15.24625 38.613125 -15.6175 39.78875 -16 41 C-18.70879335 42.35439668 -21.00933268 42.06501451 -24 42 C-23.34309381 38.21760329 -22.279869 34.78158474 -20.9375 31.1875 C-20.57527344 30.21167969 -20.21304688 29.23585937 -19.83984375 28.23046875 C-19.42412109 27.12638672 -19.42412109 27.12638672 -19 26 C-19.66 26 -20.32 26 -21 26 C-21 25.34 -21 24.68 -21 24 C-24.51202512 25.20728609 -24.51202512 25.20728609 -28 27 C-29.04289755 29.06890419 -29.04289755 29.06890419 -29 31 C-29.66 31 -30.32 31 -31 31 C-30.54625 32.0725 -30.0925 33.145 -29.625 34.25 C-29.36976563 34.85328125 -29.11453125 35.4565625 -28.8515625 36.078125 C-27.96193599 38.08590592 -26.99581175 40.04301344 -26 42 C-29.19101866 42.6512283 -31.83470875 42.85045186 -35 42 C-37.25464811 39.59074745 -38.83382623 37.13321148 -40.4921875 34.28515625 C-41.85738597 31.70438131 -41.85738597 31.70438131 -45 31 C-45 35.29 -45 39.58 -45 44 C-47.64 44 -50.28 44 -53 44 C-53 33.11 -53 22.22 -53 11 C-48.71 10.34 -44.42 9.68 -40 9 C-41.65 8.01 -43.3 7.02 -45 6 C-45 5.67 -45 5.34 -45 5 C-47.97 5 -50.94 5 -54 5 C-54.33 6.32 -54.66 7.64 -55 9 C-55.99 9 -56.98 9 -58 9 C-58 9.66 -58 10.32 -58 11 C-57.34 11 -56.68 11 -56 11 C-56 13.31 -56 15.62 -56 18 C-58.97 18 -61.94 18 -65 18 C-65 26.91 -65 35.82 -65 45 C-67.64 45 -70.28 45 -73 45 C-73 36.42 -73 27.84 -73 19 C-75.97 19 -78.94 19 -82 19 C-82.125 12.375 -82.125 12.375 -81 9 C-81.66 9 -82.32 9 -83 9 C-83 8.34 -83 7.68 -83 7 C-84.65 7 -86.3 7 -88 7 C-85.25496457 4.25496457 -83.45008218 4.58670612 -79.60107422 4.31396484 C-78.61506226 4.24037498 -78.61506226 4.24037498 -77.60913086 4.16529846 C-75.42486728 4.0047315 -73.23992565 3.85759761 -71.0546875 3.7109375 C-69.52641286 3.60233845 -67.99818456 3.49308551 -66.47000122 3.38320923 C-63.25397591 3.15397952 -60.03759305 2.93108787 -56.82080078 2.71289062 C-52.74346887 2.43606082 -48.66718308 2.14641564 -44.5910778 1.8521328 C-41.42532558 1.62463538 -38.25918527 1.402966 -35.09289932 1.18303299 C-33.5932516 1.07843734 -32.0937017 0.97242729 -30.59426498 0.86484909 C-20.37914667 0.13747196 -10.24050683 -0.12665147 0 0 Z " fill="#1D1E1C" transform="translate(248,143)"/>
<path d="M0 0 C3.29191091 2.64806713 4.83764008 4.1276702 5.62145996 8.33898926 C5.61940552 9.60964233 5.61735107 10.88029541 5.61523438 12.18945312 C5.62078339 12.89416245 5.6263324 13.59887177 5.63204956 14.32493591 C5.64381913 16.64440849 5.61960163 18.96191537 5.59375 21.28125 C5.59203807 22.89880281 5.59210542 24.51635839 5.59387207 26.13391113 C5.59222037 29.52004629 5.57355102 32.90551816 5.54199219 36.29150391 C5.5023146 40.6260262 5.49794778 44.95968023 5.50545502 49.29434967 C5.5085285 52.63332027 5.49639081 55.97209666 5.47932434 59.3110199 C5.47230647 60.90895875 5.46916834 62.50691962 5.47001648 64.10487366 C5.46821326 66.34050064 5.44678859 68.5750985 5.41992188 70.81054688 C5.41150269 72.08119995 5.4030835 73.35185303 5.39440918 74.66101074 C4.97164423 78.24005431 4.12749562 80.12688599 2 83 C-1.05892236 85.37916184 -4.3501889 85.35551184 -8.09765625 85.2578125 C-10.77894717 84.89443426 -12.17587031 83.97006006 -14 82 C-15.1579304 78.52620879 -15.14122491 75.79529683 -15.16113281 72.12939453 C-15.16609772 71.43473083 -15.17106262 70.74006714 -15.17617798 70.02435303 C-15.19077829 67.72716276 -15.19759784 65.43004154 -15.203125 63.1328125 C-15.20887799 61.53482054 -15.21463571 59.9368286 -15.22039795 58.33883667 C-15.23090172 54.98809488 -15.23674854 51.63737703 -15.24023438 48.28662109 C-15.24571933 43.99698284 -15.2697498 39.70766196 -15.29820633 35.41812325 C-15.31684645 32.11696451 -15.32203902 28.81588205 -15.32357025 25.51467514 C-15.32659397 23.93345275 -15.33461304 22.35223161 -15.34775543 20.77106094 C-15.36484597 18.55692762 -15.36292884 16.34356739 -15.35644531 14.12939453 C-15.36009094 12.87047394 -15.36373657 11.61155334 -15.36749268 10.31448364 C-14.9706224 6.73503803 -14.12685046 4.8700879 -12 2 C-8.66296484 -0.59547179 -4.0306263 -1.07333251 0 0 Z " fill="#FDFDFC" transform="translate(300,22)"/>
<path d="M0 0 C3.17625 -0.0825 6.3525 -0.165 9.625 -0.25 C10.6145166 -0.28641602 11.6040332 -0.32283203 12.62353516 -0.36035156 C18.43723189 -0.43321374 21.55357802 0.1877745 26 4 C29.44985427 7.92569624 30.42678389 11.55745147 30.33984375 16.8125 C29.48725798 22.30040839 26.1037819 26.27445088 21.90625 29.6875 C17.62478516 32.63765379 13.63683389 32.77376463 8.5625 32.8125 C4.3240625 32.9053125 4.3240625 32.9053125 0 33 C0 22.11 0 11.22 0 0 Z " fill="#F7F7F6" transform="translate(260,149)"/>
<path d="M0 0 C0 15.51 0 31.02 0 47 C-4.62 47 -9.24 47 -14 47 C-13.505 44.03 -13.505 44.03 -13 41 C-12.96296931 39.00034285 -12.95239444 36.99943335 -13 35 C-13.84304688 35.24556641 -13.84304688 35.24556641 -14.703125 35.49609375 C-17.13059056 36.02864997 -19.26889681 36.09898681 -21.75 36.0625 C-22.54921875 36.05347656 -23.3484375 36.04445312 -24.171875 36.03515625 C-24.77515625 36.02355469 -25.3784375 36.01195312 -26 36 C-26 33.36 -26 30.72 -26 28 C-22.7 28 -19.4 28 -16 28 C-16 26.02 -16 24.04 -16 22 C-19.3 22 -22.6 22 -26 22 C-26 19.69 -26 17.38 -26 15 C-21.71 15 -17.42 15 -13 15 C-13 12.69 -13 10.38 -13 8 C-13.99 7.67 -14.98 7.34 -16 7 C-12.77208445 4.8480563 -11.71599191 4.79913557 -8 5 C-8 4.01 -8 3.02 -8 2 C-1.125 0 -1.125 0 0 0 Z " fill="#171B18" transform="translate(328,137)"/>
<path d="M0 0 C2.17240606 3.25860909 2.23564158 3.82050803 1.8125 7.5 C1.73644531 8.2734375 1.66039062 9.046875 1.58203125 9.84375 C0.9062105 12.34746175 -0.03996044 13.35166485 -2 15 C-0.23570801 19.97209562 2.3939166 24.43438061 5 29 C1.80898134 29.6512283 -0.83470875 29.85045186 -4 29 C-6.25464811 26.59074745 -7.83382623 24.13321148 -9.4921875 21.28515625 C-10.85738597 18.70438131 -10.85738597 18.70438131 -14 18 C-14 22.29 -14 26.58 -14 31 C-16.64 31 -19.28 31 -22 31 C-22 20.11 -22 9.22 -22 -2 C-6.4173913 -4.22608696 -6.4173913 -4.22608696 0 0 Z " fill="#F2F2F1" transform="translate(217,156)"/>
<path d="M0 0 C8 0 8 0 11 2 C8 4 8 4 5 4 C5 43.93 5 83.86 5 125 C5.66 125.33 6.32 125.66 7 126 C4.69 126 2.38 126 0 126 C0 84.42 0 42.84 0 0 Z " fill="#242726" transform="translate(152,11)"/>
<path d="M0 0 C1.17369141 -0.02513672 1.17369141 -0.02513672 2.37109375 -0.05078125 C5.06206496 0.39531558 5.88733635 1.20701908 7.5625 3.3125 C8.99759221 6.18268441 8.67408506 8.64793723 8.66015625 11.8515625 C8.65693359 13.15351562 8.65371094 14.45546875 8.65039062 15.796875 C8.64203466 17.17708399 8.63356971 18.55729232 8.625 19.9375 C8.61998501 21.32551926 8.6154221 22.71354022 8.61132812 24.1015625 C8.59950985 27.50522673 8.5815739 30.9088687 8.5625 34.3125 C2.6225 34.6425 -3.3175 34.9725 -9.4375 35.3125 C-9.51852542 30.93712713 -9.57802099 26.56325915 -9.625 22.1875 C-9.65013672 20.95 -9.67527344 19.7125 -9.70117188 18.4375 C-9.71083984 17.23867188 -9.72050781 16.03984375 -9.73046875 14.8046875 C-9.7461792 13.70495605 -9.76188965 12.60522461 -9.77807617 11.47216797 C-9.09792465 5.16211709 -6.71385674 0.03307319 0 0 Z " fill="#FBFBFA" transform="translate(110.4375,36.6875)"/>
<path d="M0 0 C2.64 0 5.28 0 8 0 C11.77166944 7.04597587 14.98001031 14.18244229 17.875 21.625 C18.1851001 22.41890137 18.4952002 23.21280273 18.81469727 24.03076172 C21 29.73611038 21 29.73611038 21 32 C18.36 32 15.72 32 13 32 C11.5393715 29.35261084 11 28.10551666 11 25 C4.565 25.495 4.565 25.495 -2 26 C-2.28875 27.134375 -2.5775 28.26875 -2.875 29.4375 C-3.24625 30.613125 -3.6175 31.78875 -4 33 C-6.70879335 34.35439668 -9.00933268 34.06501451 -12 34 C-11.2785604 29.17116427 -9.49114543 24.87824387 -7.6875 20.375 C-7.05375416 18.77120183 -6.42093988 17.16703524 -5.7890625 15.5625 C-5.32935059 14.39654297 -5.32935059 14.39654297 -4.86035156 13.20703125 C-3.15620668 8.83544505 -1.56811129 4.42187904 0 0 Z " fill="#F2F2F1" transform="translate(236,151)"/>
<path d="M0 0 C0.74056641 0.00451172 1.48113281 0.00902344 2.24414062 0.01367188 C4.05862899 0.02537825 5.87307534 0.04331102 7.6875 0.0625 C7.6875 2.0425 7.6875 4.0225 7.6875 6.0625 C3.3975 6.0625 -0.8925 6.0625 -5.3125 6.0625 C-5.3125 8.3725 -5.3125 10.6825 -5.3125 13.0625 C-2.0125 13.0625 1.2875 13.0625 4.6875 13.0625 C4.6875 15.0425 4.6875 17.0225 4.6875 19.0625 C1.3875 19.0625 -1.9125 19.0625 -5.3125 19.0625 C-5.3125 21.7025 -5.3125 24.3425 -5.3125 27.0625 C1.1225 26.5675 1.1225 26.5675 7.6875 26.0625 C7.6875 28.0425 7.6875 30.0225 7.6875 32.0625 C2.6875 33.0625 2.6875 33.0625 -13.3125 33.0625 C-13.3125 22.5025 -13.3125 11.9425 -13.3125 1.0625 C-8.74463534 0.14892707 -4.61334907 -0.05359566 0 0 Z " fill="#F6F6F5" transform="translate(307.3125,145.9375)"/>
<path d="M0 0 C1.32 0.33 2.64 0.66 4 1 C3.91609333 16.55978997 3.82095747 32.11947414 3.71247292 47.67911053 C3.66236252 54.90380933 3.61591944 62.12849689 3.578125 69.35327148 C3.54517199 75.65077684 3.50532253 81.94819445 3.45720994 88.24560291 C3.43197773 91.57968272 3.41121548 94.91369298 3.39665604 98.24783897 C3.3798129 101.97093705 3.35078168 105.69375313 3.31884766 109.41674805 C3.31668747 110.52086029 3.31452728 111.62497253 3.31230164 112.76254272 C3.30113815 113.77911453 3.28997467 114.79568634 3.2784729 115.84306335 C3.27294214 116.72337565 3.26741138 117.60368795 3.26171303 118.51067638 C2.96918701 121.29308253 2.14616608 123.45979273 1 126 C0.67 126 0.34 126 0 126 C0 84.42 0 42.84 0 0 Z " fill="#414340" transform="translate(210,7)"/>
<path d="M0 0 C0.042721 1.66611905 0.04063832 3.33382885 0 5 C-0.33 5.33 -0.66 5.66 -1 6 C-3.31 6 -5.62 6 -8 6 C-8 14.91 -8 23.82 -8 33 C-10.64 33 -13.28 33 -16 33 C-16 24.42 -16 15.84 -16 7 C-18.97 7 -21.94 7 -25 7 C-25 5.02 -25 3.04 -25 1 C-16.64895793 0.31728707 -8.38011029 -0.15392039 0 0 Z " fill="#F4F4F2" transform="translate(191,155)"/>
<path d="M0 0 C2.31 0.33 4.62 0.66 7 1 C8.38226016 3.76452033 8.09525387 6.0461363 8.0625 9.125 C8.05347656 10.22070312 8.04445312 11.31640625 8.03515625 12.4453125 C8.02355469 13.28835937 8.01195312 14.13140625 8 15 C9.32 15 10.64 15 12 15 C11.625 16.9375 11.625 16.9375 11 19 C10.34 19.33 9.68 19.66 9 20 C8.53045739 23.04581269 8.53045739 23.04581269 8.375 26.5625 C8.30023438 27.76003906 8.22546875 28.95757812 8.1484375 30.19140625 C8.09945312 31.11824219 8.05046875 32.04507813 8 33 C5.36 33 2.72 33 0 33 C0 22.11 0 11.22 0 0 Z " fill="#F3F3F2" transform="translate(195,154)"/>
<path d="M0 0 C9 0 9 0 12.0625 2 C14.55118086 5.85344134 14.83128815 8.53634405 14 13 C12.75011855 15.87472735 11.74531416 17.44101438 9.25 19.3125 C7 20 7 20 0 20 C0 13.4 0 6.8 0 0 Z " fill="#1D201F" transform="translate(268,155)"/>
<path d="M0 0 C-3.11910856 1.79275866 -5.67682428 2.34290718 -9.25 2.625 C-10.14203125 2.69976562 -11.0340625 2.77453125 -11.953125 2.8515625 C-12.62859375 2.90054688 -13.3040625 2.94953125 -14 3 C-14.33 4.32 -14.66 5.64 -15 7 C-15.99 7 -16.98 7 -18 7 C-18 7.66 -18 8.32 -18 9 C-17.34 9 -16.68 9 -16 9 C-16 11.31 -16 13.62 -16 16 C-16.66 15.67 -17.32 15.34 -18 15 C-17.67 13.35 -17.34 11.7 -17 10 C-17.63164062 10.0721875 -18.26328125 10.144375 -18.9140625 10.21875 C-26.62568579 11.01880314 -34.25180183 11.10180114 -42 11 C-41.67 9.68 -41.34 8.36 -41 7 C-41.66 7 -42.32 7 -43 7 C-43 6.34 -43 5.68 -43 5 C-44.65 5 -46.3 5 -48 5 C-44.92710724 1.92710724 -41.15858968 2.41177276 -37.01171875 2.1484375 C-35.66869438 2.05280014 -35.66869438 2.05280014 -34.29853821 1.95523071 C-31.42871653 1.75320691 -28.55819351 1.56418679 -25.6875 1.375 C-23.76361541 1.24038794 -21.83978626 1.10498093 -19.91601562 0.96875 C-4.70415294 -0.09003738 -4.70415294 -0.09003738 0 0 Z " fill="#2B2B2A" transform="translate(208,145)"/>
<path d="M0 0 C0.33 0 0.66 0 1 0 C1 15.51 1 31.02 1 47 C7.93 46.34 14.86 45.68 22 45 C27.1046019 44.6018558 32.20461357 44.2179621 37.3125 43.875 C38.53388672 43.78863281 39.75527344 43.70226562 41.01367188 43.61328125 C47.02443998 43.20234431 52.97528321 42.89522232 59 43 C58.34 44.65 57.68 46.3 57 48 C38.19 48 19.38 48 0 48 C0 32.16 0 16.32 0 0 Z " fill="#DBDBD9" transform="translate(0,160)"/>
<path d="M0 0 C4.06662662 1.55271198 5.57519602 2.36279402 8 6 C7.67 6.99 7.34 7.98 7 9 C6.01 8.67 5.02 8.34 4 8 C0.87469169 9.73132091 0.87469169 9.73132091 -0.3125 12.5625 C-2 15 -2 15 -5.10546875 15.65234375 C-6.53826172 15.82443359 -6.53826172 15.82443359 -8 16 C-8.04898438 15.00097656 -8.09796875 14.00195312 -8.1484375 12.97265625 C-8.22320312 11.68230469 -8.29796875 10.39195312 -8.375 9.0625 C-8.44460937 7.77472656 -8.51421875 6.48695313 -8.5859375 5.16015625 C-8.72257813 4.11730469 -8.85921875 3.07445312 -9 2 C-9.66 1.67 -10.32 1.34 -11 1 C-7.54641994 -0.72679003 -3.78326166 -0.36243011 0 0 Z " fill="#F1F1EF" transform="translate(211,153)"/>
<path d="M0 0 C7.92 0 15.84 0 24 0 C24 7.26 24 14.52 24 22 C22.25185483 19.37778224 21.16834253 17.0594659 19.9375 14.1875 C16.79624284 7.85879072 12.29560535 4.46505745 5.640625 2.1953125 C3.77999431 1.71365987 1.89096004 1.34381092 0 1 C0 0.67 0 0.34 0 0 Z " fill="#F5F5F4" transform="translate(304,0)"/>
<path d="M0 0 C0.33 0 0.66 0 1 0 C1 10.56 1 21.12 1 32 C11.89 31.505 11.89 31.505 23 31 C22.34 32.98 21.68 34.96 21 37 C23.64 37 26.28 37 29 37 C29 37.33 29 37.66 29 38 C16.625 38.495 16.625 38.495 4 39 C5.32 38.01 6.64 37.02 8 36 C8 35.34 8 34.68 8 34 C4.04 33.505 4.04 33.505 0 33 C0 22.11 0 11.22 0 0 Z " fill="#383838" transform="translate(293,147)"/>
<path d="M0 0 C0.99 0.66 1.98 1.32 3 2 C4.9896995 2.39013716 6.99019869 2.73202649 9 3 C9 3.66 9 4.32 9 5 C10.65 5.33 12.3 5.66 14 6 C13.01 6.495 13.01 6.495 12 7 C12 7.66 12 8.32 12 9 C12.66 9.33 13.32 9.66 14 10 C9.05 10 4.1 10 -1 10 C-0.34 8.68 0.32 7.36 1 6 C-0.65 6 -2.3 6 -4 6 C-4 5.34 -4 4.68 -4 4 C-3.01 4 -2.02 4 -1 4 C-0.67 2.68 -0.34 1.36 0 0 Z " fill="#212220" transform="translate(210,182)"/>
<path d="M0 0 C5.28 0 10.56 0 16 0 C15.67 1.65 15.34 3.3 15 5 C15.33 5.99 15.66 6.98 16 8 C15.01 8.99 14.02 9.98 13 11 C12.67 10.34 12.34 9.68 12 9 C11.0409375 8.566875 11.0409375 8.566875 10.0625 8.125 C7.57998766 6.77090236 7.03128603 5.57821507 6 3 C5.34 3 4.68 3 4 3 C4 2.34 4 1.68 4 1 C2.68 0.67 1.36 0.34 0 0 Z " fill="#292927" transform="translate(232,143)"/>
<path d="M0 0 C0.515625 0.37125 1.03125 0.7425 1.5625 1.125 C1.5625 2.115 1.5625 3.105 1.5625 4.125 C1.8925 3.465 2.2225 2.805 2.5625 2.125 C5.5325 2.455 8.5025 2.785 11.5625 3.125 C9.20891749 5.47858251 8.63281606 5.40371904 5.4296875 5.5390625 C4.22119141 5.59707031 4.22119141 5.59707031 2.98828125 5.65625 C1.72564453 5.70265625 1.72564453 5.70265625 0.4375 5.75 C-0.83673828 5.80800781 -0.83673828 5.80800781 -2.13671875 5.8671875 C-4.23661684 5.96156494 -6.33702891 6.04437586 -8.4375 6.125 C-8.1075 5.135 -7.7775 4.145 -7.4375 3.125 C-8.0975 2.465 -8.7575 1.805 -9.4375 1.125 C-3.0375 -1.09038462 -3.0375 -1.09038462 0 0 Z " fill="#1F2221" transform="translate(177.4375,129.875)"/>
<path d="M0 0 C2.875 -0.125 2.875 -0.125 6 0 C8 2 8 2 8.375 4.4375 C8 7 8 7 6.25 8.8125 C4 10 4 10 0 10 C0 6.7 0 3.4 0 0 Z " fill="#272727" transform="translate(203,159)"/>
<path d="M0 0 C0.33 0 0.66 0 1 0 C1 8.58 1 17.16 1 26 C2.32 26.33 3.64 26.66 5 27 C1.20307814 29.82561627 -1.18569279 31.56638908 -6 31 C-5.47181039 27.19703482 -4.56226812 24.88255163 -2 22 C-1.67 22 -1.34 22 -1 22 C-0.67 14.74 -0.34 7.48 0 0 Z " fill="#484A47" transform="translate(174,162)"/>
<path d="M0 0 C1.98 0.66 3.96 1.32 6 2 C6 1.34 6 0.68 6 0 C8.97 0.495 8.97 0.495 12 1 C11.01 1.66 10.02 2.32 9 3 C9.33 4.32 9.66 5.64 10 7 C6.37 7 2.74 7 -1 7 C-1.33 6.01 -1.66 5.02 -2 4 C-1.34 4 -0.68 4 0 4 C0 2.68 0 1.36 0 0 Z " fill="#222222" transform="translate(112,192)"/>
<path d="M0 0 C6.75 -0.125 6.75 -0.125 9 1 C9 1.66 9 2.32 9 3 C8.01 3.33 7.02 3.66 6 4 C7.32 4.33 8.64 4.66 10 5 C10 5.66 10 6.32 10 7 C6.7 7 3.4 7 0 7 C0 4.69 0 2.38 0 0 Z " fill="#222522" transform="translate(302,152)"/>
<path d="M0 0 C3.45854519 3.45854519 4 7.21904213 4 12 C1.69 12 -0.62 12 -3 12 C-2.69106068 10.3743193 -2.3777305 8.74947252 -2.0625 7.125 C-1.88847656 6.22007812 -1.71445313 5.31515625 -1.53515625 4.3828125 C-1 2 -1 2 0 0 Z " fill="#2C2C2C" transform="translate(240,159)"/>
<path d="M0 0 C-0.66 0 -1.32 0 -2 0 C-1.67 1.32 -1.34 2.64 -1 4 C-2.56116819 4.33951619 -4.12401338 4.67132544 -5.6875 5 C-6.99267578 5.2784375 -6.99267578 5.2784375 -8.32421875 5.5625 C-10.93712964 5.98972047 -13.35813038 6.07616201 -16 6 C-13.75539393 3.50439964 -11.61479403 2.1294516 -8.5625 0.75 C-7.80066406 0.39421875 -7.03882813 0.0384375 -6.25390625 -0.328125 C-3.72027666 -1.08338373 -2.45814874 -0.87351072 0 0 Z " fill="#232422" transform="translate(290,2)"/>
<path d="M0 0 C1.134375 0.020625 2.26875 0.04125 3.4375 0.0625 C3.1075 1.0525 2.7775 2.0425 2.4375 3.0625 C3.4275 3.3925 4.4175 3.7225 5.4375 4.0625 C4.4475 5.5475 4.4475 5.5475 3.4375 7.0625 C2.76074219 6.57910156 2.08398438 6.09570312 1.38671875 5.59765625 C-2.16355194 3.74963455 -4.76749453 3.63009238 -8.75 3.5 C-15.35317245 3.27182755 -15.35317245 3.27182755 -17.5625 1.0625 C-16.63566406 1.07410156 -15.70882813 1.08570313 -14.75390625 1.09765625 C-12.95759766 1.11119141 -12.95759766 1.11119141 -11.125 1.125 C-9.33255859 1.14240234 -9.33255859 1.14240234 -7.50390625 1.16015625 C-3.84614132 1.03871651 -3.88710877 0.06819489 0 0 Z " fill="#353533" transform="translate(281.5625,145.9375)"/>
<path d="M0 0 C0.33 1.65 0.66 3.3 1 5 C-4.94 5.495 -4.94 5.495 -11 6 C-11 3 -11 3 -10 1.3125 C-6.78628571 -0.7965 -3.78496571 -0.18614585 0 0 Z " fill="#191919" transform="translate(304,180)"/>
<path d="M0 0 C0.33 0.99 0.66 1.98 1 3 C0.67 3.66 0.34 4.32 0 5 C0.66 5 1.32 5 2 5 C1.67 5.99 1.34 6.98 1 8 C-2.37503669 6.8141763 -4.64722731 5.72426311 -7 3 C-4.49955934 -0.00052879 -4.2621484 0 0 0 Z " fill="#2A2A2A" transform="translate(93,130)"/>
<path d="M0 0 C2.64 0 5.28 0 8 0 C8 0.33 8 0.66 8 1 C6.02 1 4.04 1 2 1 C2 1.66 2 2.32 2 3 C2.99 3.33 3.98 3.66 5 4 C6.37195574 5.29355827 7.71182656 6.62298702 9 8 C6.03 8 3.06 8 0 8 C0 5.36 0 2.72 0 0 Z " fill="#414140" transform="translate(302,165)"/>
<path d="M0 0 C0.33 0 0.66 0 1 0 C1 7.26 1 14.52 1 22 C-1.31 22 -3.62 22 -6 22 C-5 20 -5 20 -2 19 C-0.76240177 15.28720531 -0.64391103 11.68693654 -0.4375 7.8125 C-0.37272461 6.68811523 -0.37272461 6.68811523 -0.30664062 5.54101562 C-0.20077315 3.69421625 -0.0999024 1.84713166 0 0 Z " fill="#1F201F" transform="translate(198,112)"/>
<path d="M0 0 C-0.33 1.65 -0.66 3.3 -1 5 C-0.34 5.33 0.32 5.66 1 6 C-0.258125 6.04125 -1.51625 6.0825 -2.8125 6.125 C-3.52019531 6.14820313 -4.22789062 6.17140625 -4.95703125 6.1953125 C-7 6 -7 6 -10 4 C-8.71086513 3.32845067 -7.41859796 2.66291141 -6.125 2 C-5.40570313 1.62875 -4.68640625 1.2575 -3.9453125 0.875 C-2 0 -2 0 0 0 Z " fill="#2C2C2B" transform="translate(180,189)"/>
<path d="M0 0 C-3.42388092 3.82669043 -6.00724943 5.72278474 -11 7 C-10.67 6.01 -10.34 5.02 -10 4 C-9.34 4 -8.68 4 -8 4 C-8 3.01 -8 2.02 -8 1 C-5.29120665 -0.35439668 -2.99066732 -0.06501451 0 0 Z " fill="#282826" transform="translate(133,130)"/>
<path d="M0 0 C1.98 0 3.96 0 6 0 C4.3619751 3.51005335 2.96865509 6.45543849 0 9 C0 8.34 0 7.68 0 7 C-0.66 6.67 -1.32 6.34 -2 6 C-1.34 4.02 -0.68 2.04 0 0 Z " fill="#242623" transform="translate(133,121)"/>
<path d="M0 0 C1.32 0.33 2.64 0.66 4 1 C4 1.66 4 2.32 4 3 C5.32 3 6.64 3 8 3 C7.67 4.65 7.34 6.3 7 8 C7.66 8.33 8.32 8.66 9 9 C8.01 9.33 7.02 9.66 6 10 C4.02 6.7 2.04 3.4 0 0 Z " fill="#252523" transform="translate(217,177)"/>
<path d="M0 0 C0.804375 0.4640625 0.804375 0.4640625 1.625 0.9375 C4.3984957 2.17827439 7.00042837 2.5909675 10 3 C7.42786866 4.61949011 6.32330841 5.04408751 3.25 4.625 C2.5075 4.41875 1.765 4.2125 1 4 C1.33 4.99 1.66 5.98 2 7 C1.01 6.67 0.02 6.34 -1 6 C-1.042721 4.33388095 -1.04063832 2.66617115 -1 1 C-0.67 0.67 -0.34 0.34 0 0 Z " fill="#262725" transform="translate(286,104)"/>
<path d="M0 0 C0.144375 0.61875 0.28875 1.2375 0.4375 1.875 C0.93152225 4.03258322 0.93152225 4.03258322 2 6 C1.67 6.99 1.34 7.98 1 9 C0.34 9 -0.32 9 -1 9 C-1.33 9.66 -1.66 10.32 -2 11 C-2.66 9.35 -3.32 7.7 -4 6 C-3.525625 5.566875 -3.05125 5.13375 -2.5625 4.6875 C-0.76313043 2.97690387 -0.76313043 2.97690387 0 0 Z " fill="#222222" transform="translate(218,165)"/>
<path d="M0 0 C1.50433594 0.01353516 1.50433594 0.01353516 3.0390625 0.02734375 C3.80992187 0.03894531 4.58078125 0.05054688 5.375 0.0625 C1.47772859 2.08135681 -2.50697528 3.5525576 -6.625 5.0625 C-6.955 3.7425 -7.285 2.4225 -7.625 1.0625 C-4.98041621 -0.25979189 -2.94738699 -0.03427194 0 0 Z " fill="#EFF0EE" transform="translate(284.625,-0.0625)"/>
<path d="M0 0 C0.99 0.99 1.98 1.98 3 3 C3.66 2.34 4.32 1.68 5 1 C4.67 2.65 4.34 4.3 4 6 C2.02 6 0.04 6 -2 6 C-1.125 1.125 -1.125 1.125 0 0 Z " fill="#DADAD8" transform="translate(226,179)"/>
<path d="M0 0 C0.66 0 1.32 0 2 0 C3.0625 1.8125 3.0625 1.8125 4 4 C3 7 3 7 1 8 C-0.5625 6.75 -0.5625 6.75 -2 5 C-1.74853421 2.86254078 -1.54074221 1.54074221 0 0 Z " fill="#161615" transform="translate(221,157)"/>
<path d="M0 0 C-3.28804981 2.91227269 -5.59885603 4.49701212 -10 5 C-10 4.01 -10 3.02 -10 2 C-3.375 -1.125 -3.375 -1.125 0 0 Z " fill="#272B28" transform="translate(104,16)"/>
<path d="M0 0 C0.66 0 1.32 0 2 0 C2 1.98 2 3.96 2 6 C3.98 6 5.96 6 8 6 C8 6.66 8 7.32 8 8 C6.68 8.33 5.36 8.66 4 9 C4 8.34 4 7.68 4 7 C2.68 7 1.36 7 0 7 C-0.93423645 3.98968256 -1.04449911 3.13349732 0 0 Z " fill="#4B4B49" transform="translate(164,156)"/>
<path d="M0 0 C-0.33 0.99 -0.66 1.98 -1 3 C-1.66 2.67 -2.32 2.34 -3 2 C-3 2.66 -3 3.32 -3 4 C-6.63 3.34 -10.26 2.68 -14 2 C-14 1.67 -14 1.34 -14 1 C-12.22932584 0.83165067 -10.45845388 0.66538091 -8.6875 0.5 C-7.70136719 0.4071875 -6.71523437 0.314375 -5.69921875 0.21875 C-3 0 -3 0 0 0 Z " fill="#3B3D3A" transform="translate(142,96)"/>
<path d="M0 0 C0.66 0.33 1.32 0.66 2 1 C1.690625 1.886875 1.38125 2.77375 1.0625 3.6875 C0.1709329 6.46709155 -0.49377007 9.13136375 -1 12 C-1.99 12 -2.98 12 -4 12 C-3.45660208 7.43545749 -2.20536179 4.0271824 0 0 Z " fill="#2C2F2C" transform="translate(83,28)"/>
<path d="M0 0 C2.88575819 0.39803561 3.82189513 0.79009069 5.75 3.0625 C6.1625 3.701875 6.575 4.34125 7 5 C5.1875 5.6875 5.1875 5.6875 3 6 C1.25 4.75 1.25 4.75 0 3 C0 2.01 0 1.02 0 0 Z " fill="#EDEDEB" transform="translate(281,151)"/>
<path d="M0 0 C0.99 0 1.98 0 3 0 C2.25 5.75 2.25 5.75 0 8 C0 7.34 0 6.68 0 6 C-0.66 6 -1.32 6 -2 6 C-1.34 4.02 -0.68 2.04 0 0 Z " fill="#272727" transform="translate(289,168)"/>
<path d="M0 0 C0.33 0 0.66 0 1 0 C1.29296875 6.0546875 1.29296875 6.0546875 1 8 C0.01 8.66 -0.98 9.32 -2 10 C-1.85950482 8.52031676 -1.71245174 7.04125484 -1.5625 5.5625 C-1.48128906 4.73878906 -1.40007812 3.91507813 -1.31640625 3.06640625 C-1 1 -1 1 0 0 Z " fill="#171717" transform="translate(292,159)"/>
<path d="M0 0 C0 0.33 0 0.66 0 1 C-2.31 1.33 -4.62 1.66 -7 2 C-7 2.66 -7 3.32 -7 4 C-8.65 3.67 -10.3 3.34 -12 3 C-11 1 -11 1 -9.375 0.375 C-6.2339425 -0.12095645 -3.17398169 -0.06103811 0 0 Z " fill="#272727" transform="translate(327,137)"/>
<path d="M0 0 C0.99 0.66 1.98 1.32 3 2 C3 2.99 3 3.98 3 5 C1.824375 5.4640625 1.824375 5.4640625 0.625 5.9375 C-1.92330128 6.92875038 -1.92330128 6.92875038 -4 8 C-2.66666667 5.33333333 -1.33333333 2.66666667 0 0 Z " fill="#E9EAE8" transform="translate(138,122)"/>
<path d="M0 0 C6.875 3.75 6.875 3.75 8 6 C6.68 6.33 5.36 6.66 4 7 C0 2.25 0 2.25 0 0 Z " fill="#2C2E2D" transform="translate(127,16)"/>
<path d="M0 0 C3.3 0.66 6.6 1.32 10 2 C10 2.33 10 2.66 10 3 C6.04 3 2.08 3 -2 3 C-1.34 2.01 -0.68 1.02 0 0 Z " fill="#3B3B39" transform="translate(30,202)"/>
<path d="M0 0 C1.62463842 -0.05395478 3.24978541 -0.09277195 4.875 -0.125 C5.77992188 -0.14820313 6.68484375 -0.17140625 7.6171875 -0.1953125 C10 0 10 0 12 2 C11 3 11 3 8.4375 3.0625 C7.2309375 3.0315625 7.2309375 3.0315625 6 3 C6 2.67 6 2.34 6 2 C3.03 1.505 3.03 1.505 0 1 C0 0.67 0 0.34 0 0 Z " fill="#434343" transform="translate(302,138)"/>
<path d="M0 0 C0.66 0.66 1.32 1.32 2 2 C1.625 4.125 1.625 4.125 1 6 C-0.32 6.33 -1.64 6.66 -3 7 C-1.125 1.125 -1.125 1.125 0 0 Z " fill="#272A29" transform="translate(267,15)"/>
<path d="M0 0 C-0.66 0 -1.32 0 -2 0 C-2 0.66 -2 1.32 -2 2 C-1.34 2.33 -0.68 2.66 0 3 C-2.64 3 -5.28 3 -8 3 C-5.45189726 -0.82215411 -4.39145359 -1.46381786 0 0 Z " fill="#40423F" transform="translate(224,189)"/>
<path d="M0 0 C1.65 0 3.3 0 5 0 C5 1.65 5 3.3 5 5 C4.01 5.33 3.02 5.66 2 6 C1.34 4.02 0.68 2.04 0 0 Z " fill="#222222" transform="translate(255,177)"/>
<path d="M0 0 C0.8353125 0.37125 0.8353125 0.37125 1.6875 0.75 C1.3575 1.74 1.0275 2.73 0.6875 3.75 C-1.9525 3.75 -4.5925 3.75 -7.3125 3.75 C-2.88173077 -0.31153846 -2.88173077 -0.31153846 0 0 Z " fill="#101513" transform="translate(276.3125,170.25)"/>
<path d="M0 0 C1.670625 0.061875 1.670625 0.061875 3.375 0.125 C3.375 0.785 3.375 1.445 3.375 2.125 C1.395 3.115 1.395 3.115 -0.625 4.125 C-0.625 3.465 -0.625 2.805 -0.625 2.125 C-2.275 2.125 -3.925 2.125 -5.625 2.125 C-3.625 0.125 -3.625 0.125 0 0 Z " fill="#383836" transform="translate(165.625,147.875)"/>
<path d="M0 0 C1.875 0.25 1.875 0.25 4 1 C5.25 3.0625 5.25 3.0625 6 5 C4.35 4.67 2.7 4.34 1 4 C0.67 2.68 0.34 1.36 0 0 Z " fill="#292928" transform="translate(203,174)"/>
<path d="M0 0 C0.66 0 1.32 0 2 0 C2 0.66 2 1.32 2 2 C2.66 2 3.32 2 4 2 C4.33 1.34 4.66 0.68 5 0 C5.33 1.32 5.66 2.64 6 4 C4.02 4.99 4.02 4.99 2 6 C1.34 4.02 0.68 2.04 0 0 Z " fill="#272B27" transform="translate(79,121)"/>
<path d="M0 0 C1.74627478 2.61941217 2.38722388 4.03824877 3 7 C1.35 7 -0.3 7 -2 7 C-1.34 4.69 -0.68 2.38 0 0 Z " fill="#242422" transform="translate(283,96)"/>
<path d="M0 0 C1.32 0 2.64 0 4 0 C4 0.66 4 1.32 4 2 C4.66 2.66 5.32 3.32 6 4 C2 4 2 4 0 3 C0 2.01 0 1.02 0 0 Z " fill="#272725" transform="translate(272,121)"/>
<path d="M0 0 C2.4375 0.75 2.4375 0.75 4.4375 2.75 C3.7775 3.41 3.1175 4.07 2.4375 4.75 C2.4375 4.09 2.4375 3.43 2.4375 2.75 C-0.2025 2.42 -2.8425 2.09 -5.5625 1.75 C-2.5625 -0.25 -2.5625 -0.25 0 0 Z " fill="#3D3D3C" transform="translate(114.5625,35.25)"/>
<path d="M0 0 C3 3.625 3 3.625 3 7 C2.01 7 1.02 7 0 7 C-0.38133299 5.0085944 -0.71325582 3.00720923 -1 1 C-0.67 0.67 -0.34 0.34 0 0 Z " fill="#2B2D2B" transform="translate(138,27)"/>
</svg>
